<?xml version="1.0" encoding="UTF-8" standalone="no"?>
<svg id="svg2" xmlns:rdf="http://www.w3.org/1999/02/22-rdf-syntax-ns#" xmlns="http://www.w3.org/2000/svg" height="1144.6pt" width="878.43pt" version="1.1" xmlns:cc="http://creativecommons.org/ns#" xmlns:dc="http://purl.org/dc/elements/1.1/" viewBox="0 0 878.43353 1144.619">
<g id="g4484" transform="translate(-2404.4 -5.1092)">
<path id="rect4481" d="m2886.1 5.1094c-12.13 16.45-22.7 34.09-34.52 50.7-19.31-5.2-36.7-17.399-55.48-24.709-23.76 46.89-45.53 95.071-68.58 142.44-2.75 3.8 0.1991 8.01 1.9391 11.55-26.48 7.13-58.88 23.689-60.83 54.619-17.02 1.67-25.779 19.69-29.759 34.55-17.69 0.63-30.69 20.101-27.7 36.961-2.19 0.56-3.0109 6.1094-5.4609 2.2594-18.17 4.69-29.909 21.07-37.889 36.95-24.27 4.75-47.491 28.06-44.841 54.37-2.7 5.18-8.5906 2.8603-12.541 6.6203-15.21 9.42-23.429 27.979-26.319 44.109-20.68 4.52-36.991 24.26-37.181 45.55-7.29 12.17-22.26 24.26-16.75 40.87-21.61 14.74-36.899 49.3-15.389 70.22 11.5 9.66 27.48 9.1591 41.55 11.389 1.15 3.97 1.93 9.47 3.6 12.15 31.01 98.28 60.099 198.36 93.259 295.22 0.23 5.2 2.0097 10.29 4.1297 15.03 2.95 10.36 5.7006 21.091 9.8406 30.941 0.85 4.79 2.0997 9.5903 4.0797 14.07 4.09 13.06 7.55 26.6 12.7 39.18 0.17 4.15 1.8209 8.0606 3.3109 11.891 3.74 12.16 6.8888 25.559 11.869 36.869 0.1112 3.8782 1.7911 7.488 2.9906 11.126 1.24-0.3036 2.1958-0.775 2.9031-1.3562-0.7076 0.5824-1.6613 1.0569-2.9031 1.3609 6.7 13.86 3.1297 36.69 21.88 41 40.8 12.6 84.061 14.299 126.39 16.569 88.3 3.75 177.01 3.1812 264.97-7.1188 18.52-4.26 40.12-3.9906 55.2-16.991 15.25-47.59 30.31-95.37 44.2-143.35 1.38-3.92 2.9491-7.8603 3.3391-12.02 4.61-10.52 6.74-22.27 10.65-33.15 1.37-4.71 3.1597-9.3303 3.9797-14.17 5.71-15.82 10.731-33.09 15.341-49.45 2.27-4.9 3.8403-10.17 4.7203-15.5 6.53-18.11 12.18-36.969 17.22-55.659 3.03-5.77 4.71-12.73 5.75-19.2 7.19-18.78 12.75-40.15 19.1-59.98 2-5.96 4.1094-11.93 5.2594-18.12 11.09-26.92 20.101-57.25 27.441-86.12 19.27-2.67 43.88-4.7991 53.35-24.889 7.92-22.36-9.7809-46.86-28.911-56.62-4.48-13.12-10.969-25.641-22.239-34.591 0.8428-23.948-21.457-46.769-45.408-47.463-0.7726-0.0224-1.5482-0.021-2.3234 0.003 4.3-20.42-11.15-39.26-31.1-42.12-0.81-20.09-16.199-39.559-34.919-44.509-7.94-17.41-16.431-38.191-35.161-46.711-0.9-19.69-14.959-39.39-32.859-46.57-8.01-13.36-21.08-22.24-35.13-28.53 6.23-31.76-29.73-50.809-57.02-45.689 18.65-31.79 41.06-61.481 60.83-92.611 0.03-5.81 1.2997-14.29-4.7203-17.65-42.33-27.33-83.479-56.51-125.86-83.72z" fill="#cb120f"/>
<path id="path4" d="m2886.1 5.1094c-12.13 16.45-22.7 34.09-34.52 50.7-19.31-5.2-36.7-17.399-55.48-24.709-23.76 46.89-45.53 95.071-68.58 142.44-2.75 3.8 0.1991 8.01 1.9391 11.55 4.89-0.81 9.8409-1.1303 14.811-1.0703-3.01-4.98-12.071-4.08-13.081-9.85 21.6-46.26 43.771-92.311 66.041-138.26 47 21.11 93.54 43.731 139.75 66.531-14.65 36.68-34.219 71.869-50.259 108.19-1.3 3.65 5.2297 0.84969 7.3297 1.6797 7.43-0.56 14.899-0.87969 22.259-2.1797-3.62-4.19-12.89-7.8597-6.9297-13.83 6.3-0.23 10.63 5.9597 16.47 7.5797 23.83-35.19 47.499-70.57 71.109-105.93 2.86-3.46-2.6003-5.2603-4.6203-7.3203-32.17-21.49-64.529-42.72-96.369-64.7-1.99-1.05-5.4712-4.5103-7.7312-1.7703-9.27 10.39-14.6 23.861-24.23 33.941-1.98 2.97-5.3291 1.0697-7.7391-0.22031 7.9-17.12 20.259-32.819 30.769-47.739 41.81 26.17 82.191 55.179 123.78 81.959-23 38.58-50.851 74.289-73.881 112.86 6.34-1.85 12.631-3.8288 18.911-5.8688 18.65-31.79 41.06-61.481 60.83-92.611 0.03-5.81 1.2997-14.29-4.7203-17.65-42.33-27.33-83.479-56.51-125.86-83.72zm4.3 26.091c34 19.17 66.179 43.791 99.459 65.041-20.04 34.01-43.819 66.69-65.959 99.65-3.65-2.17-10.11-4.5812-9.7203-9.5812 11.16-23.51 22.63-46.92 33.42-70.58-0.99-6.84-2.11-16.08-9.4-18.97-22.6-10.79-45.261-21.439-67.911-32.119 3.07-12.34 13.611-22.561 20.111-33.441zm-88.8 18.03c-19.71 39.96-39.41 80.14-57.45 120.8 6.66 8.06 20.45 10.961 30.05 16.841 15.5 5.61 30.6 12.55 46.72 16.32-22.18-13.24-46.58-22.6-69.62-34.32 17.04-37.47 35.08-74.651 53.2-111.66 37.95 15.54 75.4 34.73 112.45 52.9-15.18 34.32-32.931 67.501-47.841 101.96 1.61 0.03 4.83 0.0997 6.45 0.12969 15.99-34.4 32.931-68.37 48.811-102.82 1.95-3.33-2.94-4.4294-5.1-5.6594-39.6-17.17-77.6-39.57-117.7-54.49zm-6.7984 179.86c-14.816-0.24157-16.837 25.418-0.2813 24.389 14.86 1.07 16.569-21.579 2.5594-24.159-0.7899-0.14344-1.5495-0.21781-2.2781-0.22969zm158.97 21.816c-2.1108-0.0551-4.3388 0.55344-6.5719 2.0234-9.23 1.6-9.97 14.501-6.3 21.211 6.63 9.62 17.86 5.6294 24.62-1.0406 4.3469-9.2381-2.6017-21.955-11.748-22.194zm-267.4 8.49c-19.06 0.1-19.1 29.601-0.1203 29.041 17.94-0.58 17.56-27.861 0.1203-29.041zm213.66 62.608c-8.1624-0.25961-16.57 5.7747-15.222 15.952 2.42 19.73 32.851 13.031 28.431-5.8891-2.1531-6.76-7.6245-9.8849-13.209-10.062zm152.76 4.7734c-7.8683 0.23401-16.297 6.6572-16 15.848 3.7 20.09 36.219 12.141 28.389-6.5391-1.885-6.7316-7.0055-9.4695-12.389-9.3094zm-248.02 15.72c-6.1582-0.0771-12.179 3.8378-11.653 11.498-2.94 16.09 27.92 16.41 23.87-1.8-1.2422-6.4547-6.7834-9.6304-12.217-9.6984zm-93.253 13.711c-13.614-0.25349-21.089 23.797-4.5703 27.247 2.15 1.25 4.3494 2.9309 6.9594 1.9109 15.26-2.96 15.921-25.59 0.4109-28.77-0.9569-0.24625-1.8924-0.3706-2.8-0.3875zm-134.35 8.2391c-2.3977 0.0113-4.925 0.73688-7.364 2.3688-14.99 12.14 10.441 31.569 18.261 16.089 4.5859-9.4297-2.3335-18.498-10.897-18.458zm375.05 22.228c-6.5 0.22-12.6 4.86-12.5 13.32 5.09 16.85 27.44 10.83 25.68-5.5203-2.7388-5.4644-8.0348-7.97-13.109-7.8zm172.05 17.809c-0.2929 0.002-0.5911 0.013-0.8969 0.0312-12.81-0.92-16.661 18.049-4.6406 22.809 16.892 8.1309 23.987-22.982 5.5375-22.841zm-278.48 48.567c-9.5766 0.3225-20.062 13.387-12.209 22.214 4.48 10.11 19.521 8.9503 24.511 0.47031 1.56-7.08 4.2694-13.791-3.7406-18.131-2.2775-3.3525-5.3688-4.6606-8.5609-4.5531zm182.36 7.3969c-0.5348-0.0139-1.0857 0.001-1.6516 0.0469-18.78 0.53-16.51 30.5 1.4203 28.55 18.319-0.0194 16.808-28.165 0.2313-28.597zm-319.22 1.6906c-7.4603 0.20084-9.5988 7.8706-12.25 14.416 0.77 12.59 23.821 20.69 27.141 5.25 6.82-7.32-2.55-21.209-11.35-19.269-1.3-0.30124-2.4749-0.42556-3.5406-0.39687zm454.8 2.2625c-6.7086-0.14678-13.627 4.7866-13.081 12.664 4.25 23.87 37.23 4.0603 20.4-10.03-2.1009-1.7409-4.6936-2.5769-7.3188-2.6344zm-600 2.0484c-10.14-0.4159-20.107 11.191-14.086 20.486 2.8 11.05 21.37 12.42 24.2 1 6.99-6.09 0.9791-13.29-3.2609-19.1-2.1638-1.5525-4.5132-2.29-6.8531-2.3859zm-95.3 57.87c-8.0626 0.23542-16.358 6.5631-14.62 16.694 2.61 17.22 32.48 13.369 28.18-5.1109-1.2-8.27-7.3-11.77-13.6-11.58zm270 17.92c-9.1291 0.0234-11.203 7.7719-12.309 15.591 3.98 8.64 15.38 11.99 22.35 4.5297 6.02-7.77 0.4912-18.78-8.1188-20.02-0.6731-0.0694-1.3132-0.10156-1.9218-0.1zm434.41 4.1406c-5.9554-0.17772-12.057 2.6356-13.991 8.9094-8.83 21.14 28.759 27.179 27.059 5.6094 2.0025-9.1181-5.4118-14.29-13.069-14.519zm-210.48 1.8031c-2.0128 0.061-4.0278 0.72187-5.8765 2.1469-10.46 1.57-11.75 19.199-2.4703 23.589 5.93 7.26 19.361 1.6697 20.681-6.2203 5.07-8.7912-3.612-19.78-12.334-19.516zm-109.4 40.79c-15.164-0.22744-12.99 27.649 2.1547 24.075 14.26 0.3 13.409-22.67 0.2094-23.83-0.8302-0.15421-1.6183-0.23413-2.3641-0.24531zm-179.58 4.2125c-7.5563-0.22-15.27 4.3919-13.88 14.072-4.87 16.54 29.09 19.5 26.82 0.85 2.015-9.65-5.3844-14.702-12.941-14.922zm411.4 5.7359c-1.4711 0.0327-2.9375 0.3625-4.3203 1.0469-8.48 0.89-9.9703 14.27-3.6203 19.02 4.93 6.28 18.089 4.1888 19.309-4.0312 4.6237-7.7541-3.4248-16.213-11.369-16.036zm-541.86 0.0844c-7.7099 0.25665-15.549 6.7325-12.022 17.122 6.91 10.47 23.75 7.84 24.37-5.35-0.4331-8.4088-6.3518-11.972-12.348-11.772z" fill="#301001"/>
<path id="path6" d="m2887.1 10.141c-10.51 14.92-22.869 30.619-30.769 47.739 2.41 1.29 5.7591 3.1903 7.7391 0.22031 9.63-10.08 14.96-23.551 24.23-33.941 2.26-2.74 5.7412 0.72031 7.7312 1.7703 31.84 21.98 64.199 43.21 96.369 64.7 2.02 2.06 7.4803 3.8603 4.6203 7.3203-23.61 35.36-47.279 70.74-71.109 105.93-5.84-1.62-10.17-7.8097-16.47-7.5797-5.96 5.97 3.3097 9.6397 6.9297 13.83 6.99-1.18 13.93-2.8103 20.63-5.1703 23.03-38.57 50.881-74.279 73.881-112.86-41.59-26.78-81.971-55.789-123.78-81.959zm3.3 21.059c-6.5 10.88-17.041 21.101-20.111 33.441 22.65 10.68 45.311 21.329 67.911 32.119 7.29 2.89 8.41 12.13 9.4 18.97-10.79 23.66-22.26 47.07-33.42 70.58-0.39 5 6.0703 7.4112 9.7203 9.5812 22.14-32.96 45.919-65.64 65.959-99.65-33.3-21.249-65.5-45.87-99.5-65.04zm-93.141 4.7094c-22.27 45.95-44.441 92.001-66.041 138.26 1.01 5.77 10.071 4.87 13.081 9.85 10.03-0.13 20.029 0.79 29.859 2.85-9.6-5.88-23.39-8.7806-30.05-16.841 18.04-40.66 37.74-80.84 57.45-120.8 40.11 14.92 78.13 37.321 117.67 54.491 2.16 1.23 7.05 2.3294 5.1 5.6594-15.88 34.45-32.821 68.42-48.811 102.82 6.16 0.71 12.381 0.83938 18.561 0.10938-2.1-0.83-8.6297 1.9703-7.3297-1.6797 16.04-36.32 35.609-71.509 50.259-108.19-46.21-22.8-92.75-45.421-139.75-66.531zm7.2 21.3c-18.12 37.01-36.16 74.191-53.2 111.66 23.04 11.72 47.44 21.08 69.62 34.32 15.59 4.84 31.919 7.4197 48.189 8.8797 14.91-34.46 32.661-67.641 47.841-101.96-37.05-18.17-74.5-37.36-112.45-52.9zm13.93 25.261c-5.91 30.96-25.049 64.31-44.959 90.78-1.29-34.66 17.609-70.1 44.959-90.78z" fill="#462512"/>
<path id="path16" d="m2818.4 82.47c-5.91 30.96-25.05 64.31-44.96 90.78-1.29-34.66 17.61-70.1 44.96-90.78z" fill="#634638"/>
<path id="path18" d="m2744.3 184.02c-4.97-0.06-9.9209 0.26031-14.811 1.0703-26.48 7.13-58.88 23.689-60.83 54.619 6.92 14.73 25.671 9.64 38.591 8.35 78.65 0.17 154.97 25.171 233.61 26.081-3.67-6.71-2.93-19.611 6.3-21.211 11.91-7.84 23.67 8.8003 18.32 20.17 18.41-2.55 40.68-8.7003 47.42-28.32 6.23-31.76-29.73-50.809-57.02-45.689-6.28 2.04-12.571 4.0188-18.911 5.8688-6.7 2.36-13.64 3.9903-20.63 5.1703-7.36 1.3-14.829 1.6197-22.259 2.1797-6.18 0.73-12.401 0.60062-18.561-0.10938-1.62-0.03-4.84-0.0997-6.45-0.12969-16.27-1.46-32.599-4.0397-48.189-8.8797-16.12-3.77-31.22-10.71-46.72-16.32-9.83-2.06-19.829-2.98-29.859-2.85zm28.224 19.747c34.735-0.26687 68.785 10.002 100.85 22.873 37.89 15.14 81.031 8.7388 116.56-9.6812-18.86 19.12-45.97 29.381-72.53 31.491-29.23 3.53-56.57-9.0594-83.47-18.409-43.75-12.62-92.541-20.79-136.06-3.1-1.01 0.18-4.7388 2.2797-3.6188-0.52031 18.38-13.49 40.86-19.92 63.35-21.87 4.9863-0.49125 9.9613-0.74469 14.924-0.78282zm22.238 25.323c0.7286 0.0119 1.4882 0.0863 2.2781 0.22969 14.01 2.58 12.301 25.229-2.5594 24.159-16.556 1.0294-14.534-24.631 0.2813-24.389zm253.27 44.219c5.53 17.96-16.011 30.311-31.311 29.761-47.63 0.3-94.239-18.65-142.17-10.53-37.91 9.31-77.01 14.69-116.1 12.05-31.53-1.65-62.591-9.38-94.311-7.55-12.88 1.12-26.739-8.8612-25.239-22.781-17.69 0.63-30.69 20.101-27.7 36.961 2.55 10.13 13.2 14.789 21.9 18.689 50.76 19.96 107.77 20.611 160.08 24.091-0.99-14.42 21.22-15.57 23.87-1.8 21.73-5.97 46.009-6.1506 67.819-14.241-2.27-17.14 23.131-22.529 28.431-5.8891 42.18-8.63 81.74 17.869 123.55 10.559-0.5-15.48 23.749-23.109 28.389-6.5391 7.22-3.2 13.09-8.6409 15.65-16.211-0.9-19.69-14.959-39.39-32.859-46.57zm-416 25.64c40.7 23.86 90.009 25.731 135.49 17.591 60.56-11.67 123.76-23.721 184.39-5.3312-19.13 2.31-41.72-0.62876-62.22 1.5312-60.48 4.24-119.01 27.869-180.26 21.859-28.15-4.38-57.92-13.81-77.4-35.65zm-64.2 51.48c-24.27 4.75-47.491 28.06-44.841 54.37 1.98 11.8 13.49 18.851 24.12 22.091 32.47 10 66.85 5.7088 100 2.1688 30.23 1.66 60.62 7.6112 88.7 19.131 30.07 16.44 63.919 23.98 97.809 27.08-10.47-11.77 11.66-31.071 20.77-17.661 8.01 4.34 5.3006 11.051 3.7406 18.131 48.26 1.36 97.139-5.9003 142.29-23.32 39.35-10.91 80.831-0.69062 120.56-8.4406 16.16-1.97 30.279-16.29 29.969-32.88-0.81-20.09-16.199-39.559-34.919-44.509 1.47 10.4-2.6903 22.159-12.92 26.489-19.45 8.07-39.42-1.0503-58.93-3.2703-26.32-2.14-53.021-1.2997-78.811 4.6703 1.76 16.35-20.59 22.37-25.68 5.5203-74.6 18.71-154.08 12.78-225.74-14.63-2.61 1.02-4.8094-0.66093-6.9594-1.9109-39.5-7.13-79.91 8.94-118.88-0.55-7.82 15.48-33.251-3.9491-18.261-16.089-1.69-5.29-1.7188-10.901-2.0188-16.391zm-12.811 39.5c66.17 25.31 140.17 0.37 207.07 22.95 34.82 12.67 68.04 34.061 106.7 31.011-30.87 11.39-67.241-0.38-97.641-12.05-60.37-21.26-126.4-5.7403-187.08-25.92-10.3-3.79-22.33-6.6806-29.05-15.991zm569.29 14.559c18.449-0.14173 11.354 30.972-5.5375 22.841-12.02-4.76-8.1694-23.729 4.6406-22.809 0.3058-0.0183 0.604-0.029 0.8969-0.0312zm-98.748 4.5406c13.871-0.01 28.405 1.3716 38.202 7.8203-44.25 6.55-88.36 14.16-131.77 25.1 19.3-20.48 48.31-29.371 75.57-32.391 5.525-0.23438 11.693-0.52524 17.998-0.52969zm158.81 44.187c-0.7726-0.0224-1.5481-0.0212-2.3234 0.003-2.11 5.51-5.1094 11.57-10.959 13.82 16.83 14.09-16.15 33.9-20.4 10.03-121.81 32.91-250.72 29.9-374.99 14.15-63.44-0.81-126.91 0.49938-190.35-0.64062-3.3-1.42-9.8088 1.5309-11.469-2.6391-2.83 11.42-21.4 10.05-24.2-1-23.18-2.68-57.99-5.0209-65.55-31.411-20.68 4.52-36.991 24.26-37.181 45.55 8.48-4.81 18.711-4.6403 28.141-5.1203 94.3-0.6 184.92 34.601 279.51 30.161 88.77 14.47 178.31-4.2406 264.74-23.791 53.39-8.6 105.68 11.38 158.92 12.47 17.05-0.4 42.17 4.8797 51.52-14.12 0.8428-23.948-21.457-46.769-45.408-47.463zm-440.63 50.753c53.687 0.15695 107.41 2.2525 160.42 10.2-90.33 10.84-184.21 10.59-274.07-7.3797 12.12-2.61 27.18-1.02 40.53-2.2 24.319-0.36249 48.716-0.69164 73.119-0.62031zm-204.41 27.647c-19.162-0.0319-38.325 1.3147-57.375 4.2922 4.3 18.48-25.57 22.331-28.18 5.1109-7.81-0.1-15.89 3.4597-23.57 0.92969-21.61 14.74-36.899 49.3-15.389 70.22 11.5 9.66 27.48 9.1591 41.55 11.389 1.58 0.09 4.7191 0.27031 6.2891 0.37031 22.99 1.15 45.98-2.12 68.22-7.8-6.27-18.47 23.38-24.57 24.37-5.35 33.62-5.74 67.97-8.7191 102.07-6.2391 0.98 0.65 1.6994 1.5488 2.1594 2.7188-2.78-19.36 30.85-18.45 26.82 0.85 55.93 5.98 110.18 22.24 165.65 31.17 4.77 0.64 9.4594 1.7903 14.159 2.8703 7.36 0.61 14.65 1.7794 21.95 2.9594 16.57 2.01 33.281 1.43 49.891 2.95 7.23-1.88 14.66-2.4691 22.1-2.9391 15.4-2.81 30.701-6.1703 45.891-10.02 23.5-5.75 46.93-12.519 70.88-16.109-6.35-4.75-4.8597-18.13 3.6203-19.02 8.85-4.38 21.169 5.7991 15.689 14.989 39.28-6.53 78.8-1.2097 118.03 2.1203 4.47-0.06 8.9212-0.16 13.431-0.3 19.27-2.67 43.88-4.7991 53.35-24.889 7.92-22.36-9.7809-46.86-28.911-56.62-6.86 27.56-43.71 29.089-66.13 25.639 1.7 21.57-35.889 15.531-27.059-5.6094-30.43-8.02-60.71-18.39-92.32-20.22-28.76 7.76-54.22 24.121-82.52 32.991-2.68-0.31-8.1294 4.1491-9.3094-0.36093-1.32 7.89-14.751 13.48-20.681 6.2203-39.66 4.15-79.679 2.0497-119.07-3.6203-41.99 6.48-85.721 5.6003-126.29-7.9797-54.36-18.113-111.83-30.617-169.32-30.713zm38.606 23.352c81.49-0.35545 157.68 37.603 238.02 48.141-63.67 5.29-127.58-16.27-190.38-27.65-60.63-11.93-124.77-0.85938-183.43 7.8906 37.73-16.18 78.57-24.73 119.42-27.78 5.4825-0.38375 10.938-0.57786 16.37-0.60156zm496.3 9.4547c47.587 0.14114 92.55 24.059 140.52 21.467 15.44-1.23 30.13-6.4212 45.1-9.9812-19.65 15.41-46.559 22.96-71.789 23.1-34.79-1.8-68.031-13.639-102.56-17.439-38.95-6.57-78.45 4.9103-112.43 23.52 21.33-23.17 52.44-36.29 83.5-39.55 5.9336-0.79296 11.817-1.1345 17.661-1.1172zm-221.4 24.56c0.7458 0.0112 1.5339 0.0911 2.3641 0.24531 13.2 1.16 14.051 24.13-0.2094 23.83-15.145 3.5742-17.319-24.302-2.1547-24.075z" fill="#643c23"/>
<path id="path20" d="m2772.5 203.77c-4.9622 0.0381-9.9372 0.29157-14.924 0.78282-22.49 1.95-44.97 8.3803-63.35 21.87-1.12 2.8 2.6088 0.70031 3.6188 0.52031 43.52-17.69 92.311-9.52 136.06 3.1 26.9 9.35 54.24 21.939 83.47 18.409 26.56-2.11 53.67-12.371 72.53-31.491-35.53 18.42-78.671 24.821-116.56 9.6812-32.06-12.871-66.11-23.14-100.85-22.873zm-140.5 95.18c19.48 21.84 49.25 31.27 77.4 35.65 61.25 6.01 119.78-17.619 180.26-21.859 20.5-2.16 43.09 0.77876 62.22-1.5312-60.63-18.39-123.83-6.3388-184.39 5.3312-45.48 8.14-94.789 6.2694-135.49-17.591zm-77.011 90.98c6.72 9.31 18.75 12.201 29.05 15.991 60.68 20.18 126.71 4.6603 187.08 25.92 30.4 11.67 66.771 23.44 97.641 12.05-38.66 3.05-71.88-18.341-106.7-31.011-66.9-22.58-140.9 2.36-207.07-22.95zm470.54 19.1c-6.3053 0.004-12.474 0.29531-17.998 0.52969-27.26 3.02-56.27 11.911-75.57 32.391 43.41-10.94 87.52-18.55 131.77-25.1-9.7969-6.4488-24.33-7.8301-38.202-7.8203zm-281.82 94.941c-24.403-0.0713-48.8 0.25782-73.119 0.62031-13.35 1.18-28.41-0.41-40.53 2.2 89.86 17.97 183.74 18.22 274.07 7.3797-53.013-7.9475-106.73-10.043-160.42-10.2zm-165.81 50.998c-5.4326 0.0237-10.888 0.21781-16.37 0.60156-40.85 3.05-81.69 11.6-119.42 27.78 58.66-8.75 122.8-19.821 183.43-7.8906 62.8 11.38 126.71 32.94 190.38 27.65-80.334-10.538-156.53-48.496-238.02-48.141zm496.3 9.4547c-5.844-0.0173-11.727 0.32422-17.661 1.1172-31.06 3.26-62.17 16.38-83.5 39.55 33.98-18.61 73.48-30.09 112.43-23.52 34.53 3.8 67.771 15.639 102.56 17.439 25.23-0.14 52.139-7.69 71.789-23.1-14.97 3.56-29.66 8.7512-45.1 9.9812-47.969 2.5917-92.932-21.326-140.52-21.467z" fill="#7a5a45"/>
<path id="path24" d="m2668.6 239.71c-17.02 1.67-25.779 19.69-29.759 34.55-1.5 13.92 12.359 23.901 25.239 22.781 31.72-1.83 62.781 5.9 94.311 7.55 39.09 2.64 78.19-2.74 116.1-12.05 47.93-8.12 94.539 10.83 142.17 10.53 15.3 0.55 36.841-11.801 31.311-29.761-8.01-13.36-21.08-22.24-35.13-28.53-6.74 19.62-29.01 25.77-47.42 28.32-6.76 6.67-17.99 10.661-24.62 1.0406-78.64-0.91-154.96-25.911-233.61-26.081-12.92 1.29-31.671 6.38-38.591-8.35zm17.8 19.69c17.44 1.18 17.82 28.461-0.1203 29.041-18.98 0.56-18.94-28.941 0.1203-29.041zm-75.23 51.82c-2.19 0.56-3.0109 6.1094-5.4609 2.2594-18.17 4.69-29.909 21.07-37.889 36.95 0.3 5.49 0.3288 11.101 2.0188 16.391 11.15-7.46 24.131 4.0191 18.261 16.089 38.97 9.49 79.38-6.58 118.88 0.55-17.62-3.68-7.9397-30.799 7.3703-26.859 15.51 3.18 14.849 25.81-0.4109 28.77 71.66 27.41 151.14 33.34 225.74 14.63-0.2-15.04 19.42-18.01 25.68-5.5203 25.79-5.97 52.491-6.8103 78.811-4.6703 19.51 2.22 39.48 11.34 58.93 3.2703 10.23-4.33 14.39-16.089 12.92-26.489-7.94-17.41-16.431-38.191-35.161-46.711-2.56 7.57-8.43 13.011-15.65 16.211 7.83 18.68-24.689 26.629-28.389 6.5391-41.81 7.31-81.37-19.189-123.55-10.559 4.42 18.92-26.011 25.619-28.431 5.8891-21.81 8.09-46.089 8.2706-67.819 14.241 4.05 18.21-26.81 17.89-23.87 1.8-52.31-3.48-109.32-4.1306-160.08-24.091-8.7-3.9-19.35-8.5591-21.9-18.689zm-88.2 93.58c-2.7 5.18-8.5906 2.8603-12.541 6.6203-15.21 9.42-23.429 27.979-26.319 44.109 7.56 26.39 42.37 28.731 65.55 31.411-7.41-11.44 9.3991-26.38 20.939-18.1 4.24 5.81 10.251 13.01 3.2609 19.1 1.66 4.17 8.1688 1.2191 11.469 2.6391 63.44 1.14 126.91-0.16938 190.35 0.64062 124.27 15.75 253.18 18.76 374.99-14.15-0.76-10.96 12.93-16.22 20.4-10.03 5.85-2.25 8.8494-8.3103 10.959-13.82 4.3-20.42-11.15-39.26-31.1-42.12 0.31 16.59-13.809 30.91-29.969 32.88-39.73 7.75-81.211-2.4694-120.56 8.4406-45.15 17.42-94.029 24.68-142.29 23.32-4.99 8.48-20.031 9.6397-24.511-0.47031-33.89-3.1-67.739-10.64-97.809-27.08-28.08-11.52-58.47-17.471-88.7-19.131-33.15 3.54-67.53 7.8312-100-2.1688-10.6-3.24-22.1-10.29-24.1-22.09zm505.2 55.653c16.577 0.43171 18.088 28.577-0.2313 28.597-17.93 1.95-20.2-28.02-1.4203-28.55 0.5659-0.0456 1.1168-0.0608 1.6516-0.0469zm-319.22 1.6906c1.0657-0.0287 2.2406 0.0956 3.5406 0.39687 8.8-1.94 18.17 11.949 11.35 19.269-3.32 15.44-26.371 7.34-27.141-5.25 2.6512-6.545 4.7897-14.215 12.25-14.416zm-229.46 33.814c-1.4717-0.008-2.9438-0.008-4.4172 0.002-9.43 0.48-19.661 0.31031-28.141 5.1203-7.29 12.17-22.26 24.26-16.75 40.87 7.68 2.53 15.76-1.0297 23.57-0.92969-3.09-18.01 25.53-24.001 28.18-5.1109 76.2-11.91 154.21 2.2703 226.69 26.42 40.57 13.58 84.301 14.46 126.29 7.9797 39.39 5.67 79.409 7.7703 119.07 3.6203-9.28-4.39-7.9897-22.019 2.4703-23.589 9.86-7.6 24.451 6.5488 18.211 17.369 1.18 4.51 6.6294 0.0509 9.3094 0.36093 28.3-8.87 53.76-25.231 82.52-32.991 31.61 1.83 61.89 12.2 92.32 20.22 4.42-14.34 30.619-10.601 27.059 5.6094 22.42 3.45 59.27 1.9209 66.13-25.639-4.48-13.12-10.969-25.641-22.239-34.591-9.35 19-34.47 13.72-51.52 14.12-53.24-1.09-105.53-21.07-158.92-12.47-86.43 19.55-175.97 38.261-264.74 23.791-93.112 4.3706-182.38-29.67-275.09-30.162zm258.9 46.3c0.6086-0.002 1.2487 0.0306 1.9218 0.1 8.61 1.24 14.139 12.25 8.1188 20.02-6.97 7.46-18.37 4.1103-22.35-4.5297 1.1062-7.8188 3.1803-15.567 12.309-15.591zm-106.7 61.411c-25.623 0.0609-51.249 2.8138-76.464 7.1188-0.62 13.19-17.46 15.82-24.37 5.35-22.24 5.68-45.23 8.95-68.22 7.8 5.4 4.45 15.321 3.0097 12.081 13.78l0.7 0.3c8.14-0.43 16.169 1.95 24.359 0.95 0.29-3.57-1.29-6.73-1.75-10.15 22.07 0.76 44.2-0.8 66.22 0.95 4.95 0.28 9.9 0.35 14.85 0.7 7.36 1.11 14.78 1.8806 22.08 3.3906 17.55 2.83 34.059 10.35 51.909 11.72 6.93 0.9 13.881 1.6897 20.831 2.4797 17.52 4.18 43.129-4.7794 55.089 4.9406 1.33 7.65 9.5206 11.29 16.591 11.25 2.56-1.32 5.0491-2.7809 7.4391-4.4109 1.53-3.39 1.68-7.0903 1.15-10.72 13.81-1.89 27.891-1.5994 41.761-3.2594 5.92-0.46 11.86-0.76938 17.78-1.3094 12.66-1.99 25.85-1.9209 38.2-5.2609-55.47-8.93-109.72-25.19-165.65-31.17 2.27 18.65-31.69 15.69-26.82-0.85-0.46-1.17-1.1794-2.0688-2.1594-2.7188-8.525-0.62-17.065-0.9-25.606-0.87968zm504.99 8.2031c-13.538 0.006-27.069 0.85063-40.572 3.0953-1.22 8.22-14.379 10.311-19.309 4.0312-23.95 3.59-47.38 10.359-70.88 16.109 3.4 0.53 6.8194 1.0697 10.259 1.6297 5.24 0.53 10.499 0.94 15.759 1.35 39.16 3.71 78.911 5.06 117.99-0.2 7.03-0.99 13.981-2.4597 20.841-4.3297 10.35-4.29 19.16-6.26 29.15-1.4 7.14-2.05 13.949-6.9503 14.219-15.07-25.745-2.1853-51.613-5.2278-77.458-5.2156z" fill="#f9eee8"/>
<path id="path100" d="m3227.6 616.78c-4.51 0.14-8.9612 0.24-13.431 0.3-0.27 8.12-7.0788 13.02-14.219 15.07-9.54 3.41-18.461 9.16-28.811 9.8-19.12 58.99-34.45 119.36-53.93 178.17 3.93 4.81 0.7803 11.62-4.5297 13.7-8.1 34.84-19.04 73.69-32.23 107.25 9.11 2.7 5.4 14.2-2.9 14.88-2.34 14.02-8.32 27.181-11.3 41.091 6.01-1.39 15.059 4.9391 8.6094 10.739-6.26 7.89-25.33-0.6103-13.98-8.7203 2.86-13.99 3.0294-31.83 11.559-43.2-9.9-1.45-6.75-14.31 2-14.78 2.76-12.29 6.7309-24.32 8.4609-36.83-4.28-1-10.11-2.27-10.8-7.5-0.38-7.72 9.8491-9.9794 15.889-9.2594 5.33-16.8 5.5797-39.48 15.33-52.52-11.26-2.57-7.2394-16.81 2.9906-17.63 0.9-17.32 9.0797-35.33 11.78-53.12-16.69-0.72-10.07-24.951 5.5203-20.511 6.1-22.83 10.31-46.399 17.87-68.709-13.514-4.0885-6.5984-22.254 5.1875-22.766-0.7161-0.82001-0.429-2.283 0.4219-4.1047-15.45 2.95-31.27 3.06-46.93 3-16.55 68.94-32.66 137.99-48.9 206.99-8.84 35.96-16.42 72.309-26.37 107.94 12.57 8.2-9.98 19.6-15.7 9.5703-4-6.32 4.6297-10.459 9.8297-10.889 7.06-36.36 12.8-73.08 21.05-109.15 7-42.34 15.771-84.421 23.761-126.59-6.29 2.87-15.58 2.8194-18.3-4.8906-2.9-11.93 12.6-17.139 21.42-12.259 3.59-20.17 8.4797-40.149 11.08-60.459-15.64-1.9-31.41-2.07-47.08-3.7-12.51 66.32-24 132.88-35.17 199.45 4.53-9.42 26.6-8.4813 21.73 4.9187-4.14 9.25-22.95 7.8903-21.88-4.0797-3.52 15.84-6.1806 31.861-8.5406 47.911-6.24 34.52-12.359 69.079-18.759 103.57-1.232 0.14216-3.5563 0.41256-4.9 0.56884 6.9971-0.45436 14.88 7.7228 6.5703 12.042-8.46 7.66-23.981-6.4303-10.261-10.82 1.0486-0.7039 2.2185-1.0749 3.4203-1.1922 2.09-17.789 4.95-35.528 6.15-53.408-6.7 2.35-20.541 2.7397-17.841-7.8703 3.77-6.52 14.251-6.21 19.791-1.85 1.17-14.5 3.9006-28.82 5.6406-43.25 8.13-64.45 17.29-128.76 25.05-193.25-6.76 1.48-15.63 0.90969-17.67-7.1703-2.22-11.7 11.659-16.239 20.609-12.569 1.14-11.9 3.4703-23.661 4.0203-35.611-16.96 1.2-32.86 8.5797-49.82 9.8297-9.57 71.72-16.53 143.84-25.43 215.67 6.64-4.62 20.97-2.6703 19.03 7.8297-2.81 8.76-15.36 8.1703-21.15 2.7203 0.49 13.98-2.8094 27.71-3.5594 41.63-5.28 45.07-9.8309 90.371-17.211 135.09-0.37-24.78 2.3512-56.079 4.3312-83.009-4.85 6.25-17.671 6.039-20.041-1.961 1.24-9.5 14.529-9.7694 20.259-3.9594 1.12-15.36 1.8806-30.75 3.4906-46.07 5.75-88.28 12.82-176.48 18.12-264.78-16.32-1.16-32.72-0.97093-48.93-3.4109-5.12 71.86-7.48 144.03-12.2 215.97 13.74 1.16 10.139 21.061-3.6906 16.511 1 0.46 2 0.94872 3 1.4687-1.8 51.84-6.4403 103.57-8.9703 155.35-4.99-0.12-0.5297-8.3497-2.1797-11.08 0.23-49.95-0.2203-99.899 0.2297-149.84 0.08-2.59 0.3406-5.171 0.5406-7.711-0.36-74.79 1.3894-149.65 1.3594-224.47-16.84-2.15-33.529 2.5812-50.259 4.0812 1.8 81.47 2.1403 162.95 2.2203 244.46 1.57 52.35 1.7894 105.42-0.1906 157.84-4.38-39.71-5.93-80.43-8-120.57-4.87-93.57-10.029-187.16-14.909-280.74-13.84 2.69-28.111 0.98-41.881 3.9-2.39 1.63-4.8791 3.0909-7.4391 4.4109 2.01 15.03 2.2791 30.22 3.7391 45.3 6.41 0.2 16.171 1.6688 16.641 9.7188 2.3 9.14-8.7594 13.51-15.809 10.82 3.62 47.8 8.1491 95.971 9.7391 143.79 6.94-3.88 19.841-0.18 17.861 9.45-2.78 6.15-10.431 4.4394-15.811 4.2594-1.42 13.99 5.1809 29.931-0.1891 42.591 8.96 0.46 14.299 12.409 3.8094 15.139 0.75 13.18 3.3297 26.531 2.3297 39.681 5.93-3.3 15.36-2.6003 18.13 4.2797-0.01 8.58-10.989 8.2694-17.039 5.9094 1.49 21.05 3.9603 45.27 3.1203 64.8-6.61-37.88-12.381-77.37-13.731-115.22-7.15-1.09-10.559-10.739-2.4094-14.039-11.65-90.2-20.93-180.72-31.73-271.04-16.4-0.12-32.821-0.42969-49.161-1.7797 3.27 28.34 8.7512 56.56 10.031 85.05 3.69 3.68 5.27 9.2094 2.15 13.859 7.28 41.93 11.86 84.631 16.95 126.98 7.28 52.19 16.309 105.85 18.539 157.87-8.56-37.57-14.57-75.64-21.92-113.45-6.72 1.26-17.979-1.55-15.359-10.4 3.39-3.75 8.7406-3.63 13.341-2.95-1.98-9.3-3.3512-18.729-4.7812-28.119-0.93-5.01-1.86-10.041-2-15.141-6.35 0.97-16.77 0.99032-17.9-6.9797-2.16-8.5 7.8406-10.181 13.791-8.9406-3.33-32.45-13.36-64.329-14.75-96.789-7.72-2.49-11.49-13.35-3.0703-17.87-6.53-13.55-6.0797-31.281-9.8297-46.441-5.97 13.15-30.28 4.9006-24.8-9.5594 4.19-9.08 16.88-6.0703 22.82-0.17031-1.62-9.74-3.19-19.479-5.1-29.159-17.62-0.57-33.01-10.031-50.3-11.561 15.5 83.59 32.15 166.96 47.4 250.59 10.38 48.68 18.67 97.799 27.33 146.81-0.1 1.44 1.6706 5.6606-1.1094 3.7906-12.63-50.33-25.371-100.67-36.611-151.34-17.63-75.71-36.53-151.18-52.98-227.12-3.91 15.81-31.3 6.2003-25.45-8.8297 4-9.06 16.859-5.72 22.659-0.15-1.71-5.85-2.8494-11.87-4.3094-17.77-15.53-1.45-31.1-2.8594-46.72-1.9594 20.1 83.72 41.881 167.05 62.011 250.78 12.68 49.8 26.619 99.77 35.339 150.37-16.33-51.14-32.06-102.5-46.63-154.17-25.47-85.04-50.13-170.33-75.62-255.35 7.52 0.02 15.041 0.17969 22.561 0.0797 11.16 0.19 22.32 0.19 33.48-0.1-22.02-1.75-44.15-0.19-66.22-0.95 0.46 3.42 2.04 6.58 1.75 10.15-1.72 11.51-20.039 7.48-24.359-0.95l-0.7-0.3c-4.66-0.14-14.89-9.56-14.77-2 31.01 98.28 60.099 198.36 93.259 295.22 11.01-2.24 18.51 15.36 4.1297 15.03 2.95 10.36 5.7006 21.091 9.8406 30.941 8.51-0.49 15.98 13.32 4.0797 14.07 4.09 13.06 7.55 26.6 12.7 39.18 7.88-0.71 12.911 11.141 3.3109 11.891 3.74 12.16 6.8888 25.559 11.869 36.869 6.96-0.35 11.241 9.1112 2.9906 11.131 6.7 13.86 3.1297 36.69 21.88 41 40.8 12.6 84.061 14.299 126.39 16.569 88.3 3.75 177.01 3.1812 264.97-7.1188 18.52-4.26 40.12-3.9906 55.2-16.991 15.25-47.59 30.31-95.37 44.2-143.35-5.55-3.27-2.3009-11.07 3.3391-12.02 4.61-10.52 6.74-22.27 10.65-33.15-10.47-0.99-4.5503-14.74 3.9797-14.17 5.71-15.82 10.731-33.09 15.341-49.45-5.78-4.98-2.4897-14.23 4.7203-15.5 6.53-18.11 12.18-36.969 17.22-55.659-15.03-1.84-7.48-22.83 5.75-19.2 7.19-18.78 12.75-40.15 19.1-59.98-5.43 1.74-13.161 1.2703-15.431-4.8797-3.39-11.22 12.191-19.301 20.691-13.241 11.09-26.92 20.101-57.25 27.441-86.12zm-264.4 383.32c-0.0001 0.0005 0.0001 0 0 0 0.067-0.01 0.194-0.023 0.2672-0.031-0.09 0.01-0.1778 0.021-0.2672 0.03zm183.51-347.82c0.5968 0.68342 1.8878 0.92232 4.1516 0.53593-1.4323-0.43819-2.8211-0.59366-4.1516-0.53593zm-306.82 7.3938c7.4964-0.083 14.766 5.6272 13.078 13.972-2.27 10.78-18.26 11.14-23.73 2.9203-3.48-5.97-0.2012-14.51 6.5188-16.23 1.3484-0.4328 2.7446-0.64712 4.1328-0.66249zm67.628 39.369c6.8109-0.16297 14.274 4.9941 12.48 12.633-2.31 10.72-19.75 11.981-24.03 2.1109-2.73-5.99 2.4-13.601 8.7-14.341 0.9175-0.24875 1.877-0.37984 2.85-0.40313zm-399.81 12.559c9.4839-0.0659 20.537 10.455 12.741 18.794-10.8 9.84-32.59-10.65-16.65-18.08 1.2312-0.47875 2.5545-0.70465 3.9094-0.71406zm82.973 28.169c9.1804 0.175 18.402 10.976 10.597 18.684-11.85 9.61-31.08-12.769-14.48-18.069 1.26-0.44875 2.5713-0.64062 3.8828-0.61562zm258.69 6.3812c6.5311 0.00082 13.385 5.3047 11.627 12.523-2.37 10.73-21.85 9.7206-23.67-1.0594-1.2-5.66 3.8206-10.74 9.2906-11.13 0.8938-0.22624 1.8201-0.33448 2.7531-0.33437zm114.85 3.6062c6.2941-0.16532 12.942 4.945 11.483 11.678-3 9.53-18.23 11.81-23.1 2.5297-2.81-6.11 2.3109-12.41 8.2109-13.55 1.0875-0.41562 2.2407-0.6272 3.4063-0.65781zm60.8 29.406c5.8403-0.1523 12.49 3.8119 10.933 10.541-1.99 11.33-25.02 11.831-22.9-1.5188 0.27-4.84 5.0506-8.16 9.5406-8.7 0.775-0.19375 1.5922-0.30012 2.4266-0.32187zm-495.79 11.686c8.1725 0.071 17.318 7.7291 12.75 15.945-9.86 10.9-32.67-8.8406-16.15-15.491 1.085-0.32 2.2325-0.46483 3.4-0.45469zm248.4 1.4828c6.6252-0.11111 14.138 5.7484 11.859 12.883-4.15 10.2-23.9 6.9203-22.45-5.0297 0-4.93 5.0197-7.34 9.2797-7.75 0.4306-0.0619 0.8692-0.0957 1.3109-0.10312zm129.35 2.9688c5.8769 0.16188 12.299 4.6722 10.75 11.173-2.73 8.86-17.32 10.451-21.87 2.461-3.32-6.33 2.4394-12.911 8.6594-13.431 0.7925-0.16125 1.6214-0.22625 2.4609-0.20313zm-190.32 11.233c9.1608-0.004 17.262 13.86 6.0625 17.702-11.24 6.57-25.88-13.811-10-16.781 1.2987-0.63624 2.6288-0.91968 3.9375-0.92032zm-109.67 11.236c7.8348 0.17552 16.493 6.4538 11.861 14.925-9.25 11.2-31.969-7.4103-16.039-14.37 1.3047-0.41096 2.7273-0.5872 4.1781-0.55472zm224.39 14.803c5.5244 0.14872 11.295 3.3718 11.539 9.3812-2.17 11.19-21.45 10.21-22.73-1 0.16-4.97 5.4906-8.2087 10.091-8.3687 0.3644-0.0175 0.7317-0.0224 1.1-0.0125zm-282.69 29.178c7.397 0.22656 16.361 7.0559 11.172 14.084-8.28 10.46-30.96-7.6106-15.02-13.491 1.1625-0.4516 2.4786-0.63568 3.8484-0.59376zm72.967 25.573c7.0778 0.0677 15.834 5.9444 11.284 13.53-9.58 11.04-31.049-9.2394-13.409-13.359 0.6797-0.12184 1.3928-0.17728 2.125-0.17032zm386.01 7.95c4.53 0 10.171 2.5997 10.361 7.7797-1.18 10.4-19.331 12.061-21.911 1.7906-0.42-5.95 6.27-9.6703 11.55-9.5703zm-165.94 25.941c4.7084 0.16248 9.94 2.6678 10.241 7.689-2.22 9.24-16.49 9.2113-20.75 1.5813-1.56-5.19 2.83-8.721 7.4-9.011 0.9637-0.21 2.0228-0.29688 3.1094-0.25936zm-219.09 14.092c7.6307-0.18528 17.321 7.8728 9.4063 13.788-8.14 7.42-26.209-6.9103-13.309-12.77 1.1469-0.6656 2.49-0.98288 3.9031-1.0172zm75.711 39.327c6.9244 0.22976 15.382 7.8606 7.3156 12.231-8.25 6.71-24.589-7.4697-10.889-11.53 1.0625-0.5328 2.2912-0.74416 3.5735-0.7016zm143.93 18.82c6.7707-0.17216 15.162 6.5597 7.6359 11.681-8.46 8.76-25.27-6.6203-11.12-10.82 1.0312-0.55936 2.2305-0.82904 3.4844-0.86096zm-206.63 0.31408c6.1979-0.0389 13.73 3.2725 10.838 10.406-6.29 9.63-28.43-3.58-14.77-9.85 1.1437-0.36 2.5025-0.54728 3.9328-0.55624zm265.51 27.711c4.8644 0.021 11.083 3.0187 8.8984 9.075-4.81 5.2-15.02 5.3103-18.88-1.0297-1.16-4.99 4.9697-7.6394 9.0297-8.0094 0.3094-0.025 0.6273-0.037 0.9516-0.036zm-112.77 5.9515c6.8912 0.061 14.587 8.53 6.2422 12.344-8.16 6.12-22.831-7.4297-9.8812-11.43 1.114-0.6484 2.3629-0.9254 3.639-0.9141zm224.45 0.056c7.1894 0.3278 12.88 10.198 2.0969 12.628-9.55 5.47-18.96-9.8303-6.15-11.72 1.3391-0.7016 2.7218-0.9686 4.0531-0.9078zm-304.43 7.6812c7.2214-0.3198 16.196 8.1425 6.5187 11.956-6.62 5.22-21.84-6.8391-10.22-10.789 1.0875-0.7468 2.3643-1.108 3.7016-1.1672zm-61.336 10.825c5.7916-0.2001 13.238 3.5729 10.394 10.302-7.1 8.3-27.479-5.0703-12.739-9.9703 0.725-0.1938 1.518-0.3027 2.3453-0.3313zm415.67 2.3298c3.3592 0.1113 7.0684 1.8236 8.2953 4.8624-1 8.37-14.75 10.479-18.82 3.3594-1.25-4.7 4.4606-7.4706 8.2906-8.0406 0.7031-0.1481 1.4592-0.207 2.2344-0.1812zm-212.76 1.3c6.2661 0.018 13.289 7.4462 5.6953 11.252-8.91 7.76-23.61-8.0897-9-10.43 1.011-0.575 2.1443-0.8252 3.3047-0.8218zm87.388 14.414c4.1019-0.1055 8.7844 1.8872 9.6375 5.9984-1.82 7.47-12.8 7.9894-17.9 3.7594-3.75-4 1.2103-9.33 5.5703-9.35 0.8306-0.2475 1.7456-0.3834 2.6922-0.4078zm50.681 6.1016c3.631-0.1242 7.5334 1.4162 8.7359 5.0562-0.59 8.3-15.171 9.5494-18.541 2.4594-0.98-4.34 3.6903-6.8588 7.3703-7.1688 0.7725-0.2006 1.5964-0.3182 2.4344-0.3468zm-194.04 8.1796c5.4915-0.136 13.233 7.1938 5.6766 10.536-10.35 7.61-23.38-11.25-6.2-10.5 0.1719-0.02 0.3463-0.032 0.5234-0.036zm-57.767 4.3766c6.5843-0.1732 12.769 8.3784 4.6141 11.38-9.13 5.79-20.56-9.0997-7.4203-10.73 0.9162-0.4225 1.8656-0.6253 2.8062-0.65zm149.9 2.7016c6.4043-0.075 12.912 8.709 4.3985 11.308-8.61 6.2-21.59-7.9694-7.85-10.259 1.0828-0.7172 2.2656-1.0345 3.4515-1.0484zm-227.51 8.4031c5.8445 0 13.516 5.7791 7.3906 10.386-7.25 6.2-23.79-6.17-10.35-9.75 0.8578-0.439 1.8771-0.6367 2.9594-0.6359zm385.45 1.2735c3.8835-0.024 8.5631 2.3252 7.8156 6.5421-3.64 5.67-14.01 6.9894-17.77 0.9594-1.39-4.49 3.9803-6.57 7.4703-7.1 0.735-0.2644 1.5882-0.3961 2.4844-0.4015zm-217.27 16.911c5.6862-0.1232 13.232 6.4316 5.8562 9.8704-9.01 6.87-21.801-8.1097-8.1312-9.3797 0.6875-0.3187 1.4626-0.4731 2.275-0.4907zm157.08 1.6063c5.9729-0.1913 12.929 5.985 5.6985 10.195-8.24 6.97-22.019-6.2112-8.8188-9.3812 0.9422-0.525 2.0143-0.7787 3.1203-0.8141zm-65.32 6.5219c6.2213-0.1425 13.842 6.0906 6.3594 10.112-7.07 6.63-21.781-4.8991-10.241-8.8891 1.0837-0.8175 2.4455-1.1905 3.8812-1.2234zm-209.88 5.5781c5.914-0.085 14.183 5.4257 7.6859 9.8047-6.38 6.41-23.19-5.0706-10.62-9.1406 0.825-0.4422 1.8392-0.6484 2.9344-0.6641zm160.24 5.5781c5.791 0.1545 12.845 4.9235 6.4547 9.236-5.81 6.53-22.33-3.9588-10.7-8.1688 1.1003-0.7919 2.6238-1.1104 4.2453-1.0672zm-102.26 1.2641c5.8191-0.1718 13.547 5.9872 6.2313 9.6828-6.83 5.91-21.039-5.3197-9.1594-8.8797 0.8391-0.5219 1.8505-0.7712 2.9281-0.8031z" fill="#ff4b28"/>
<path id="path102" d="m2456.4 623.56c1.15 3.97 1.93 9.47 3.6 12.15-0.12-7.56 10.11 1.86 14.77 2 3.24-10.77-6.6812-9.3297-12.081-13.78-1.57-0.1-4.7091-0.28031-6.2891-0.37031zm730.91 5.7562c-5.3314 0.14232-10.666 1.8212-16.488 4.2344 3.77 1.38 0.3691 5.58 0.3391 8.4 10.35-0.64 19.271-6.39 28.811-9.8-4.3706-2.1262-8.5158-2.9451-12.662-2.8344zm-623.01 0.44376c-11.16 0.29-22.32 0.29-33.48 0.1 0.71 2.78 1.4791 5.5406 2.3391 8.2906 15.62-0.9 31.19 0.50938 46.72 1.9594-0.37-3.16-2.5697-6.65-0.7297-9.65-4.95-0.35-9.9-0.42-14.85-0.7zm36.9 4.09c0.34 3.45 1.0003 6.8697 1.7203 10.28 17.29 1.53 32.68 10.991 50.3 11.561-0.59-3.34-0.4709-6.7803-0.1109-10.12-17.85-1.37-34.359-8.8903-51.909-11.72zm404.74 1.25c-15.19 3.85-30.491 7.2103-45.891 10.02-0.55 3.25-0.7803 6.4791-0.9703 9.7891 16.96-1.25 32.86-8.6297 49.82-9.8297 0.9906-3.3679 0.6976-8.4555 4.3828-8.8141-2.4537-0.3932-4.909-0.78632-7.3422-1.1656zm7.3422 1.1656c0.975 0.15624 1.939 0.30483 2.9172 0.46407-1.1851-0.40841-2.138-0.53989-2.9172-0.46407zm136.67 1.6141c-17.165 2.3103-34.459 3.344-51.775 3.4641 3.3944 1.7104 4.9739 4.9716 1.975 9.7859 15.66 0.06 31.48-0.05 46.93-3 1.01-3.4 1.8203-6.86 2.8703-10.25zm-51.775 3.4641c-3.6411-1.8348-9.3646-1.8729-13.827-0.0937 4.6091 0.0909 9.2187 0.1257 13.827 0.0937zm-13.827-0.0937c-17.506-0.34505-35.006-1.5234-52.389-3.1703-0.26 3.21-0.6088 6.4109-1.0188 9.6109 15.67 1.63 31.44 1.8 47.08 3.7-1.0579-5.0675 2.0501-8.4348 6.3281-10.141zm-232.3-1.97c-12.35 3.34-25.54 3.2709-38.2 5.2609 4.17 1.38 1.1203 7.46 2.0703 10.4 16.73-1.5 33.419-6.2312 50.259-4.0812 0.04-2.9-0.01-5.8594 0.03-8.7094-4.7-1.08-9.3894-2.2303-14.159-2.8703zm36.109 5.8297c-0.03 3.13 0.061 6.38-0.069 9.55 16.21 2.44 32.61 2.2509 48.93 3.4109 0.36-3.34 0.7597-6.6709 1.0297-10.011-16.61-1.52-33.321-0.94-49.891-2.95zm-92.089 0.74062c-13.87 1.66-27.951 1.3694-41.761 3.2594 0.53 3.63 0.38 7.3303-1.15 10.72 13.77-2.92 28.041-1.21 41.881-3.9-0.15-3.44-0.2503-6.8597 1.0297-10.08zm-122.03 2.2c0.35 3.24 0.6988 6.58 1.1688 9.85 16.34 1.35 32.761 1.6597 49.161 1.7797-2.0069-3.4794-1.5597-7.9389 0.089-9.3531-13.112-5.1514-34.925 1.42-50.419-2.2766zm50.419 2.2766c1.7146 0.67365 3.2872 1.54 4.6703 2.6641-1.8525-3.1728-3.5422-3.6317-4.6703-2.6641z" fill="#f23e25"/>
<path id="path118" d="m2477 637.96c-0.5079 0.006-1.0162 0.0216-1.525 0.0484 4.32 8.43 22.639 12.46 24.359 0.95-7.6781 0.93749-15.215-1.0949-22.834-0.99844zm669.99 14.252c-11.97 0.20871-19.118 18.664-5.4875 22.788 14.38 5.52 25.929-19.9 9.3391-22.23-1.3238-0.405-2.6134-0.5794-3.8516-0.55781zm-576.45 0.19532c-3.8086 0.0685-7.2547 1.6581-9.0047 5.6219-5.85 15.03 21.54 24.64 25.45 8.8297-0.36-3.14-1.5306-6.1097-2.7906-8.9797-3.2625-3.1331-8.758-5.56-13.655-5.4719zm269.34 7.2203c-1.3882 0.0154-2.7844 0.22969-4.1328 0.66249-6.72 1.72-9.9988 10.26-6.5188 16.23 5.47 8.22 21.46 7.8597 23.73-2.9203 1.6875-8.3447-5.5817-14.055-13.078-13.972zm-194.42 19.645c-4.1287-0.10917-7.9609 1.4906-9.925 5.7469-5.48 14.46 18.83 22.709 24.8 9.5594-0.27-3.35-0.8197-6.5997-1.9797-9.7297-3.1556-3.1344-8.2161-5.4528-12.895-5.5766zm353.09 0.175c-7.8911-0.10029-15.983 4.6703-14.248 13.811 2.04 8.08 10.91 8.6503 17.67 7.1703 7.73-3.53 9.5391-14.189 2.9391-19.739-1.9578-0.8028-4.1515-1.2141-6.3609-1.2422zm-91.048 19.548c-0.973 0.0233-1.9325 0.15438-2.85 0.40313-6.3 0.74-11.43 8.3506-8.7 14.341 4.28 9.87 21.72 8.6091 24.03-2.1109 1.7938-7.6388-5.6688-12.796-12.48-12.633zm285.38 1.8375c-7.8089 0.24187-15.938 6.8912-13.395 15.306 2.27 6.15 10.001 6.6197 15.431 4.8797 2-5.96 4.1094-11.93 5.2594-18.12-2.125-1.515-4.6923-2.1462-7.2953-2.0656zm-443.5 8.7062c-10 3.08-9.4788 17.939 0.8312 20.539 7.05 2.69 18.109-1.6803 15.809-10.82-0.47-8.05-10.231-9.5188-16.641-9.7188zm310.1 0.48907c-7.9444-0.0342-16.119 5.1322-13.944 14.08 2.72 7.71 12.01 7.7606 18.3 4.8906 6.48-3.42 7.7303-11.71 3.1203-17.15-2.205-1.22-4.8284-1.8089-7.4765-1.8203zm-551.8 1.5266c-1.3549 0.009-2.6782 0.23531-3.9094 0.71406-15.94 7.43 5.85 27.92 16.65 18.08 7.7962-8.3388-3.2567-18.86-12.741-18.794zm82.973 28.169c-1.3115-0.025-2.6228 0.16687-3.8828 0.61562-16.6 5.3 2.6297 27.679 14.48 18.069 7.805-7.7088-1.4165-18.509-10.597-18.684zm85.292 0.66562c-1.9332-0.0324-3.8866 0.19469-5.7953 0.62969-8.42 4.52-4.6497 15.38 3.0703 17.87 4.78 1.26 10.171 1.3688 14.091-2.0812 3.12-4.65 1.54-10.179-2.15-13.859-2.825-1.7312-5.9936-2.5054-9.2156-2.5594zm443.54 2.7828c-12.49 0.43229-16.51 20.394-1.3844 21.047 11.86 0.44 20.23-17.711 5.5203-20.511-1.4616-0.41625-2.8439-0.58066-4.1359-0.53594zm-270.14 2.9328c-0.933-0.00011-1.8593 0.10813-2.7531 0.33437-5.47 0.39-10.491 5.4697-9.2906 11.13 1.82 10.78 21.3 11.789 23.67 1.0594 1.7588-7.2188-5.0955-12.523-11.627-12.523zm114.85 3.6062c-1.1656 0.0306-2.3188 0.24219-3.4063 0.65781-5.9 1.14-11.021 7.44-8.2109 13.55 4.87 9.28 20.1 7.0003 23.1-2.5297 1.4597-6.7331-5.1887-11.843-11.483-11.678zm60.8 29.406c-0.8344 0.0217-1.6516 0.12812-2.4266 0.32187-4.49 0.54-9.2706 3.86-9.5406 8.7-2.12 13.35 20.91 12.849 22.9 1.5188 1.5575-6.7288-5.0925-10.693-10.933-10.541zm147.26 1.4734c-10.89 0.54516-15.813 17.94-2.1922 19.608 3.03-5.77 4.71-12.73 5.75-19.2-1.2403-0.34031-2.4312-0.46421-3.5578-0.40782zm-643.04 10.213c-1.1675-0.0101-2.315 0.13469-3.4 0.45469-16.52 6.65 6.29 26.391 16.15 15.491 4.5675-8.2162-4.5775-15.874-12.75-15.945zm248.4 1.4828c-0.4417 0.007-0.8803 0.0412-1.3109 0.10312-4.26 0.41-9.2797 2.82-9.2797 7.75-1.45 11.95 18.3 15.23 22.45 5.0297 2.2781-7.1344-5.2342-12.994-11.859-12.883zm129.35 2.9688c-0.8395-0.0231-1.6684 0.0419-2.4609 0.20313-6.22 0.52-11.979 7.1013-8.6594 13.431 4.55 7.99 19.14 6.399 21.87-2.461 1.5488-6.5012-4.8731-11.012-10.75-11.173zm-190.32 11.233c-1.3087 0.00064-2.6388 0.28408-3.9375 0.92032-15.88 2.97-1.24 23.351 10 16.781 11.2-3.8413 3.0983-17.706-6.0625-17.702zm391.14 10.752c-0.4846 0.0138-0.9697 0.0475-1.4547 0.1-10.23 0.82-14.251 15.06-2.9906 17.63 3.1-0.37 6.2509-0.66 9.3609-1.15 5.31-2.08 8.4597-8.89 4.5297-13.7-2.7125-2.1087-6.0533-2.9769-9.4453-2.8797zm-500.81 0.48432c-1.4508-0.0325-2.8734 0.14376-4.1781 0.55472-15.93 6.96 6.7891 25.57 16.039 14.37 4.6322-8.4713-4.0262-14.75-11.861-14.925zm224.39 14.803c-0.3683-0.01-0.7356-0.005-1.1 0.0125-4.6 0.16-9.9306 3.3987-10.091 8.3687 1.28 11.21 20.56 12.19 22.73 1-0.2438-6.0094-6.0147-9.2325-11.539-9.3812zm176.72 8.3734c-4.9716-0.0206-10.31 2.1178-12.292 6.239l-0.15 0.83904c-1.07 11.97 17.74 13.33 21.88 4.0797 2.7394-7.5375-3.0454-11.131-9.4375-11.158zm-323.78 14.414c-5.6053-0.006-11.878 2.3985-10.123 9.3047 1.13 7.97 11.55 7.9497 17.9 6.9797 7.1-4.6 2.8706-14.04-4.1094-15.92-1.1156-0.23248-2.3736-0.36256-3.6672-0.36408zm468.54 0.54376c-7.21 1.27-10.5 10.52-4.7203 15.5 2.27-4.9 3.8403-10.17 4.7203-15.5zm-604.17 5.8469c-1.3698-0.0419-2.6859 0.14216-3.8484 0.59376-15.94 5.88 6.7403 23.951 15.02 13.491 5.1891-7.0285-3.7749-13.858-11.172-14.084zm393.6 6.5187c-3.1266-0.045-6.3175 0.76664-8.6 2.3547-2.56 3.01-2.5403 6.8-2.1203 10.55 5.79 5.45 18.34 6.0397 21.15-2.7203 1.2731-6.8906-4.4607-10.098-10.43-10.184zm-66.459 2.4047c-4 0.69-7.9703 1.97-11.07 4.7-0.2 2.54-0.4606 5.121-0.5406 7.711 2.57 1.47 5.1903 2.89 7.9203 4.1 13.83 4.55 17.431-15.351 3.6906-16.511zm-109.86 1.7266c-2.1544 0.0483-4.2619 0.54408-5.9969 1.5141-6.06 3.45-2.94 10.999 2.05 13.709 5.38 0.18 13.031 1.8906 15.811-4.2594 1.485-7.2225-5.4009-11.109-11.864-10.964zm-144.31 14.923c-0.7322-0.007-1.4453 0.0485-2.125 0.17032-17.64 4.12 3.8294 24.399 13.409 13.359 4.5494-7.5853-4.2066-13.462-11.284-13.53zm463.93 0.0844c-5.9992 0.0558-13.789 2.6309-13.456 9.3859 0.69 5.23 6.52 6.5 10.8 7.5 9.02-1.19 16.509-11.899 5.0891-16.759-0.755-0.09-1.5758-0.13456-2.4328-0.12656zm-77.917 7.8656c-5.28-0.1-11.97 3.6203-11.55 9.5703 2.58 10.27 20.731 8.6094 21.911-1.7906-0.19-5.18-5.8309-7.7797-10.361-7.7797zm-314.14 19.277c-2.9884 0.1284-5.8734 0.95936-7.9922 3.3031-2.62 8.85 8.6394 11.66 15.359 10.4 6.55-3.07 4.6212-11.86-2.0188-13.35-1.725-0.25496-3.5554-0.43016-5.3484-0.35312zm438.48 6.2922c-8.0924 0.28928-13.332 13.222-3.1891 14.181 1.37-4.71 3.1597-9.3303 3.9797-14.17-0.2666-0.0178-0.5296-0.0202-0.7906-0.011zm-290.28 0.37192c-1.0866-0.0375-2.1457 0.0494-3.1094 0.25936-4.57 0.29-8.96 3.821-7.4 9.011 4.26 7.63 18.53 7.6587 20.75-1.5813-0.3006-5.0212-5.5322-7.5266-10.241-7.689zm-79.898 9c-1.93 0.15-3.8606 0.34-5.7906 0.55-8.15 3.3-4.7406 12.949 2.4094 14.039 2.38 0.17 4.7806 0.35 7.1906 0.55 10.49-2.73 5.1506-14.679-3.8094-15.139zm-206.54 0.56248c-0.6562-0.006-1.3306 0.0569-2.0187 0.19688 0.23 5.2 2.0097 10.29 4.1297 15.03 13.481 0.30936 7.7323-15.14-2.111-15.227zm406.87 3.0328c-4.2934-0.15984-8.5372 1.3466-10.658 5.0141-2.7 10.61 11.141 10.22 17.841 7.8703 2.14-2.89 3.3-6.2203 1.95-9.7203-2.4238-1.9075-5.7935-3.0398-9.1328-3.1641zm-339.51 1.4969c-1.4131 0.0343-2.7562 0.3516-3.9031 1.0172-12.9 5.86 5.1694 20.19 13.309 12.77 7.9144-5.9147-1.7756-13.973-9.4063-13.788zm457.84 5.8078c-1.5 0-4.5109 0.009-6.0109 0.009-8.75 0.47-11.9 13.33-2 14.78 1.69 0.03 3.3909 0.0606 5.1109 0.0906 8.3-0.68 12.01-12.18 2.9-14.88zm-61.431 23.67c-5.2 0.43-13.83 4.569-9.8297 10.889 5.72 10.03 28.27-1.3703 15.7-9.5703-1.96-0.46-3.9203-0.91872-5.8703-1.3187zm-114.1 0.31c-4.8327 0.0635-9.3431 2.4859-10.041 7.8297 2.37 8 15.191 8.211 20.041 1.961 0.35-1.96 0.3288-3.9503 0.2188-5.9203-2.5069-2.5419-6.46-3.9198-10.219-3.8703zm213.04 3.0797c-5.64 0.95-8.8891 8.7503-3.3391 12.02 1.38-3.92 2.9491-7.8603 3.3391-12.02zm-419.82 6.4594c-1.2823-0.0426-2.511 0.1688-3.5735 0.7016-13.7 4.06 2.6391 18.24 10.889 11.53 8.0662-4.3706-0.3912-12.002-7.3156-12.231zm-130.32 2.3062c-0.2634-0.0118-0.5279-0.0106-0.7938 0.005 0.85 4.79 2.0997 9.5903 4.0797 14.07 11.528-0.72656 4.8778-13.71-3.2859-14.075zm207.55 6.1844c-2.6724-0.002-5.3888 0.67344-7.6125 1.911-2.66 3.14-1.8494 7.539 1.0906 10.189 6.05 2.36 17.029 2.6706 17.039-5.9094-1.7313-4.3-6.0633-6.1866-10.517-6.1906zm66.702 10.33c-1.2539 0.0319-2.4532 0.3016-3.4844 0.86096-14.15 4.2 2.6603 19.58 11.12 10.82 7.5262-5.1216-0.8652-11.853-7.6359-11.681zm-206.63 0.31408c-1.4303 0.009-2.7891 0.19624-3.9328 0.55624-13.66 6.27 8.4803 19.48 14.77 9.85 2.8925-7.1338-4.6396-10.445-10.838-10.406zm432.38 3.1218c-0.6016 0.001-1.1912 0.065-1.7547 0.19536-1.8 0.67-3.5803 1.3487-5.3703 2.0187-11.35 8.11 7.7197 16.61 13.98 8.7203 5.8453-5.2563-1.0392-10.948-6.8547-10.934zm-103.8 3.1672c-1.5644-0.0368-3.1168 0.33-4.4687 1.2375-13.72 4.39 1.8009 18.48 10.261 10.82 8.0032-4.16 0.9873-11.898-5.7922-12.058zm-63.076 21.422c-0.3243 0-0.6422 0.011-0.9516 0.036-4.06 0.37-10.19 3.0194-9.0297 8.0094 3.86 6.34 14.07 6.2297 18.88 1.0297 2.1844-6.0563-4.034-9.0536-8.8984-9.075zm-112.77 5.9515c-1.2761-0.011-2.525 0.2657-3.639 0.9141-12.95 4 1.7212 17.55 9.8812 11.43 8.3447-3.8138 0.649-12.283-6.2422-12.344zm224.45 0.056c-1.3313-0.061-2.714 0.2062-4.0531 0.9078-12.81 1.89-3.4 17.19 6.15 11.72 10.783-2.43 5.0925-12.3-2.0969-12.628zm-428.09 2.6765c-0.2404 0-0.4835 0.01-0.7297 0.031 0.17 4.15 1.8209 8.0606 3.3109 11.891 9.3-0.7265 4.8688-11.872-2.5812-11.922zm123.66 5.0047c-1.3373 0.059-2.6141 0.4204-3.7016 1.1672-11.62 3.95 3.6003 16.009 10.22 10.789 9.6778-3.8138 0.7027-12.276-6.5187-11.956zm-61.336 10.825c-0.8273 0.029-1.6203 0.1375-2.3453 0.3313-14.74 4.9 5.6391 18.27 12.739 9.9703 2.8437-6.7287-4.6022-10.502-10.394-10.302zm415.67 2.3298c-0.7752-0.026-1.5313 0.033-2.2344 0.1812-3.83 0.57-9.5406 3.3406-8.2906 8.0406 4.07 7.12 17.82 5.0106 18.82-3.3594-1.2269-3.0388-4.9361-4.7511-8.2953-4.8624zm-212.76 1.3c-1.1604 0-2.2937 0.2468-3.3047 0.8218-14.61 2.34 0.09 18.19 9 10.43 7.5938-3.8053 0.5708-11.234-5.6953-11.252zm87.388 14.414c-0.9466 0.024-1.8616 0.1603-2.6922 0.4078-4.36 0.02-9.3203 5.35-5.5703 9.35 5.1 4.23 16.08 3.7106 17.9-3.7594-0.8531-4.1112-5.5356-6.1039-9.6375-5.9984zm50.681 6.1016c-0.838 0.029-1.6619 0.1462-2.4344 0.3468-3.68 0.31-8.3503 2.8288-7.3703 7.1688 3.37 7.09 17.951 5.8406 18.541-2.4594-1.2025-3.64-5.1049-5.1804-8.7359-5.0562zm-194.04 8.1796c-0.1771 0-0.3515 0.016-0.5234 0.036-17.18-0.75-4.15 18.11 6.2 10.5 7.5562-3.3422-0.1851-10.672-5.6766-10.536zm-194.17 0.6313c-0.212-0.01-0.4278-0.01-0.6453 0 0.11 3.88 1.7906 7.4912 2.9906 11.131 7.9922-1.9568 4.2256-10.897-2.3453-11.136zm136.4 3.7453c-0.9406 0.025-1.89 0.2275-2.8062 0.65-13.14 1.63-1.7097 16.52 7.4203 10.73 8.155-3.0013 1.9702-11.553-4.6141-11.38zm149.9 2.7016c-1.1859 0.014-2.3687 0.3312-3.4515 1.0484-13.74 2.29-0.76 16.459 7.85 10.259 8.5134-2.5988 2.0058-11.383-4.3985-11.308zm-227.51 8.4031c-1.0823-0.0008-2.1016 0.1969-2.9594 0.6359-13.44 3.58 3.1 15.95 10.35 9.75 6.1256-4.6068-1.5461-10.382-7.3906-10.386zm385.45 1.2735c-0.8962 0.01-1.7494 0.1371-2.4844 0.4015-3.49 0.53-8.8603 2.61-7.4703 7.1 3.76 6.03 14.13 4.7106 17.77-0.9594 0.7475-4.2169-3.9321-6.566-7.8156-6.5421zm-217.27 16.911c-0.8124 0.018-1.5875 0.172-2.275 0.4907-13.67 1.27-0.8788 16.25 8.1312 9.3797 7.3763-3.4388-0.17-9.9936-5.8562-9.8704zm157.08 1.6063c-1.106 0.035-2.1781 0.2891-3.1203 0.8141-13.2 3.17 0.5788 16.351 8.8188 9.3812 7.2309-4.2103 0.2744-10.387-5.6985-10.195zm-65.32 6.5219c-1.4357 0.033-2.7975 0.4059-3.8812 1.2234-11.54 3.99 3.1706 15.519 10.241 8.8891 7.4831-4.0219-0.1381-10.255-6.3594-10.112zm-209.88 5.5781c-1.0952 0.016-2.1094 0.2219-2.9344 0.6641-12.57 4.07 4.2403 15.551 10.62 9.1406 6.4969-4.379-1.7719-9.8894-7.6859-9.8047zm160.24 5.5781c-1.6215-0.043-3.145 0.2753-4.2453 1.0672-11.63 4.21 4.89 14.699 10.7 8.1688 6.3906-4.3125-0.6637-9.0815-6.4547-9.236zm-102.26 1.2641c-1.0776 0.032-2.089 0.2812-2.9281 0.8031-11.88 3.56 2.3294 14.79 9.1594 8.8797 7.3153-3.6956-0.4122-9.8546-6.2313-9.6828z" fill="#fcfffd"/>
</g>
</svg>
