<?xml version="1.0" encoding="UTF-8" standalone="no"?>
<svg xmlns:rdf="http://www.w3.org/1999/02/22-rdf-syntax-ns#" xmlns="http://www.w3.org/2000/svg" height="666pt" width="614pt" version="1.1" xmlns:cc="http://creativecommons.org/ns#" xmlns:dc="http://purl.org/dc/elements/1.1/" viewBox="0 0 614 666">
<g>
<path d="m295.41 0c-19.45 17.1-42.789 32.77-53.339 57.08-11.21 3.34-22.16 7.3797-33.02 11.73-1.6875-1.315-3.8061-1.868-5.9375-1.8266-6.3942 0.12422-12.902 5.6053-8.2218 11.958-13.3 7.63-17.801 24.369-13.431 38.509-12.15-5.55-25.47-9.7703-38.95-7.6203-2.19-1.2525-4.6038-2.7583-7.1172-2.7156-0.83776 0.0142-1.6872 0.20156-2.5422 0.62656-0.34 0.21-1.0397 0.61969-1.3797 0.82969-1.76 1.23-2.24 3.3497-2.8 5.2797-20.17 8.02-26.32 33.811-12.68 50.141-16.56-3.6-33.431-1.07-49.381 3.85-0.9844-0.18936-1.9966-0.26638-2.9969-0.22812-4.3346 0.1658-8.4397 2.4925-9.0328 7.1969-5.92 5.86-13.51 12.07-12.53 21.42-2.15 11.45 9.2106 17.901 14.891 25.691-6.19 2.49-12.37 5.1591-18.82 6.9391-1.7062-1.0781-3.765-1.6502-5.7782-1.6938-4.4287-0.0957-8.6372 2.3681-8.3828 7.6344-7.981 8.26-20.43 13.61-23.96 25.76v8.8609c5.86 14.27 19.95 22.44 33.3 28.63l-0.17032 0.85c-5.41 17.89-2.2703 38.141 8.9297 53.191-0.54248-0.01-1.1664-0.0594-1.7859-0.0734-1.8586-0.0422-3.6682 0.2222-3.0531 2.7422 15.65 83.4 31.36 166.81 46.72 250.27 1.34 10.74 4.5594 21.241 4.8594 32.091 7.33 8.26 18.95 10.099 29.07 12.939 9.1 2.67 18.509 4.1606 27.909 5.3906 12.12 1.43 24.201 3.1697 36.341 4.4797 9.91 1.09 19.839 1.8997 29.809 2.1297 10.98 0.93 22.001 1.4912 33.011 1.9312 9.67 0.88 19.39 1.1894 29.1 1.2594 11.22-0.06 22.499-0.91062 33.689 0.25938 0.7 0.13 2.1 0.37062 2.8 0.49062h10.2c5.41-0.54 10.84-0.86 16.28-0.9 11.33 0.04 22.63-0.73938 33.95-1.1094 10.12-0.12 20.381 0.11907 30.361-1.8609 12.35-0.46 24.679-1.45 36.989-2.6 8.35-0.82 16.721-1.6497 24.981-3.2297 12.36-1.75 24.599-4.26 36.809-6.85 8.74-2.62 18.5-4.9306 25.02-11.791 6.42-43.34 15.67-86.249 23.23-129.42 9.33-50.59 19.01-101.13 28.1-151.76 1.5-3.16 0.83064-4.9794-2.0094-5.4594 12.12-15.03 12.7-35.451 8.6797-53.561 11.68-7.43 25.78-13.899 30.88-27.939v-8.95c-8.97-21.85-33.95-29.1-53.97-37.6 5.4-6.65 13.75-13.051 11.92-22.741 0.69-13.89-12.68-20.689-21.78-28.259-0.47808-4.3594-3.9531-6.1853-7.8344-6.3391-3.0187-0.11958-6.2841 0.7725-8.5766 2.2688-12.16-2.25-24.519-1.95-36.669 0.2 18.6-18.73 3.9587-49.019-20.031-53.159-16.92-5.77-33.539 1.95-49.059 8.1 15.73-19.69-0.76032-44.04-20.77-52.12 1.9031-5.2697-2.3387-8.5417-6.8313-8.625-2.3532-0.04362-4.7756 0.78719-6.4187 2.6641-18.68-9.99-41.109-8.41-59.809-18.15-20.93-5.471-44.37-21.7-36.94-46.8z" fill="#fc0"/>
<path fill="#fea" d="m295.41 0c-19.45 17.1-42.789 32.77-53.339 57.08-11.21 3.34-22.16 7.3797-33.02 11.73 2.78 3.12 3.5406 7.0112 0.8906 10.481 4.28 0.03 10.639-6.4212 12.769-0.03125 11.53 26.72 40.35 39.02 65.45 46.85-28.03-1.27-59.94 4.5206-84.83-11.309-12.82-8.61-5.5194-25.62 1.3406-32.97-3.51 0.17-6.7997-1.1491-9.7797-2.8891-13.3 7.63-17.801 24.369-13.431 38.509-12.15-5.55-25.47-9.7703-38.95-7.6203 3.6 9.12-10.969 12.43-13.839 4.0203-20.17 8.02-26.32 33.811-12.68 50.141-16.56-3.6-33.431-1.07-49.381 3.85 15.32 7.76-7.9097 21.149-12.03 6.9688-5.92 5.86-13.51 12.07-12.53 21.42-2.15 11.45 9.2106 17.901 14.891 25.691-6.19 2.49-12.37 5.1591-18.82 6.9391 2.11 2.92 1.9691 6.3912 0.0391 9.3812 5.78-1.14 11.56-4.4309 17.52-2.0109 63.99 23.75 128.21 48.24 195.66 60.33-68.87 0.63-137.75-5.1388-206.59-7.1688-11.2-0.99-19.16-8.6912-27.02-15.481-7.76 2.73-16.51-6.3988-8.9203-12.469 1.33-0.81 2.8409-1.4106 4.4109-1.4906 1.07 0.02 2.1394 0.0603 3.2094 0.12031 2.22-8.76 14.14-14.511 16.38-20.461-3.77 0.34-7.1-1.4594-8.85-4.8094-7.98 8.26-20.429 13.609-23.959 25.759v8.8609c5.86 14.27 19.95 22.44 33.3 28.63 127.48 7.54 257.65 12.61 383.66 8.9703-118.97-6.82-242.23-29.581-352.03-81.061-0.75-0.95-8.75-3.1991-4.8-3.7391 166.02 61.01 345.49 88.989 522.11 74.709-66.3 17.09-138.57 16.19-207.44 20.93-114.15 1.39-228.42-4.3094-341.67-18.959-5.41 17.89-2.2703 38.141 8.9297 53.191 4.41 0.23 8.8112 0.67938 13.231 0.95938-4.2-3.95-18.911-15.02-13.641-18.1-6.67-18.11 26.62-8.4303 11.02 1.4797 25.24 8.21 52.58 11.67 78.82 16.83 3.19-6.75 15.059-5.7388 14.909 2.5312 13.85 2.47 27.74 4.8397 41.75 6.2297 2.25 0.18 4.5106 0.44969 6.7406 0.82969 38.23 5.57 76.91 7.2494 115.5 7.9094 0.88-0.65 1.7794-1.27 2.7094-1.85 3.42-0.62 6.97-0.44 10.25 0.75 86.6 0.53 172.38-16.43 255.86-38.33-1.98 7.5-6.8297 13.83-11.43 19.93 1.67-0.06 5.0009-0.17907 6.6609-0.23907 12.12-15.03 12.7-35.451 8.6797-53.561 11.68-7.43 25.78-13.899 30.88-27.939v-8.95c-8.97-21.85-33.95-29.1-53.97-37.6 5.4-6.65 13.75-13.051 11.92-22.741 0.69-13.89-12.68-20.689-21.78-28.259 0.52 13.64-24.171 7.7797-16.411-4.0703-12.16-2.25-24.519-1.95-36.669 0.2 18.6-18.73 3.9588-49.019-20.031-53.159-16.92-5.77-33.539 1.95-49.059 8.1 15.73-19.69-0.7603-44.04-20.77-52.12-4.75 5.49-16.64 2.1991-13.25-5.9609-18.68-9.99-41.109-8.41-59.809-18.15-20.93-5.481-44.37-21.71-36.94-46.81h-1.8203zm14.211 40.234c6.8634 0.14919 12.599 10.448 3.2 12.886-8.4 6.13-17.781-9.9109-7.0406-11.811 1.2594-0.78281 2.5696-1.1026 3.8406-1.075zm-30.511 1.8953c21.33 13.89 46.231 20.351 69.931 28.861 4.7-3.58 15.07-2.6603 15.9 4.2797 12.84 6.5 37.4 7.2394 38.53 25.009-13.95 13.78-37.13 7.74-54.52 4.05-22.63 1.33-46.941-3.2003-65.291-17.17-5.88 1.59-13.109-4.3391-9.7188-10.289l-0.19-0.729c-8.69-9.55-3.9106-26.121 5.3594-34.011zm-37.839 17.041c-5.32 18.37 10.08 39.129 28.7 45.859 50.35 20.78 106.45 18.73 159.85 18.95-14.96 23.59-42.44 37.051-68.25 46.611-60.03 19.54-124.65 18.45-186.6 10.23 1.67 2.7 5.9494 2.9603 8.7594 4.4703 119.3 44.39 249.79 47.05 375.2 36.61-81.19 13.83-167.11 15.01-249.73 4.9-66.93-8.63-133.09-27.15-191.17-62.24 51.77 3.42 104.27 15.91 156.91 13.45 52.42-2.34 109.11-11.97 148.98-48.98 2.55-1.26 2.6897-6.97-2.7703-3.05-63.78 8.85-128.7 18.4-192.91 8.8203-13.34-3.13-28.411-5.4503-39.241-13.87 62.77 26.17 133.28 13.46 198.89 6.95-41.33-3.33-88.7-2.92-126.92-24.85-15.14-7.63-27.64-27.549-19.7-43.859zm-92.569 69.164c1.0942 0.0181 2.1641 0.22656 3.1578 0.65624 34.9 16.12 73.29 24.41 111.62 25.85 1.24-9.2 17.26-9.2312 17.03 0.76876 10.36 1.52 23.521-1.5088 32.661 1.3312-12.48 1.29-24.91 3.0597-37.47 3.3797-2.43 0.07-4.8603 0.04-7.2703-0.1-30.56 1.06-60.909-2.83-91.189-6-10.51 3.33-21.301 1.47-31.391-2.2-9.45 5.71-19.93-7.7003-8.5297-12.37-1.1222-5.9738 5.4726-11.413 11.381-11.316zm317.37 2.8547c5.9171 0.1901 11.908 4.8119 9.8406 11.552-0.3 11.32-14.28 27.149-0.9 35.389 19.65 7.12 41.931 2.3609 60.981 11.811 3.71 1.9 8.26 5.11 7.95 9.85-22.53 5.43-45.64 8.4897-68.77 9.4797-2.88 0.87-5.9197 0.87-8.8797 0.9-28.25 1.58-59.56-2.7897-86.4-1.4297-1.77 6.64-14.011 4.9288-13.361-2.4312-12.46-1.76-25.02-2.63-37.48-4.35-3.8 2.97-10.279 2.9606-12.959-1.4594-2.5-8.69 12.62-10.33 14.18-2.4297 47.57-7.8 92.85-29.83 127.73-63.2 1.8906-2.6641 4.9693-3.7808 8.0688-3.6812zm-123.28 9.9391c3.2097-0.0738 6.5243 1.6316 8.0468 4.5016 3.7 9.37-13.781 11.98-15.491 3.8203-2.02-4.39 2.4797-7.4697 6.0797-8.1797 0.4487-0.085 0.9055-0.13164 1.3641-0.14218zm-248.9 38.89c2.2798 0.014 4.4438 0.36093 6.3219 1.0797 57.98 31.23 122.23 48.81 186.72 60.13 0.97-1.4 2.0797-2.6906 3.2297-3.9406 0.42-0.06 1.2706-0.19938 1.6906-0.25938 4.64-0.77 9.95 0.89031 10.55 6.0703 27.96 4.1 56.291 5.7897 84.391 7.8297 0.29-1.03 0.6391-2.0397 1.0391-3.0297 0.12-1.28 0.83-1.9403 2.15-1.9703 4.35-2.25 11.16-0.47969 11.55 5.0203 34.48-0.22 69.581 1.2391 103.56-5.0609-1.79-7.87 11.049-9.6803 13.319-2.5703 18.12-5.24 36.371-0.10907 53.681 3.9609 0.11-0.6 0.3094-1.7906 0.4094-2.3906 1.73-2.54 7.61-4.34 9.4-2.15 7.95 1.06 5.4194 12.53-2.0906 11.43 7.85 6.61 5.2212 24.231-6.8688 22.691 13.29 11.71-16.581 19.339-13.091 3.3094-27.1-1.34-54.37 3.5409-81.62 2.9609-4.06 2.55-9.2694 2.0703-13.459 0.0703-43.58-1.17-87.161-4.3303-130.34-10.47-2.6 6.29-13.73 6.9691-15.4-0.0609-1.85 0.8-0.4997-2.6991-2.2797-2.4891-31.49-5.42-63.02-11.16-93.97-19.1-4.57 1.74-10.41 1.4791-13.22-3.0109-17.91-4.03-35.499-9.2897-53.169-14.18-1.22 11.68-24.54 8.8109-17.32-3.8891-20.01-13.48-50.62-4.4309-65.17-27.211-7.9903-13.213 7.6765-22.844 19.988-22.769zm24.189 137.77c0.92227 0.0193 1.6766 0.23437 1.9328 0.71562 16.46 10.13-17.509 15.8-6.9094 1.2703 0.11-1.1206 2.9476-2.0283 4.9766-1.9859zm392.28 7.7891c6.1593-0.0995 12.503 7.5375 5.5656 11.606-7.66 5.95-17.76-6.9791-8.1203-10.589 0.33-0.22 0.9997-0.66062 1.3297-0.89062 0.405-0.0788 0.8144-0.11993 1.225-0.12656zm-147.3 1.8641c7.1792 0.31076 11.931 11.373 2.7781 13.683-8.48 4.72-17.06-8.0106-7.65-12.841 0.42-0.06 1.2597-0.18938 1.6797-0.25938 1.0912-0.45125 2.1666-0.62721 3.1922-0.58281zm51.302 2.8375c5.6492-0.20385 12.232 7.4675 5.5469 10.775-5.07 5.74-17.43-2.2197-10.85-8.2297-0.44-1.56 2.0797-1.3206 2.9797-1.9406 0.7275-0.38625 1.5164-0.57557 2.3234-0.60469zm-152.5 6.8c7.1958-0.2454 10.18 11.472 1.6672 12.634-9.03 2.74-13.281-11.499-3.1609-12.419 0.515-0.12937 1.014-0.19926 1.4937-0.21562zm293.31 22.855c-1.36 1.48-2.7588 2.9309-4.2188 4.3109 2.41-0.35 4.8294-0.71093 7.2594-1.1109-0.89-1.18-1.8806-2.29-3.0406-3.2zm-489.29 1.7c-4.14 2.29-5.4009 7.3306 0.43907 5.5906 1.72-0.02 5.17-0.0706 6.9-0.0906-2.15-2.21-4.6291-4.04-7.3391-5.5zm28 16.391c-0.39 1.05-0.65031 2.1291-0.77031 3.2391 3.99-0.34 7.9897-0.59907 11.98-0.88907-3.85-0.18-7.6494-0.88-11.209-2.35z"/>
<path fill="#784421" d="m309.62 40.234c-1.271-0.02763-2.5812 0.29219-3.8406 1.075-10.74 1.9-1.3594 17.941 7.0406 11.811 9.3994-2.4384 3.6634-12.737-3.2-12.886zm-1.7672 1.7438c4.3566 0.2051 4.2457 9.4725-2.6328 6.0016-3.96-0.42-2.1409-5.7 1.1391-5.75 0.5437-0.19687 1.043-0.27278 1.4937-0.25156zm92.545 20.317c-2.3532-0.04362-4.7756 0.78719-6.4187 2.6641-3.39 8.16 8.5 11.451 13.25 5.9609 1.9031-5.2697-2.3388-8.5417-6.8313-8.625zm-3.04 1.855c12.9 2.02-8.15 8.28 0 0zm-194.25 2.8328c-6.3942 0.12422-12.902 5.6053-8.2219 11.958 2.98 1.74 6.2697 3.0591 9.7797 2.8891 1.76-0.84 3.4903-1.7291 5.2703-2.5391 2.65-3.47 1.8894-7.3612-0.8906-10.481-1.6875-1.315-3.8061-1.868-5.9375-1.8266zm152.8 1.9578c-2.5551-0.0033-5.1141 0.7075-6.8766 2.05-11.9 11.78 17.99 19.61 15.9 4.2797-0.5187-4.3375-4.7649-6.3242-9.0234-6.3297zm-155.69 0.43906c2.7104 0.09281 4.8166 2.4381 3.6766 5.3406-2.94 4.64-11.761-1.0503-6.4906-4.6203 0.94-0.5325 1.9106-0.75125 2.814-0.72031zm153.71 0.75313c3.509-0.12073 6.0541 4.6478 2.6578 6.7766-4.55 3.42-9.3612-3.1988-5.1812-5.8188 0.8512-0.64125 1.7136-0.92995 2.5234-0.95781zm-72.68 2.731c-1.7686 0.05531-3.6444 0.73719-5.45 2.2953 13.33-2.27 2.5006 13.851-1.8594 1.7109-3.39 5.95 3.8388 11.879 9.7188 10.289 10.896-3.0062 5.2544-14.535-2.4094-14.295zm-52.606 24.333c-1.2346 0.000376-2.55 0.33594-3.8844 1.1125-10.74 2.02-1.2894 17.83 7.0906 11.87 7.7709-3.1894 3.4602-12.985-3.2062-12.983zm-1.6172 1.5766c4.5238-0.31814 3.9372 9.6859-2.5063 6.1062-3.76-1.31-2.7409-5.31 0.9391-5.65 0.5765-0.28031 1.0992-0.42334 1.5672-0.45625zm-91.634 8.3406c-0.8378 0.0142-1.6872 0.20156-2.5422 0.62656 10.59 3.37-4.0997 11.07-1.3797 0.82969-1.76 1.23-2.24 3.3497-2.8 5.2797 2.87 8.41 17.439 5.0997 13.839-4.0203-2.19-1.2525-4.6038-2.7583-7.1172-2.7156zm329.6 29.69c9.68 4.14-3.22 11.751-3.95 1.9906-8.77 8.84 10.34 15.2 12.73 5.75 1.72-5.36-4.5897-7.5606-8.7797-7.7406zm-325.41 2.5688c-0.74398 0.0104-1.5028 0.10031-2.2641 0.28125-11.4 4.67-0.92031 18.08 8.5297 12.37 6.7334-5.3741 0.92615-12.752-6.2656-12.652zm-1.0297 1.5031c2.7177-0.2208 6.2231 2.9894 3.2656 5.0281-3.25 3.95-10.301-2.5794-4.3609-4.7094 0.335-0.185 0.70707-0.2872 1.0953-0.31875zm204.24 0.25626c-0.4586 0.0105-0.9154 0.0572-1.3641 0.14218-3.6 0.71-8.0997 3.7897-6.0797 8.1797 1.71 8.16 19.191 5.5497 15.491-3.8203-1.5225-2.87-4.8371-4.5754-8.0468-4.5016zm-2.2391 1.7437c2.7177-0.2208 6.2231 2.9894 3.2656 5.0281-3.25 3.95-10.311-2.5794-4.3609-4.7094 0.335-0.185 0.707-0.2872 1.0953-0.31875zm-68.008 5.1531c-4.1313-0.0925-8.4472 2.2156-9.0672 6.8156 1.24 2.13 2.79 4.0997 4.95 5.3797 2.41 0.14 4.8403 0.17 7.2703 0.1 1.7-1.47 3.2594-3.0909 4.8094-4.7109 0.115-5-3.8313-7.4919-7.9625-7.5844zm-3.9766 2.125c16.29 1.37-9.03 8.31 0 0zm273.77 15.481c-3.0187-0.11958-6.284 0.7725-8.5765 2.2688-7.76 11.85 16.931 17.71 16.411 4.0703-0.4781-4.3594-3.9531-6.1853-7.8344-6.3391zm-2.5109 1.1625c3.3171-0.08 6.2869 3.7119 2.7344 6.0656-5.21 3.42-9.2994-3.6097-4.1594-5.7797 0.47-0.185 0.9511-0.27451 1.425-0.28594zm-476.21 0.83c-4.3346 0.1658-8.4397 2.4925-9.0328 7.1969 4.12 14.18 27.35 0.79124 12.03-6.9688-0.98438-0.18937-1.9966-0.26638-2.9969-0.22812zm-1.7328 1.7844c3.0624 0.0443 4.47 4.4419 1.35 5.9938-3.62 3-9.37-3.4506-3.7-5.2406 0.8475-0.54187 1.6433-0.76334 2.35-0.75313zm38.102 20.77c-0.55469-0.0196-1.1053 0.0222-1.6406 0.13282-14.38 2.34-1.7306 20.331 7.4594 10.541 5.2291-4.5766-0.45678-10.484-5.8188-10.673zm-3.6219 1.9531c15.8-0.1-6.28 9.94 0 0zm226.69 0.85c-4.1946-0.0164-8.3625 2.6416-6.9563 7.5297 2.68 4.42 9.1594 4.4294 12.959 1.4594 0.41-1.3 0.8103-2.5891 1.2203-3.8891-0.6825-3.4562-3.961-5.0873-7.2234-5.1zm-3.5563 2.25c12.71 0.98-7.82 8.56 0 0zm151.23 4.0844c-6.2287 0.10277-13.504 4.9088-4.4313 10.866 2.96-0.03 5.9997-0.03 8.8797-0.9 4.6069-7.28 0.3961-10.046-4.4484-9.9656zm-3.41 0.91c11.92 2.23-9.09 7.68 0 0zm-95.23 1.4297c7.49 4.3-2.6591 10.281-3.3391 2.2906-0.77 0.77-1.5109 1.5691-2.2109 2.3891-0.65 7.36 11.591 9.0712 13.361 2.4312 1.03-4.84-3.8509-6.8409-7.8109-7.1109zm-225.83 25.373c-2.6469 0.056-5.2756 1.0225-7.1844 2.9875-7.22 12.7 16.1 15.569 17.32 3.8891-1.2625-4.5375-5.7245-6.9699-10.136-6.8766zm-113.91 0.16249c-4.4288-0.0957-8.6372 2.3681-8.3828 7.6344 1.75 3.35 5.08 5.1494 8.85 4.8094 1.78-0.44 3.57-0.90876 5.35-1.3688 1.93-2.99 2.0709-6.4612-0.0391-9.3812-1.7062-1.0781-3.765-1.6502-5.7781-1.6938zm112.51 1.1547c3.1695-0.21105 5.7028 3.3688 3.4359 6.05-3.92 4.13-12.411-2.9006-5.6812-5.2406 0.74812-0.51 1.5139-0.76067 2.2453-0.80938zm-116.5 0.8c15.8-0.1-6.27 9.94 0 0zm265.25 7.7266c-0.5904 0.0182-1.1809 0.0772-1.7609 0.17344 11.95 4.31-6.6906 11.189-1.6906 0.25938-1.15 1.25-2.2597 2.5406-3.2297 3.9406-0.71 9 13.22 9.9903 15.47 1.8703-0.525-4.5325-4.6561-6.371-8.7891-6.2438zm-76.128 1.7094c-5.0378-0.14847-9.9753 2.6212-7.9234 9.5031 2.81 4.49 8.6503 4.7509 13.22 3.0109 7.8244-7.3069 1.1803-12.323-5.2969-12.514zm293.99 0.30469c-3.7661 0.083-7.3881 2.5919-6.3813 7.0188 2.88 5.28 13.699 4.3497 13.319-2.5703-0.9932-3.1106-4.0083-4.513-6.9375-4.4484zm-295.81 1c3.0839-0.28123 6.4628 3.8466 2.5078 5.5703-4.67 4.71-9.1691-4.3909-3.7891-5.1609 0.4063-0.24 0.8407-0.3692 1.2813-0.40938zm293.67 0.32969c10.76 3.02-7.73 7.87 0 0zm71.155 2.3281c-2.2226 0.22982 2.5588 5.2831-0.775 6.2719-3.23 1.3-5.25-1.96-7.2-3.9-0.1 0.6-0.2994 1.7906-0.4094 2.3906-0.95 4.79 3.7588 6.7391 7.7188 6.8891 7.51 1.1 10.041-10.37 2.0906-11.43-0.6475-0.19-1.1075-0.25471-1.425-0.22187zm-185.97 2.4719c-1.5688-0.0732-3.1687 0.23749-4.5281 0.94062 11.16 1.21 0.99 8.7703-2.15 1.9703-0.4 0.99-0.7491 1.9997-1.0391 3.0297 3.09 6.27 11.669 6.4203 14.739 0.0203-0.2681-3.7812-3.5704-5.7999-7.0219-5.9609zm-335.82 10.61c-0.58568 0.0174-1.1769 0.11907-1.7609 0.31876 11.09 4.13-6.1903 9.8903-1.6703 0.37031-8.02 4.53 0.60093 14.74 7.6609 9.8797 6.5884-3.0359 1.4319-10.737-4.2297-10.569zm476.19 2.75c-1.0532 0.0409-2.1406 0.35156-3.1984 1.0094-9.91 2.44 0.1306 15.361 7.2406 9.8406 6.3366-3.4172 1.645-11.071-4.0422-10.85zm-521.66 1.61c12.24 5.21-5.9109 12.991-4.4109 1.4906-7.59 6.07 1.1603 15.199 8.9203 12.469 8.27-2.31 6.86-12.699-1.3-13.839-1.07-0.06-2.1394-0.10031-3.2094-0.12031zm519.11 0.3c11.7 2.42-8.53 7.78 0 0zm-206.37 4.9734c-1.3846 0.0755-2.7641 0.52656-3.9891 1.4266 12.12-0.42 0.6103 12.14-2.1297 1.2-0.38 1.58-0.6209 3.1894-0.8109 4.8094 1.67 7.03 12.8 6.3509 15.4 0.0609-0.1275-4.5675-4.3167-7.7233-8.4703-7.4969zm145.59 6.1484c-6.0875 0.0675-12.193 4.0638-6.7828 11.819 4.19 2 9.3994 2.4797 13.459-0.0703 5.48-7.955-0.5891-11.816-6.6766-11.748zm-2.8343 1.3953c3.1193-0.1389 6.3687 4.3172 2.7812 6.0234-5.12 3.49-9.2306-3.5909-4.0906-5.6609 0.42-0.22875 0.8637-0.34266 1.3094-0.36251zm99.762 3.4688c-3.2334 0.0821-6.3006 1.3522-8.6312 3.9234-3.49 16.03 26.381 8.4006 13.091-3.3094-1.4844-0.44375-2.9896-0.65139-4.4594-0.61406zm-424.49 1.8438c-1.1454 0.0183-2.2769 0.37344-3.2594 1.1797 10.3-0.23 0.71969 10.07-0.92031 0.92031-6.59 3.64 3.78 12.79 8.85 7.5797 5.5169-3.4938 0.2932-9.759-4.6703-9.6797zm420.41 0.15c15.72 0.35-5.95 11.24 0 0zm-444.39 40.27c0.42 3.24-4.0194 9.5403-6.9094 1.2703-10.6 14.53 23.369 8.8597 6.9094-1.2703zm-72.661 6.2906c-4.5231 0.0321-8.4081 2.8022-5.6984 10.159 3.37 2.03 7.2003 2.0997 11.02 1.4797 9.2625-5.8841 1.2888-11.686-5.3219-11.639zm463.01 0.78282c-0.4106 0.007-0.82 0.0478-1.225 0.12656 11.63 5.89-7.6997 11.071-1.3297 0.89062-9.64 3.61 0.4603 16.539 8.1203 10.589 6.9375-4.0688 0.5937-11.706-5.5656-11.606zm-465 0.54687c15.8-0.1-6.27 9.94 0 0zm317.69 1.3172c-1.0256-0.0444-2.101 0.13156-3.1922 0.58281 13.63 4.9-7.2697 13.009-1.6797 0.25938-9.41 4.83-0.83 17.561 7.65 12.841 9.1525-2.31 4.4011-13.372-2.7781-13.683zm51.302 2.8375c-0.807 0.0291-1.5959 0.21844-2.3234 0.60469 10.9 2.77-1.6697 12.321-2.9797 1.9406-6.58 6.01 5.78 13.97 10.85 8.2297 6.685-3.3075 0.1023-10.979-5.5469-10.775zm-152.5 6.8c-0.4797 0.0164-0.9787 0.0863-1.4937 0.21562-10.12 0.92-5.8691 15.159 3.1609 12.419 8.5125-1.1625 5.5286-12.88-1.6672-12.634zm-1.8078 1.7641c2.1929 0.0687 3.7635 2.3466 2.8453 4.7109-2.95 3.59-10.521-2.0497-4.4406-4.3797 0.5494-0.24562 1.0893-0.34709 1.5953-0.33125zm-121.12 9.975c-2.985 0.0244-6.0419 1.4922-7.4375 4.4453 1.49 7.29 10.919 8.4712 14.909 2.5312 0.0844-4.6519-3.634-7.0079-7.4719-6.9766zm-1.0703 1.0453c2.0264-0.0526 3.9875 1.5912 2.9719 3.85-2.34 4.03-10.49-1.6197-4.35-3.5297 0.43875-0.20625 0.91048-0.30817 1.3781-0.32031zm320.08 9.4875c-1.0684-0.0341-2.175 0.21095-3.2516 0.82344-8.09 3.28-1.1409 14.739 6.2891 9.9594 7.3744-2.295 2.7321-10.599-3.0375-10.783zm-2.5219 1.8625c12.6 2.24-7.35 8.15 0 0zm-267.26 0.8c-6.46 0.84-11.231 9.54-4.4406 13.5 9.12 7.34 21.861-6.0303 11.181-12.67-2.23-0.38-4.4906-0.64969-6.7406-0.82969zm0.49375 1.4719c3.7876 0.0332 6.5847 5.9666 1.6656 6.9875-4.35 2.93-9.3397-4.2397-3.8297-6.3297 0.72656-0.46718 1.4626-0.66395 2.1641-0.65782zm128.34 5.0688c-1.2979-0.004-2.5987 0.11593-3.8812 0.34844 12.6 1.29 0.9006 11.03-2.7094 1.85-4.58 12.81 20.619 10.53 12.959-1.1-2.05-0.74376-4.2055-1.0925-6.3688-1.0984zm37.211 11.941c-0.7674 0.0304-1.5013 0.16157-2.1625 0.40782 11.56 2.64-1.8097 12.46-2.8797 1.95-7.92 8.06 8.7406 15.821 13.291 7.4906 4.1738-5.3025-2.8767-10.061-8.2484-9.8484z"/>
<path fill="#ffe680" d="m279.11 42.13c-9.27 7.89-14.049 24.461-5.3594 34.011 0.51-0.25 1.54-0.74125 2.05-0.98125 9.63-8.31 21.269 8.3 7.8594 12 18.35 13.97 42.661 18.5 65.291 17.17 17.39 3.69 40.57 9.73 54.52-4.05-1.13-17.77-25.69-18.509-38.53-25.009 2.09 15.33-27.8 7.5003-15.9-4.2797-23.7-8.51-48.601-14.971-69.931-28.861zm-59.442 34.312c-2.8583-0.17306-6.7841 2.8691-9.7266 2.8484-1.78 0.81-3.5103 1.6991-5.2703 2.5391-6.86 7.35-14.161 24.36-1.3406 32.97 24.89 15.83 56.8 10.039 84.83 11.309-25.1-7.83-53.92-20.13-65.45-46.85-0.6656-1.9969-1.743-2.7385-3.0422-2.8172zm8.9766 20.755c6.6664-0.002 10.977 9.7934 3.2062 12.983-8.38 5.96-17.831-9.8503-7.0906-11.87 1.3344-0.77656 2.6498-1.1121 3.8844-1.1125zm-79.942 31.138c-5.9086-0.0978-12.503 5.3419-11.381 11.316 8.12-1.93 15.96 6.4403 8.5297 12.37 10.09 3.67 20.881 5.53 31.391 2.2 30.28 3.17 60.629 7.06 91.189 6-2.16-1.28-3.71-3.2497-4.95-5.3797-38.33-1.44-76.72-9.73-111.62-25.85-0.99376-0.42968-2.0636-0.63814-3.1578-0.65624zm317.37 2.8547c-3.0995-0.0996-6.1782 1.0172-8.0688 3.6812-34.88 33.37-80.16 55.4-127.73 63.2-0.41 1.3-0.8103 2.5891-1.2203 3.8891 12.46 1.72 25.02 2.59 37.48 4.35 0.7-0.82 1.4409-1.6191 2.2109-2.3891 0.92-1 1.9591-1.9706 3.3391-2.2906 3.96 0.27 8.8409 2.2709 7.8109 7.1109 26.84-1.36 58.15 3.0097 86.4 1.4297-16.13-10.59 19.41-17.54 8.8797-0.9 23.13-0.99 46.24-4.0497 68.77-9.4797 0.31-4.74-4.24-7.95-7.95-9.85-19.05-9.45-41.331-4.6909-60.981-11.811-13.38-8.24 0.6-24.069 0.9-35.389 2.0672-6.7397-3.9235-11.361-9.8406-11.552zm-1.09 5.61c4.19 0.18 10.5 2.3806 8.7797 7.7406-2.39 9.45-21.5 3.09-12.73-5.75 0.03-1.72 2.72-1.4006 3.95-1.9906zm-184.48 18.809c-1.55 1.62-3.1094 3.2409-4.8094 4.7109 12.56-0.32 24.99-2.0897 37.47-3.3797-9.14-2.84-22.301 0.18876-32.661-1.3312zm-186.62 24.4c-12.311-0.0756-27.978 9.5556-19.988 22.769 14.55 22.78 45.16 13.731 65.17 27.211 5.09-5.24 15.3-3.3709 17.32 3.8891 17.67 4.89 35.259 10.15 53.169 14.18-4.69-15.73 27.13-9.9791 13.22 3.0109 30.95 7.94 62.48 13.68 93.97 19.1 1.78-0.21 0.4297 3.2891 2.2797 2.4891 0.19-1.62 0.4309-3.2294 0.8109-4.8094 0.53-0.3 1.5997-0.9 2.1297-1.2 4.9-3.6 12.289-0.0197 12.459 6.0703 43.18 6.14 86.761 9.3003 130.34 10.47-10.82-15.51 24.419-15.98 13.459-0.0703 27.25 0.58 54.52-4.3009 81.62-2.9609 3.39-3.74 8.3406-4.7294 13.091-3.3094 12.09 1.54 14.719-16.081 6.8688-22.691-3.96-0.15-8.6688-2.0991-7.7188-6.8891-17.31-4.07-35.561-9.2009-53.681-3.9609 0.38 6.92-10.439 7.8503-13.319 2.5703-33.98 6.3-69.081 4.8409-103.56 5.0609-3.07 6.4-11.649 6.2497-14.739-0.0203-28.1-2.04-56.431-3.7297-84.391-7.8297-2.25 8.12-16.18 7.1297-15.47-1.8703-64.49-11.32-128.74-28.9-186.72-60.13-1.8781-0.71875-4.0421-1.0657-6.3219-1.0797zm6.0938 10.156c5.362 0.18909 11.048 6.0969 5.8188 10.673-9.19 9.79-21.839-8.2006-7.4594-10.541 0.53532-0.11062 1.0859-0.15238 1.6406-0.13282zm-48.741 45.19c-4.4109-0.0422-8.7462 2.0231-13.081 2.8781-1.78 0.46-3.57 0.92876-5.35 1.3688-2.24 5.95-14.16 11.701-16.38 20.461 8.16 1.14 9.57 11.529 1.3 13.839 7.86 6.79 15.82 14.491 27.02 15.481 68.84 2.03 137.72 7.7988 206.59 7.1688-67.45-12.09-131.67-36.58-195.66-60.33-1.49-0.605-2.9688-0.85313-4.4391-0.86719zm7.45 20.228c5.6616-0.16811 10.818 7.5328 4.2297 10.569-7.06 4.86-15.681-5.3497-7.6609-9.8797 0.41-0.09 1.2503-0.27031 1.6703-0.37031 0.58406-0.19969 1.1752-0.30136 1.7609-0.31876zm476.19 2.75c5.6872-0.22069 10.379 7.4328 4.0422 10.85-7.11 5.52-17.151-7.4006-7.2406-9.8406 1.0578-0.65782 2.1452-0.9685 3.1984-1.0094zm-390.89 19.739c4.9635-0.0794 10.187 6.1859 4.6703 9.6797-5.07 5.21-15.44-3.9397-8.85-7.5797l0.92031-0.92031c0.98249-0.80625 2.1139-1.1614 3.2594-1.1797z"/>
<path fill="#d38d5f" d="m307.85 41.978c-0.4507-0.02122-0.95 0.05469-1.4937 0.25156-3.28 0.05-5.0991 5.33-1.1391 5.75 6.8785 3.4709 6.9894-5.7965 2.6328-6.0016zm89.51 22.172c-8.15 8.28 12.9 2.02 0 0zm-197.14 5.2297c-0.9-0.031-1.87 0.188-2.81 0.72-5.27 3.57 3.5506 9.2603 6.4906 4.6203 1.14-2.9025-0.9662-5.2478-3.6766-5.3406zm153.71 0.75313c-0.8098 0.02786-1.6722 0.31656-2.5234 0.95781-4.18 2.62 0.6312 9.2388 5.1812 5.8188 3.3963-2.1288 0.8512-6.8973-2.6578-6.7766zm-75.909 4.8062c-0.6518 0.0096-1.3903 0.07844-2.2234 0.22031-0.51 0.24-1.54 0.73125-2.05 0.98125l0.1906 0.72969c4.0875 11.381 13.861-2.0751 4.0828-1.9313zm-50.99 23.834c-0.468 0.03291-0.9907 0.17594-1.5672 0.45625-3.68 0.34-4.6991 4.34-0.9391 5.65 6.4435 3.5797 7.0301-6.4244 2.5063-6.1062zm-94.177 8.9672c-0.34 0.21-1.0397 0.61969-1.3797 0.82969-2.72 10.24 11.97 2.5403 1.3797-0.82969zm332.14 29.06c-1.23 0.59-3.92 0.27062-3.95 1.9906 0.73 9.76 13.63 2.1494 3.95-1.9906zm-326.44 4.0719c-0.38824 0.0316-0.76031 0.13375-1.0953 0.31875-5.94 2.13 1.1109 8.6594 4.3609 4.7094 2.9575-2.0388-0.54793-5.2489-3.2656-5.0281zm202 2c-0.3883 0.0316-0.7603 0.13375-1.0953 0.31875-5.95 2.13 1.1109 8.6594 4.3609 4.7094 2.9575-2.0388-0.5479-5.2489-3.2656-5.0281zm-71.98 7.28c-9.03 8.31 16.29 1.37 0 0zm271.25 16.644c-0.4739 0.0114-0.955 0.10094-1.425 0.28594-5.14 2.17-1.0506 9.1997 4.1594 5.7797 3.5525-2.3538 0.5827-6.1456-2.7344-6.0656zm-477.95 2.6031c-0.7067-0.0102-1.5025 0.21126-2.35 0.75313-5.67 1.79 0.08 8.2406 3.7 5.2406 3.12-1.5519 1.7124-5.9495-1.35-5.9938zm34.48 22.723c-6.28 9.94 15.8-0.1 0 0zm223.13 3.1c-7.82 8.56 12.71 0.98 0 0zm147.83 4.99c-9.09 7.68 11.92 2.23 0 0zm-95.23 1.4297c-1.38 0.32-2.4191 1.2906-3.3391 2.2906 0.68 7.99 10.829 2.0094 3.3391-2.2906zm-227.23 26.691c-0.73143 0.0487-1.4972 0.29938-2.2453 0.80938-6.73 2.34 1.7612 9.3706 5.6812 5.2406 2.2669-2.6812-0.26642-6.261-3.4359-6.05zm-116.5 0.8c-6.27 9.94 15.8-0.1 0 0zm263.49 7.9c-0.42 0.06-1.2706 0.19938-1.6906 0.25938-5 10.93 13.641 4.0506 1.6906-0.25938zm-76.19 2.83c-0.4406 0.0402-0.875 0.16938-1.2813 0.40938-5.38 0.77-0.8809 9.8709 3.7891 5.1609 3.955-1.7238 0.5761-5.8515-2.5078-5.5703zm293.67 0.32969c-7.73 7.87 10.76 3.02 0 0zm69.955 1.5672c-2.4348-0.009-5.5856 1.3866-6.775 3.1328 1.95 1.94 3.97 5.2 7.2 3.9 3.81-1.13-2.98-7.57 2.2-6.05-0.5594-0.68438-1.5183-0.97855-2.625-0.98282zm-189.3 4.1734c-1.32 0.03-2.03 0.69031-2.15 1.9703 3.14 6.8 13.31-0.76031 2.15-1.9703zm-333.05 9.9891c-0.42 0.1-1.2603 0.28031-1.6703 0.37031-4.52 9.52 12.76 3.7597 1.6703-0.37031zm-43.71 4.04c-1.57 0.08-3.0809 0.68062-4.4109 1.4906-1.5 11.5 16.651 3.7194 4.4109-1.4906zm519.11 0.3c-8.53 7.78 11.7 2.42 0 0zm-209.29 6.3969c-0.3336-0.0111-0.6884-0.01-1.0672 0.003-0.53 0.3-1.5997 0.9-2.1297 1.2 2.6544 10.598 13.538-0.85862 3.1969-1.2031zm145.68 6.1203c-0.4457 0.0199-0.8894 0.13376-1.3094 0.36251-5.14 2.07-1.0294 9.1509 4.0906 5.6609 3.5875-1.7062 0.3381-6.1623-2.7812-6.0234zm95.681 5.4625c-5.95 11.24 15.72 0.35 0 0zm-423.67 1.0297-0.92031 0.92031c1.64 9.15 11.22-1.1503 0.92031-0.92031zm-22.653 38.525c-2.029-0.0424-4.8666 0.86531-4.9766 1.9859 2.89 8.27 7.3294 1.9697 6.9094-1.2703-0.25625-0.48125-1.0106-0.69635-1.9328-0.71562zm391.05 7.92c-0.33 0.23-0.9997 0.67062-1.3297 0.89062-6.37 10.18 12.96 4.9994 1.3297-0.89062zm-463.77 0.42031c-6.27 9.94 15.8-0.1 0 0zm314.5 1.9c-0.42 0.07-1.2597 0.19938-1.6797 0.25938-5.59 12.75 15.31 4.6406 1.6797-0.25938zm52.17 2.8594c-0.9 0.62-3.4197 0.38062-2.9797 1.9406 1.31 10.38 13.88 0.82938 2.9797-1.9406zm-151.98 7.9594c-0.506-0.0158-1.0459 0.0856-1.5953 0.33125-6.08 2.33 1.4906 7.9697 4.4406 4.3797 0.9182-2.3644-0.6524-4.6423-2.8453-4.7109zm-122.19 11.02c-0.46765 0.0121-0.93938 0.11406-1.3781 0.32031-6.14 1.91 2.01 7.5597 4.35 3.5297 1.0156-2.2588-0.94542-3.9026-2.9719-3.85zm317.56 11.35c-7.35 8.15 12.6 2.24 0 0zm-266.78 2.2828c-0.70141-0.006-1.4375 0.19064-2.1641 0.65782-5.51 2.09-0.52031 9.2597 3.8297 6.3297 4.9191-1.0209 2.122-6.9544-1.6656-6.9875zm124.46 5.42c-0.93 0.58-1.8294 1.2-2.7094 1.85 3.61 9.18 15.309-0.56 2.7094-1.85zm38.93 12c-0.84 0.61-3.6197 0.41-2.8797 1.95 1.07 10.51 14.44 0.69 2.8797-1.95z"/>
</g>
<path fill="#fd5" d="m323.35 369.66c86.6 0.53 172.38-16.43 255.86-38.33-1.98 7.5-6.83 13.83-11.43 19.93-12.12-2.74-26.86-0.84-12.62 8.67-1.36 1.48-2.76 2.93-4.22 4.31-9.64 0.09-19.26-0.43-28.89-0.44-2.74 2.83 9.8 12.65 1.7 14.44-13.95-0.4-38.13-8.65-31.92 11.79-12-0.05-23.82-2.46-35.68-3.98-2.84 4.44-1.89 10.74-6.04 14.44-14.66-2.72-36.73-14.71-41.93 6.79-10.99-0.03-21.05-6.52-31.95-7.83-5.98 3.92-10.59 9.76-17.04 13.02-8.32-4.17-17.19-7.49-26.06-10.25-7.15 3.29-13.89 7.51-20.36 12-8.04-3.07-15.19-7.96-22.86-11.75-9.03 3.21-17.71 7.48-26.73 10.83-5.04-4.8-10.41-9.52-16.48-12.95-10.17 1.84-20.02 5.56-29.8 8.95-4.18-4.58-7.91-9.56-12.17-14.05-11.22 2-22.19 5.31-33.49 6.98-0.03-23.06-23.37-10.61-37.04-9.99-7.12 0.37-2.93-9.23-4.2-13.99-8.33 0.22-16.59 1.65-24.92 2.12-3.85-0.18-7.65-0.88-11.21-2.35 14.48-16.99-10.11-10.92-20.66-10.89-2.15-2.21-4.63-4.04-7.34-5.5 12.76-9.7-0.97-10.01-10.58-8.58-4.2-3.95-18.91-15.02-13.64-18.1 3.37 2.03 7.2 2.1 11.02 1.48 25.24 8.21 52.58 11.67 78.82 16.83 1.49 7.29 10.92 8.47 14.91 2.53 13.85 2.47 27.74 4.84 41.75 6.23-6.46 0.84-11.23 9.54-4.44 13.5 9.12 7.34 21.86-6.03 11.18-12.67 38.23 5.57 76.91 7.25 115.5 7.91-4.58 12.81 20.62 10.53 12.96-1.1m131.34-9.49c-8.09 3.28-1.14 14.74 6.29 9.96 8.74-2.72 0.6-13.88-6.29-9.96m-105.54 22.69c-7.92 8.06 8.74 15.82 13.29 7.49 4.77-6.06-5.12-11.41-10.41-9.44-0.84 0.61-3.62 0.41-2.88 1.95z"/>
<g>
<path fill="#dd86ba" d="m558.69 350.12c-8.5913-0.17577-14.213 2.6753-3.5328 9.8078 1.16 0.91 2.1506 2.02 3.0406 3.2-8.11 54.6-22.95 109.24-33.1 163.97 8.95-3.71 16.64-20.589 23.25-18.859 9.33-50.59 19.01-101.13 28.1-151.76 1.5-3.16 0.8306-4.9794-2.0094-5.4594-1.66 0.06-4.9909 0.17907-6.6609 0.23907-3.03-0.685-6.2238-1.0789-9.0875-1.1375zm-468.02 15.94c-5.5429-0.11153-12.847 1.0572-17.462 1.0703-1.73 0.02-5.18 0.0706-6.9 0.0906-1.49 0.28-2.9694 0.6-4.4094 1.05 15.48 80.99 32.31 161.75 47.95 242.69-8.83-0.93-17.279-3.9897-25.909-5.9297 1.34 10.74 4.5594 21.241 4.8594 32.091 7.33 8.26 18.95 10.099 29.07 12.939-1.79-12.7-6.2-25.009-6.75-37.859 9.86 0.18 19.26 3.5703 29.03 4.5703-14.99-78.6-33.51-156.69-47.05-235.51 0.12-1.11 0.38031-2.1891 0.77031-3.2391 8.145-9.5569 3.9281-11.818-3.1984-11.961zm410.9 10.208c-7.7644 0.14315-13.043 2.9038-9.7437 13.763-11.07 61.86-26.439 123.04-39.059 184.66 11.8-3.85 21.74-12.511 33.13-16.461-5.85 32.99-14.529 65.53-22.609 98.07 12.36-1.75 24.599-4.26 36.809-6.85-2.58-0.1-1.2606-2.9603-1.1906-4.5703 8.49-38.26 16.791-76.57 25.091-114.87-12.39 8.63-23.5 19.23-37.15 25.92 13.94-58.19 27-116.6 39.88-175.04 1.14-2.2-1.5997-2.09-2.9797-2.65-6.5391-0.18749-15.326-2.0997-22.177-1.9734zm-342.34 12.066c-7.7757-0.091-17.768 3.5784-25.03 3.9078-1.11 0.28-2.2003 0.60938-3.2703 1.0094 13.92 75.94 29.621 151.69 42.841 227.68-11.05-0.05-21.92-2.3-32.83-3.8 0.24 12.7 8.8691 27.14 4.8391 38.32 12.12 1.43 24.201 3.1697 36.341 4.4797-2.17-12.87-5.9809-25.59-6.9609-38.58 10.05 0.2 20.001 2.2097 30.091 1.9797 3.89 12.49 4.4297 25.86 6.6797 38.73 10.98 0.93 22.001 1.4912 33.011 1.9312-0.07-13.24-3.7009-26.291-3.6109-39.461 9.2-4.14 21.101-0.94907 31.261-2.1891 1.59 14.18 2.9 28.669 1.45 42.909 11.22-0.06 22.499-0.91062 33.689 0.25938-0.6-15.57 0.5506-31.309 1.6906-46.859 10.64-2.7 21.599-4.5094 32.539-5.4594-0.97 17.34-2.76 34.669-4.95 51.909 11.33 0.04 22.63-0.73938 33.95-1.1094 2.37-20.01 6.47-39.811 7.85-59.931-12.31 2.06-24.07 6.63-36.5 8.1 5.75-66.55 11.701-133.09 16.881-199.69-8.32-4.17-17.191-7.49-26.061-10.25-7.15 3.29-13.889 7.51-20.359 12-1.66 67.75-2.6903 135.52-3.6703 203.29-11.37 3.53-23.89 3.8403-35.82 4.3703-4.05-69.47-7.13-139.04-10.1-208.58-5.04-4.8-10.41-9.52-16.48-12.95-10.17 1.84-20.02 5.56-29.8 8.95 8.62 71.47 16.019 143.14 23.959 214.67-11.17-3.24-37.77 9.2003-36.78-10.23-10.47-70.57-23.339-140.82-32.839-211.51-0.0141-10.809-5.15-13.817-12.011-13.897zm263.43 6.3781c-6.6999 0.16659-12.205 3.1625-14.48 12.569-10.26 64.98-19.779 130.18-28.289 195.43 11.61-2.1 22.339-7.6 33.859-9.8-3.6 23.16-10.09 45.9-12.43 69.22 12.35-0.46 24.679-1.45 36.989-2.6-5.33 0.05-1.89-7.3-1.95-10.15 5.31-24.4 10.53-48.81 15.8-73.22-12.67 5.44-25.159 11.431-38.269 15.711 12.47-63.71 24.739-127.48 36.219-191.38-8.2463-1.53-18.836-5.9939-27.45-5.7797z"/>
<path fill="#e9afd1" d="m40.273 352.02c-1.8586-0.0422-3.6681 0.2222-3.0531 2.7422 15.65 83.4 31.36 166.81 46.72 250.27 8.63 1.94 17.079 4.9997 25.909 5.9297-15.64-80.94-32.47-161.7-47.95-242.69 0.96437-0.30137 1.9494-0.53352 2.9406-0.74531-4.0824 0.4757-2.7129-3.8251 1.0297-5.8953 12.76-9.7-0.96969-10.01-10.58-8.5797-4.42-0.28-8.8212-0.72938-13.231-0.95938-0.5425-0.01-1.1664-0.0594-1.7859-0.0734zm24.568 15.5c0.43347-0.0505 0.90819-0.13767 1.4688-0.30469-0.49215 0.0925-0.97988 0.20023-1.4688 0.30469zm493.36-4.39c-2.43 0.4-4.8494 0.76093-7.2594 1.1109-9.64 0.09-19.261-0.43062-28.891-0.44062-2.74 2.83 9.8 12.651 1.7 14.441 1.38 0.56 4.1197 0.45 2.9797 2.65-12.88 58.44-25.94 116.85-39.88 175.04 13.65-6.69 24.76-17.29 37.15-25.92 0.36-0.98 0.73-1.9494 1.1-2.9094 10.15-54.73 24.99-109.37 33.1-163.97zm-428.2 15.12c-8.33 0.22-16.59 1.6503-24.92 2.1203-3.99 0.29-7.9897 0.54907-11.98 0.88907 13.54 78.82 32.06 156.91 47.05 235.51l0.79062 0.35938c10.91 1.5 21.78 3.75 32.83 3.8-13.22-75.99-28.921-151.74-42.841-227.68 1.07-0.4 2.1603-0.72938 3.2703-1.0094-7.12 0.37-2.93-9.2306-4.2-13.991zm326.15 7.8c-2.84 4.44-1.8906 10.741-6.0406 14.441-11.48 63.9-23.749 127.67-36.219 191.38 13.11-4.28 25.599-10.271 38.269-15.711 0.15-0.37 0.4609-1.0988 0.6109-1.4688 12.62-61.62 27.989-122.8 39.059-184.66-12-0.05-23.82-2.4597-35.68-3.9797zm-251.42 9.2c-11.22 2-22.189 5.3097-33.489 6.9797 9.5 70.69 22.369 140.94 32.839 211.51-0.99 19.43 25.61 6.9897 36.78 10.23-7.94-71.53-15.34-143.2-23.96-214.67-4.18-4.58-7.9103-9.56-12.17-14.05zm171.5 4.2c-5.98 3.92-10.589 9.7603-17.039 13.02-5.18 66.6-11.131 133.14-16.881 199.69 12.43-1.47 24.19-6.04 36.5-8.1 0.27-0.34 0.8112-1.02 1.0812-1.35 8.51-65.25 18.029-130.45 28.289-195.43-10.99-0.03-21.05-6.5197-31.95-7.8297zm-86.32 3.0203c-9.03 3.21-17.71 7.4797-26.73 10.83 2.97 69.54 6.05 139.11 10.1 208.58 11.93-0.53 24.45-0.84031 35.82-4.3703 0.98-67.77 2.0103-135.54 3.6703-203.29-8.04-3.07-15.191-7.96-22.861-11.75z"/>
<path fill="#d873af" d="m547.1 508.13c-6.3241 0.44261-13.608 15.495-21.998 18.973-0.37 0.96-0.74 1.9294-1.1 2.9094-8.3 38.3-16.601 76.61-25.091 114.87-0.07 1.61-1.3894 4.4703 1.1906 4.5703 8.74-2.62 18.5-4.9306 25.02-11.791 6.42-43.34 15.67-86.249 23.23-129.42-0.4131-0.10812-0.83-0.14356-1.2516-0.11406zm-61.2 50.1c-11.39 3.95-21.33 12.611-33.13 16.461-0.15 0.37-0.4609 1.0988-0.6109 1.4688-5.27 24.41-10.49 48.82-15.8 73.22 0.06 2.85-3.38 10.2 1.95 10.15 8.35-0.82 16.721-1.6497 24.981-3.2297 8.08-32.54 16.759-65.08 22.609-98.07zm-72.15 34.68c-11.52 2.2-22.249 7.7-33.859 9.8-0.27 0.33-0.8112 1.01-1.0812 1.35-1.38 20.12-5.48 39.921-7.85 59.931 10.12-0.12 20.381 0.11907 30.361-1.8609 2.34-23.32 8.8297-46.06 12.43-69.22zm-302.63 19.29c0.55 12.85 4.96 25.159 6.75 37.859 9.1 2.67 18.509 4.1606 27.909 5.3906 4.03-11.18-4.5991-25.62-4.8391-38.32l-0.79-0.36c-9.77-1-19.17-4.3903-29.03-4.5703zm230.84 0.99062c-10.94 0.95-21.899 2.7594-32.539 5.4594-1.14 15.55-2.2906 31.289-1.6906 46.859 0.7 0.13 2.1 0.37062 2.8 0.49062h10.2c5.41-0.54 10.84-0.86 16.28-0.9 2.19-17.24 3.98-34.569 4.95-51.909zm-166.8 8.16c0.98 12.99 4.7909 25.71 6.9609 38.58 9.91 1.09 19.839 1.8997 29.809 2.1297-2.25-12.87-2.7897-26.24-6.6797-38.73-10.09 0.23-20.041-1.7797-30.091-1.9797zm79.423 0.97031c-4.6868-0.01-9.2281 0.39813-13.253 2.2094-0.09 13.17 3.5409 26.221 3.6109 39.461 9.67 0.88 19.39 1.1894 29.1 1.2594 1.45-14.24 0.14-28.729-1.45-42.909-5.715 0.69751-11.982-0.007-18.008-0.0203z"/>
</g>
</svg>
