<?xml version="1.0" encoding="UTF-8" standalone="no"?>
<svg id="svg2" xmlns:rdf="http://www.w3.org/1999/02/22-rdf-syntax-ns#" xmlns="http://www.w3.org/2000/svg" height="1074pt" width="848pt" version="1.1" xmlns:cc="http://creativecommons.org/ns#" xmlns:dc="http://purl.org/dc/elements/1.1/" viewBox="0 0 848 1074">
<g id="g4329" transform="translate(-1600)">
<path id="rect4326" d="m1963.1 4.6109c-14.067 0.094922-28.132 1.2344-42.061 3.4687 15.9 20.16 31.631 47.15 22.061 74.07-12.26 35.35-48.871 54.631-83.341 62.841-74.1 10.14-120.26 80.389-146.89 144.04-1.64 1.5-3.7103 5.44-1.0703 6.95-23.92 14.76-26.121 46.15-26.861 69.97-27.78 16.89-50.739 43.93-60.919 75.12-1.63 9.07-5.7098 20.419-0.091 28.909-2.5 3.65 1.7103 7.1209 0.3703 10.811-4.73 3.77-2.6309 10.81-6.1609 15.43-5.43 9.12 3.47 27.649-9.95 27.739-5.49-0.1-4.2888 3.6403 0.5312 3.2703 46.23 168.29 90.369 337.33 136.19 505.7 2.45 4.24 6.68 7.0206 11.35 8.2906 3.84 2.68 10.4 4.9897 15.72 5.5797 5.97 3.31 13.631 3.0506 20.091 5.3906 8.98 1.16 17.82 3.4391 26.9 3.7891 6.56 2.57 16.12 2.8097 23.88 3.0797 9.58 1.75 19.35 2.0406 29.02 2.9406 7.92 1.72 16.159 1.3594 24.219 1.9594 11.03 0.73 22.09 0.8906 33.1 1.9406 8.28-0.2 16.491 0.9397 24.761 1.2297 4.39 0.01 8.7797-0.2894 13.18-0.4094 6.93 0.74 13.899 0.2094 20.859 0.2594 5.02 2.47 14.221 0.5303 20.711 0.8203 10.92-2.01 22.18-0.12 33.23-0.85 4.86 2.99 15.149 0.1197 21.659 1.1297 11.55-1.94 23.621-1.54 35.381-2.15 7.7 0.68 15.36-1.1 23.08-0.8 10.66-0.47 21.299-1.4497 31.939-2.2797 7.02 0.25 14.661-0.59 21.191-1.65 9.11-1.33 19.751-1.4603 27.741-3.2703 8.99-0.5 19.119-1.5403 27.159-3.9203 7.69-0.92 15.599-3.0591 22.959-4.6391 5.14-1.4 10.301-2.9797 15.191-5.1297 4.57-2.43 10.309-4.4203 12.609-9.4703 52.39-168.79 103.03-338.21 156.26-506.74 6.06 0.53 8.91-3.1103 1.45-4.1203 0.69-2.38-8.3209-0.36-8.6109-4.25-1-15.98-1.2994-34.1-12.159-46.9 17.72-40.53-9.56-86.17-47.95-101.8 1.08-1.36 1.29-3.1591 1.25-4.8391 4.25-12.21-1.68-26.471-10-36.211-16.49-17.71-39.63-27.369-62.65-33.309-7.85-30.06-21.341-58.419-36.691-85.359-29.27-52-62.419-103.86-110.32-140.68-52.7-42.64-120.5-66.447-188.3-65.99z" fill="#ffa1e3"/>
<path id="path4" d="m1600 0v0.77969c0.2-0.2 0.6-0.58969 0.8-0.77969h-0.8zm8.7406 527.23c46.23 168.29 90.369 337.33 136.19 505.7 2.45 4.24 6.68 7.0206 11.35 8.2906-41.63-166.46-89.51-331.73-132.17-498.02-0.22-2.9 1.63-5.1603 4.15-6.3203 0.28-1.94 0.56-3.8794 0.85-5.8094-6.85-0.94-13.579-2.5806-20.369-3.8406zm794.58 14.717c-3.7972 0.0378-7.5934 0.22875-11.373 0.54375-0.09 3.03-0.081 6.1488-0.091 9.2188 1.53 1.85 3.2803 4.2303 1.1703 6.4203-47.94 162.19-93.88 325.08-141.45 487.44-0.79 1.63-0.4303 3.28 1.4797 3.8 5.14-1.4 10.301-2.9797 15.191-5.1297 52.13-166.73 103.31-333.9 154.01-501.09-6.275-0.90625-12.607-1.2661-18.936-1.2031zm-720.89 12.083c-8.8617 0.0544-21.715 5.2228-29.405 5.1609 39.59 162.55 79.72 324.98 118.97 487.61 5.97 3.31 13.631 3.0506 20.091 5.3906-31.65-161.36-67.011-322.84-100.53-484.14 2.2444-11.012-2.2326-14.063-9.125-14.02zm631.45 6.7609c-0.39 2.69-0.6891 5.47-1.0391 8.2-0.16 1.55-0.4909 4.6594-0.6609 6.2094-35.76 161.03-73.729 321.65-109.24 482.73 8.99-0.5 19.119-1.5403 27.159-3.9203 41.49-162.25 84.7-324.1 126.9-486.16-14.46-1.78-28.78-4.5594-43.12-7.0594zm-539.7 5.1578c-0.6851-0.0504-1.5657 0.11406-2.6969 0.55156-12.33 2.45-24.52 5.5997-36.7 8.6797 27.89 160.29 55.971 320.57 84.211 480.8 6.56 2.57 16.12 2.8097 23.88 3.0797-21.9-158.67-42.7-317.48-64.4-476.15-0.34-1.4 0.17-2.7194 0.6-4.0094-4.7512-1.7412 0.022-12.64-4.7734-12.992zm453.8 3.95c0.08 3.05 0.4803 6.3194-0.9797 9.1594 0.93 2 2.5397 4.1709 1.2797 6.4109-24.87 159.08-50.84 318.1-74.17 477.38 7.02 0.25 14.661-0.59 21.191-1.65 31.42-160.36 62.21-320.83 93.95-481.12-13.56-4.11-27.57-6.5597-41.27-10.18zm-367.02 4.0594c-13.75 3.47-27.649 6.79-41.089 11.3 17.73 158.87 33.97 317.92 52.12 476.74 7.92 1.72 16.159 1.3594 24.219 1.9594-10.16-158.86-21.17-318.14-29.15-476.87-4-3.01-3.01-9.3412-6.1-13.131zm284.42 1.7203c-14.32 163.34-31.219 326.83-46.289 490.25 7.7 0.68 15.36-1.1 23.08-0.8 22.07-162.36 43.669-324.8 65.109-487.24-3.11 2.08-3.4 6.1191-5.55 8.9391-12.58-1.65-24.07-11.31-36.35-11.15zm-244.96 0.83125c-0.1996 0.005-0.406 0.025-0.6188 0.0594 3.78 6.59 2.0094 14.539 2.9594 21.759 8.91 155.85 17.08 311.77 26.55 467.57 8.28-0.2 16.491 0.9397 24.761 1.2297l0.25-0.8797c-3.09-47.66-1.3903-99.349-4.1703-148.41-0.56-113.06-7.2597-226.16-6.1297-339.17-10.24 0.87-20.09 6.94-30.17 10.1-7.1978 0.92031-7.2441-12.424-13.431-12.259zm204.84 1.7484c-7.14 1.7-10.559 14.96-18.839 10.55-7.25-3.08-14.14-6.9497-21.48-9.8297-8.49 162.61-15.041 325.33-22.891 487.97 4.86 2.99 15.149 0.1197 21.659 1.1297 0.73-1.32 1.5509-2.61 1.9609-4.05 12.96-161.94 26.459-323.84 39.589-485.77zm-80.1 1.32c-7.97 0.71-14.11 8.8309-22 11.261-6.67-2.85-12.12-8.0309-18.72-11.061 1.34 162.38 2.1097 324.79 3.7297 487.2 5.02 2.47 14.221 0.5303 20.711 0.8203 5.64-162.73 9.9697-325.54 16.28-488.22z" fill="#f94bbc"/>
<path id="path6" d="m1921.1 8.08c81.04-13 166.7 11.04 230.38 62.48 47.9 36.82 81.05 88.68 110.32 140.68 15.35 26.94 28.84 55.3 36.69 85.36 23.02 5.94 46.16 15.6 62.65 33.31 8.32 9.74 14.25 24 10 36.21 2.72-16.42-21.85-24.8-30.17-10.99-8.52 11.88 3.91 28.84 17.97 24.78-13.73 6.94-29.52 7.53-44.48 9.59-50.72 2.69-101.34-4.1-151.22-12.69-54.8-9.68-110.87-10.74-166.21-5.83-68.34 8.54-136.75 22.18-205.94 17.03 12.15-9.5 3.96-31.62-12.01-29.02-13.93 0.47-18.47 17.14-11.3 27.2-27.65-2.48-55.31-7.69-80.7-19.29-0.52-0.24-1.56-0.71-2.08-0.95 0.74-23.82 2.94-55.21 26.86-69.97-2.64-1.51-0.57-5.45 1.07-6.95 0.82 6.26 6.18-1.46 8.9-2.94 5.91 6.91 16.25 5.11 20.56-2.27 28.57-4.35 57.07-10.02 86.05-11.76 3.42-0.07 6.87 0.01 10.3-0.03 46.22-1.59 92.48 2.76 137.88 11.41 53.21 8.32 103.75 28.56 157.18 35.61-0.17-1.69-0.45-3.37-0.67-5.05l0.77-0.32c2.65 14.75 24.33 16.56 31.32 4.16 33.19 8.6 69.52 3.32 101.46-7.79 8.41 2.77 17.5-5.48 14.48-13.89-2.07-8.21-11.66-9.48-18.26-6.37-64.5-12.6-127.78-31.47-190.95-49.67-2.8-0.12-5.48-1.35-5.93-4.19 5.42-9.09 0.07-22.88-10.95-23.92-9.99-2.71-18.85 5.65-20.38 15.07-38.06-10.07-74.8-25.32-111.14-40.55-2.28-0.66-3.53-2.73-3.65-5.01-0.02-1.48-0.06-4.46-0.07-5.95 4.45 1.77 9.48 6.05 14.19 2.44 38.6-19.25 57.47-66.32 49.61-107.56-7.18-24.12-23.71-45.54-46.52-56.55 20.09 20.96 36.13 52.58 22.09 81.31-11.85 30.3-42.48 45.73-70.82 57.24 1.96 6.86 11.2 13.55 18.77 14.58-3.77 1.45-6.91 4.08-9.47 7.17-13.94-7.63-28.53-15.99-37.86-29.21 34.47-8.21 71.08-27.49 83.34-62.84 9.57-26.92-6.16-53.91-22.06-74.07m289.36 218.23c-10.26 0.67-13.4 16.23-4.34 20.78 6.55 4.53 17.76-0.59 16.97-8.99 1.45-7.23-6.17-12.73-12.63-11.79m-226.75 67.09c-13.7 2.08-9.26 25.09 4.82 21.54 15.02-1.7 9.82-26.54-4.82-21.54z" fill="#feb6dc"/>
<path id="path8" d="m1937.1 13.9c20.09 20.96 36.129 52.579 22.089 81.309-11.85 30.3-42.479 45.731-70.819 57.241 1.96 6.86 11.199 13.55 18.769 14.58 5.65-0.12 11.251 2.7306 12.681 8.5406 4.45 1.77 9.4791 6.0491 14.189 2.4391 38.6-19.25 57.471-66.319 49.611-107.56-7.18-24.12-23.71-45.54-46.52-56.55zm-51.708 221.81c-17.311 0.13166-34.589 1.6891-51.642 4.9109 17.98-1.61 22.76 27.039 4.9797 31.409 46.22-1.59 92.48 2.7609 137.88 11.411 53.21 8.32 103.75 28.559 157.18 35.609-0.17-1.69-0.4488-3.37-0.6688-5.05 0.1-3.32-0.3006-6.6297-3.8906-7.2297-44.71-15.56-85.69-40.301-131.18-53.791-36.334-10.952-74.574-17.56-112.66-17.27zm-61.503 7.05c-28.35 6.25-58.479 15.08-81.939 32.35 0.96 2.82 0.8497 5.8009 0.4297 8.7109 28.57-4.35 57.07-10.021 86.05-11.761-12.36-4.37-15.111-21.37-4.5406-29.3zm-136.9 124.14c3.38 8.53 7.4297 19.11 17.18 21.88 28.18 12.61 59.16 17.31 89.8 18.28 45.98 0.14 93.43-0.18969 138.1-10.98 1.09-15.73 24.179-17.869 31.459-5.1391 47.36-6.67 95.42-13.721 143.25-6.7609 39.56 3.59 77.371 18.55 117.21 19.58 4.83-1.14 10.1-1.0394 14.25 1.9906 39.05 1.2 81.19 1.6003 116.33-18.13 3.14-3.01 9.1497-4.99 9.2797-10-1.66 0.8-3.31 1.5991-5 2.2891-13.73 6.94-29.52 7.5306-44.48 9.5906-50.72 2.69-101.34-4.1006-151.22-12.691-54.8-9.68-110.87-10.74-166.21-5.8297-68.34 8.54-136.75 22.18-205.94 17.03-7.39 4.54-16.509 3.3312-23.309-1.8188-27.65-2.48-55.31-7.6906-80.7-19.291zm-63 103.08c-2.5 3.65 1.7103 7.1209 0.3703 10.811 5.81 17.08 26.359 26.879 43.609 22.239 80.55-16.66 164.23-5.3203 242.35 17.73 92.22 21.56 188.18 16.331 281.91 10.081-100.37-8.94-201.38-19.001-298.71-46.341-70-17.36-144.43-17.36-213.47 4.4297-20.64 8.22-46.859 3.03-56.059-18.95z" fill="#ffd3ea"/>
<path id="path12" d="m1907.1 167.03c-3.77 1.45-6.9088 4.0803-9.4688 7.1703-5.16 14.59 18.209 21.68 22.219 7.3203-0.02-1.48-0.059-4.46-0.069-5.95-1.43-5.81-7.0312-8.6606-12.681-8.5406zm-2.3469 3.5969c3.8163 0.0475 5.7544 5.0809 2.4469 7.7641-4.43 3.27-10.679-4.7912-4.7391-7.2312 0.8141-0.37969 1.5855-0.54161 2.2922-0.53282zm146.59 40.867c-8.4093-0.0865-15.36 7.3434-16.698 15.586-0.53 16.25 23.72 22.26 31.33 8.85 5.42-9.09 0.07-22.88-10.95-23.92-1.2488-0.33876-2.4799-0.50327-3.6813-0.51563zm-5.8906 4.8344c0.2125 0.005 0.4291 0.0219 0.6516 0.0516 8 0.29 7.0306 14.37-1.8094 11.6-7.1591-0.62969-5.4303-11.817 1.1578-11.652zm166.18 9.8797c-0.4103 0.01-0.8181 0.0428-1.2219 0.10156-10.26 0.67-13.401 16.231-4.3406 20.781 6.55 4.53 17.76-0.59062 16.97-8.9906 1.3594-6.7781-5.2531-12.036-11.408-11.892zm-3.3922 3.5969c4.0541 0.0878 5.5934 7.4053 0.5797 8.2453-4.95 1.44-7.5294-6.92-2.4594-7.8 0.67-0.3225 1.3005-0.45785 1.8797-0.44531zm-372.88 10.752c-0.5358-0.007-1.085 0.0137-1.6469 0.0641-3.31 0.66-6.5709 1.4091-9.8609 2.1391-10.57 7.93-7.8194 24.93 4.5406 29.3 3.42-0.07 6.87 0.0103 10.3-0.0297 17.224-4.2334 13.277-31.253-3.3328-31.473zm-7.7828 4.5766c5.6759 0.1616 8.9687 8.9266 2.875 11.767-8.63 3.82-12.229-9.9397-4.0391-11.68 0.3975-0.07 0.7857-0.0983 1.1641-0.0875zm-95.114 23.112c-8.3493-0.32285-17.348 8.4403-10.68 17.845 5.91 6.91 16.249 5.1097 20.559-2.2703 0.42-2.91 0.5303-5.8909-0.4297-8.7109-1.9937-4.6938-5.6548-6.7173-9.45-6.8641zm-5.975 3.5516c3.3608 0.11169 7.0531 2.6888 3.925 6.3938-3.21 5.62-11.611-2.1509-6.1109-6.0609 0.6525-0.25313 1.4103-0.35859 2.1859-0.33282zm543.11 16.439c-2.3257 0.0383-4.6812 0.58281-6.7437 1.5547-6.25 5.95-4.8788 17.449 3.7812 20.259 8.41 2.77 17.5-5.4806 14.48-13.891-1.4231-5.6444-6.4005-8.0077-11.517-7.9234zm-3.5453 2.9562c4.2884-0.2266 6.1228 7.081 1.3219 8.2875-4.12 2.95-8.2697-5.33-3.9297-7.3 0.9359-0.64531 1.8137-0.94554 2.6078-0.98751zm-278.53 1.5453c-1.1977-0.0121-2.4869 0.19375-3.8594 0.6625-13.7 2.08-9.2597 25.091 4.8203 21.541 13.612-1.5406 10.617-22.086-0.9609-22.203zm163.27 1.3531c-1.5622-0.0528-3.1715 0.15-4.7953 0.65-8.78 1.84-13.141 10.499-12.141 18.939 2.65 14.75 24.33 16.561 31.32 4.1609 5.1625-10.526-3.4487-23.381-14.384-23.75zm-168.17 2.1875c3.5691-0.13306 5.344 5.9484 1.9437 7.5516-5.39 3.77-9.2806-4.8903-4.0906-6.7703 0.7625-0.51876 1.4859-0.75661 2.1469-0.78125zm161.69 2.6734c5.6921 0.0696 8.1759 9.5241 2.0859 11.898-8.13 3.68-11.68-9.93-3.95-11.6 0.6516-0.21187 1.2752-0.30564 1.8641-0.29844zm209.19 49.228c-4.9318 0.0778-9.7119 2.2028-12.572 6.95-8.52 11.88 3.9103 28.84 17.97 24.78 1.69-0.69 3.34-1.4891 5-2.2891 1.99-2.21 3.99-4.4209 5.95-6.6609 1.08-1.36 1.29-3.1591 1.25-4.8391 1.785-10.776-8.1832-18.089-17.598-17.941zm-4.4297 4.6766c5.5298 0.24883 7.8656 9.0919 2.1781 11.603-7.67 4.37-13.14-9.6491-4.7297-11.139 0.9063-0.35875 1.7616-0.49961 2.5516-0.46406zm-567.13 5.9266c-0.9343-0.0215-1.9018 0.0453-2.9 0.2078-13.93 0.47-18.47 17.14-11.3 27.2 6.8 5.15 15.919 6.3588 23.309 1.8188 11.391-8.9062 4.9048-28.904-9.1094-29.227zm-6.9562 5.0156c5.4996 0.0211 8.3065 8.0822 2.6453 10.961-6.77 5.21-13.96-8.5191-5.15-10.439 0.8787-0.36375 1.719-0.52488 2.5047-0.52187zm173.13 18.866c-7.8056 0.0204-15.379 4.5675-15.992 13.416-2.42 12.31 11.189 22.021 22.459 17.141 9.46-2.97 11.39-13.91 9-22.28-3.185-5.5694-9.3962-8.2924-15.467-8.2766zm-5.7984 4.2875c5.6921 0.0696 8.1759 9.5241 2.0859 11.898-8.13 3.68-11.68-9.93-3.95-11.6 0.6516-0.21187 1.2752-0.30564 1.8641-0.29844zm287.26 16.138c-1.8528-0.0104-3.7247 0.24281-5.536 0.67032-8.67 4.8-7.3412 20.06 3.4688 21.15 11.24 2.48 17.601-11.269 10.781-19.159-2.5937-1.8938-5.6261-2.6437-8.714-2.6609zm-4.6188 3.9938c14.565-0.35299-8.0187 15.578-1.5281 0.0875 0.5494-0.0469 1.0583-0.0761 1.5281-0.0875zm-119.78 12.723c-1.5251-0.0343-3.0469 0.13906-4.5063 0.54375-12.13 1.73-16.89 19.681-6.95 26.991 9.18 10 29.479 1.9594 27.309-12.291 0.7256-8.8003-7.6175-15.058-15.853-15.244zm-450.7 4.6172c-1.4659-0.0838-3.0443 0.18094-4.7031 0.88594-14.76 3.57-6.2703 27.881 7.9297 20.841 11.786-3.465 7.0353-21.14-3.2266-21.727zm444.93 0.0969c5.9646 0.17159 7.9515 10.585 0.9953 11.889-7.01 2.5-10.69-8.6897-3.7797-11.28 1-0.45 1.9323-0.63389 2.7844-0.60938zm-450.43 3.2469c3.6068 0.0647 6.2622 5.895 2.6922 8.0125-5.46 3.11-9.4997-5.3694-4.2797-7.6594 0.5388-0.25375 1.0723-0.36236 1.5875-0.35313zm199.95 4.5266c-15.291-0.0522-11.425 25.109 2.6703 22.397 13.76-1.25 12.81-22.621-1.1297-22.311-0.5334-0.0559-1.0473-0.0843-1.5406-0.0859zm-2.7938 3.5125c3.8138 0.1631 5.7516 6.2616 1.4641 8.0641-4.87 1.99-8.1-5.6806-3.2-7.7406 0.6088-0.24875 1.1911-0.34674 1.7359-0.32344zm508.52 7.3797c-0.7136 0.019-1.4371 0.1075-2.1656 0.27344-8.46 0.24-12.34 11.9-6.8703 17.77 5.34 7.06 18.68 4.3503 20.3-4.6297 1.5135-7.2138-4.3654-13.598-11.264-13.414zm-3.8843 3.3703c3.8341 0.15937 5.9031 6.4712 1.5578 7.9141-4.51 2.68-9.2791-5.34-3.8391-7.3 0.8016-0.46249 1.5712-0.64357 2.2813-0.61406z" fill="#fc0001"/>
<path id="path14" d="m1904.8 170.63c-0.7067-0.009-1.4781 0.15313-2.2922 0.53282-5.94 2.44 0.3091 10.501 4.7391 7.2312 3.3075-2.6831 1.3694-7.7166-2.4469-7.7641zm140.7 45.702c-6.5881-0.16509-8.3169 11.022-1.1578 11.652 8.84 2.77 9.8094-11.31 1.8094-11.6-0.2225-0.0297-0.4391-0.0462-0.6516-0.0516zm162.79 13.477c-0.5792-0.0125-1.2097 0.12281-1.8797 0.44531-5.07 0.88-2.4906 9.24 2.4594 7.8 5.0137-0.84 3.4744-8.1575-0.5797-8.2453zm-380.67 15.328c-0.3784-0.0108-0.7666 0.0175-1.1641 0.0875-8.19 1.74-4.5909 15.5 4.0391 11.68 6.0937-2.8406 2.8009-11.606-2.875-11.767zm-101.09 26.664c-0.7756-0.0258-1.5334 0.0797-2.1859 0.33282-5.5 3.91 2.9009 11.681 6.1109 6.0609 3.1281-3.705-0.5642-6.2821-3.925-6.3938zm539.56 19.395c-0.7941 0.042-1.6719 0.3422-2.6078 0.98751-4.34 1.97-0.1903 10.25 3.9297 7.3 4.8009-1.2066 2.9665-8.5141-1.3219-8.2875zm-283.43 5.086c-0.661 0.0246-1.3844 0.26249-2.1469 0.78125-5.19 1.88-1.2994 10.54 4.0906 6.7703 3.4003-1.6031 1.6254-7.6846-1.9437-7.5516zm161.69 2.6734c-0.5889-0.007-1.2125 0.0866-1.8641 0.29844-7.73 1.67-4.18 15.28 3.95 11.6 6.09-2.3744 3.6062-11.829-2.0859-11.898zm204.76 53.905c-0.79-0.0356-1.6453 0.10531-2.5516 0.46406-8.41 1.49-2.9403 15.509 4.7297 11.139 5.6875-2.5112 3.3517-11.354-2.1781-11.603zm-574.09 10.942c-0.7857-0.003-1.626 0.15812-2.5047 0.52187-8.81 1.92-1.62 15.649 5.15 10.439 5.6612-2.8788 2.8543-10.94-2.6453-10.961zm167.33 23.153c-0.5889-0.007-1.2125 0.0866-1.8641 0.29844-7.73 1.67-4.18 15.28 3.95 11.6 6.09-2.3744 3.6062-11.829-2.0859-11.898zm282.64 20.131c-0.4698 0.0114-0.9787 0.0406-1.5281 0.0875-6.4906 15.49 16.093-0.44048 1.5281-0.0875zm-125.55 17.437c-0.8521-0.0245-1.7844 0.15938-2.7844 0.60938-6.91 2.59-3.2303 13.78 3.7797 11.28 6.9562-1.3038 4.9693-11.717-0.9953-11.889zm-450.43 3.2469c-0.5152-0.009-1.0487 0.0994-1.5875 0.35313-5.22 2.29-1.1803 10.769 4.2797 7.6594 3.57-2.1175 0.9146-7.9478-2.6922-8.0125zm197.16 8.0391c-0.5448-0.0233-1.1271 0.0747-1.7359 0.32344-4.9 2.06-1.67 9.7306 3.2 7.7406 4.2875-1.8025 2.3497-7.901-1.4641-8.0641zm504.64 10.75c-0.7101-0.0295-1.4797 0.15157-2.2813 0.61406-5.44 1.96-0.6709 9.98 3.8391 7.3 4.3453-1.4428 2.2763-7.7547-1.5578-7.9141z" fill="#fa8283"/>
<path id="path86" d="m2356 508.03c22.85-6.78 52.04-9.62 61.78-35.27 10.86 12.8 11.16 30.92 12.16 46.9 0.29 3.89 9.3 1.87 8.61 4.25-7.42-0.18-14.79 1.39-21.71 3.97-46.66 6.88-89.84 29.22-136.9 34.23-3.22-0.24-9.67-3.33-8.81 1.85-9.67 2.74-20.21 4.39-30.26 3.09-4.43-0.76-14.76-5.52-13.01 2.85-9.71-0.25-19.37 0.84-29.04 1.38-4.16-0.36-9.94-4.92-11.9 0.91-10.74-0.23-21.47-0.27-32.19 0.02-4.42-1.32-9.58-5.4-11.83 0.92-11.12 0.27-22.38-1.2-33.4 0.71-1.72 0.02-3.44 0-5.15-0.03-12.81-1.43-25.7-0.59-38.55-0.98-0.43-0.01-1.3-0.05-1.74-0.06-126.7-0.7-254.61-0.97-378.95-28.39-10.04-1.43-19.7-5.04-29.91-5.27 0.36-2.1-1.47-2.14-3.01-2.35-7.09-2.91-15.04-3.16-22.27-5.85-2.36-6.91-15.24-5.31-21.73-6.95 13.42-0.09 4.52-18.62 9.95-27.74 3.53-4.62 1.43-11.66 6.16-15.43 5.81 17.08 26.36 26.88 43.61 22.24 80.55-16.66 164.23-5.32 242.35 17.73 92.22 21.56 188.18 16.33 281.91 10.08 54.87-4.31 109.78-11.99 163.83-22.81z" fill="#d99029"/>
<path id="path88" d="m2437.2 523.9c-6.9489 0.0336-13.833 1.5641-20.32 3.9828-46.66 6.88-89.84 29.22-136.9 34.23-3.22-0.24-9.6694-3.33-8.8094 1.85-9.67 2.74-20.209 4.3906-30.259 3.0906-4.43-0.76-14.761-5.52-13.011 2.85 13.7 3.62 27.71 6.0697 41.27 10.18 0.45-1.97 0.7-3.9703 0.9-5.9703 0.35-2.77 0.65-5.5997 1.05-8.3297 13.78 2.69 27.49 5.8603 41.08 9.4203 0.17-1.55 0.5009-4.6594 0.6609-6.2094 0.35-2.73 0.6491-5.51 1.0391-8.2 14.34 2.5 28.66 5.2794 43.12 7.0594 0.25-1.75-0.4003-3.4306-0.9203-5.0406-0.01-2.93 0.4706-5.8588 0.8406-8.7188 12.08 0.83 24.079 2.5791 36.109 4.0391 2.11-2.19 0.3597-4.5703-1.1703-6.4203 0.01-3.07 0.0006-6.1888 0.091-9.2188 10.08-0.84 20.269-0.79062 30.309 0.65938 6.35 1.36 1.3603-5.4194-1.3797-6.9594-0.73-1.36-1.4303-2.7309-2.0703-4.1109 6.06-1.49 12.121-3.09 18.311-4.05 6.06 0.53 8.91-3.1103 1.45-4.1203-0.4637-0.0113-0.9273-0.0148-1.3906-0.0125zm-209.3 46.003c-9.71-0.25-19.369 0.83969-29.039 1.3797-4.16-0.36-9.94-4.9191-11.9 0.91093-10.74-0.23-21.471-0.27124-32.191 0.0188-4.42-1.32-9.5797-5.3997-11.83 0.92031-11.12 0.27-22.38-1.1991-33.4 0.71093-1.72 0.02-3.44-0.001-5.15-0.0312-12.81-1.43-25.7-0.58969-38.55-0.97969-0.43-0.01-1.3006-0.0494-1.7406-0.0594-126.7-0.7-254.61-0.97062-378.95-28.391-10.04-1.43-19.699-5.0403-29.909-5.2703 0.36-2.1-1.4709-2.14-3.0109-2.35-7.09-2.91-15.039-3.16-22.269-5.85-2.36-6.91-15.241-5.31-21.731-6.95-5.49-0.1-4.2888 3.6403 0.5312 3.2703 6.79 1.26 13.519 2.9006 20.369 3.8406-0.29 1.93-0.57 3.8694-0.85 5.8094-2.52 1.16-4.37 3.4203-4.15 6.3203 9.54-0.91 19.131-1.6006 28.711-1.0406 0.02 5.66-0.9406 11.401 0.2094 17.031 13.67 0.11 43.66-16.311 38.53 8.8594 13.97-2.88 28.071-6.1503 42.211-7.6203 0.42 4.91 0.4694 9.83 1.0094 14.75 12.18-3.08 24.37-6.2297 36.7-8.6797 9.05-3.5 2.0403 10.451 7.4703 12.441 12.83-1.75 24.73-7.9609 37.7-8.6609 1.11 4.97 1.9103 10.02 3.1203 14.98 13.44-4.51 27.339-7.83 41.089-11.3 3.09 3.79 2.1 10.121 6.1 13.131 10.9-3.55 21.971-6.5703 32.741-10.52 6.81-1.1 6.62 13.15 14.05 12.2 10.08-3.16 19.93-9.23 30.17-10.1 4.12 3.69 7.58 8.3694 12.5 11.059 9.9-0.56 18.259-10.24 27.859-9.95 6.6 3.03 12.05 8.2109 18.72 11.061 7.89-2.43 14.03-10.551 22-11.261 6.38 3.63 12.101 8.5903 18.991 11.22 7.66-2.52 13.11-9.5203 20.85-11.82 7.34 2.88 14.23 6.7497 21.48 9.8297 8.28 4.41 11.699-8.85 18.839-10.55 10.49 2.44 20.03 8.3912 30.55 10.781 4.26-3.56 6.0103-9.1809 9.5703-13.361 12.28-0.16 23.77 9.5 36.35 11.15 2.15-2.82 2.44-6.8591 5.55-8.9391l0.2797-2.1609c12.38-2.32 27.57 7.2006 40.72 9.7406 1.26-2.24-0.3497-4.4109-1.2797-6.4109 1.46-2.84 1.0597-6.1094 0.9797-9.1594z" fill="#b97720"/>
</g>
</svg>
