<?xml version="1.0" encoding="UTF-8" standalone="no"?>
<svg id="svg2" xmlns:rdf="http://www.w3.org/1999/02/22-rdf-syntax-ns#" xmlns="http://www.w3.org/2000/svg" height="1106pt" width="895pt" version="1.1" xmlns:cc="http://creativecommons.org/ns#" xmlns:dc="http://purl.org/dc/elements/1.1/" viewBox="0 0 895 1106">
<g id="g4347" transform="translate(-1600)">
<g>
<path id="rect4344" d="m2144.8 5.3422c-7.0551 0.080896-12.989 6.2359-18.924 9.5078-48.33 37.65-60.48 104.25-62.85 161.95-2.46 2.36 0.2291 7.7194-3.9609 8.6094-4.57-2.67-9.8191-3.6894-15.089-3.4094-2.09-0.935-6.015-1.3953-9.9375-1.3891-3.9225 0.006-7.8434 0.47937-9.9234 1.4094-27.38 0.71-51.859 25.389-51.059 52.959-2.6 1.89-1.5 11.27-0.05 13.05 0.11 14.07 4.6 28.151 12.3 39.891-0.9 0.64-1.6603 1.7003-2.8703 1.6703-101.7 5.8-204.25 37.52-283.18 103.63-34.92 28.97-68.861 62.81-84.211 106.53-4.13 7.95-0.6791 17.45-0.9391 25.93-0.17 4.72-0.4109 9.4203-0.5109 14.17l0.091 0.90938c-1.4725-0.38-2.7368-0.52544-3.8141-0.47813-7.5408 0.33113-5.9284 10.147-2.5859 15.659 44.46 157.54 89.439 315.16 135.21 472.29 0.33 21.67 19.861 34.75 38.461 40.87 0.93 0.53 1.9003 0.9703 2.9203 1.3203 12.4 4.53 25.229 7.84 38.089 10.75 1.05 1.46 3.3103 0.62 4.8703 0.8 10.89 2.81 22.15 4.7791 33.35 5.9891 0.44 0.05 1.3303 0.1412 1.7703 0.1812 12.01 2.93 26.3 3.6991 39.23 5.2891l0.8906-0.039c26.41 3.07 54.97 4.969 82.33 5.839l0.8797 0.361c2.55-0.19 5.1097-0.39 7.6797-0.6 1.7875-0.075 3.5757-0.1062 5.3641-0.1016-1.7884 0-3.5766 0.027-5.3641 0.1016 5.16 2.69 14.74 0.21 21.45 0.7 1.68 0.17 5.0403 0.4987 6.7203 0.6687 0.72-0.08 2.1503-0.2397 2.8703-0.3297 11.02 0.03 22.05 0.1097 33.08-0.1203 1.62 0.14 3.27 0.1507 4.9 0.011 6.18 0.46 12.41 0.249 18.58-0.361 6.55-0.23 16.761 2.0707 21.391-0.5593 38.08-0.89 78.4-3.1003 114.98-9.1703 0.44 0.08 1.3194 0.2496 1.7594 0.3296 12.985-1.634 26.214-3.9235 38.972-5.8093 0.1808-0.01 0.3683-0.018 0.5765-0.05 0.2265-0.032 0.4682-0.079 0.7344-0.15 0.49-0.3 1.4803-0.8907 1.9703-1.1907 11.52-1.08 23.789-4.309 34.159-7.939 2.04-0.4 4.6198-0.271 6.1298-1.861 14.03-4.29 29.831-9.6293 39.731-20.359 0.34-0.29 1.01-0.8694 1.35-1.1594l0.439-0.8c2.68-0.82 3.7607-3.9909 4.8907-6.3109 45.35-163.04 94.419-325.6 138.79-488.6 6.9212-6.7112 1.8761-15.367-6.4875-15.503-1.1947-0.0195-2.4575 0.135-3.7625 0.49375 0.07-5.39-0.2898-10.8-0.3298-16.18 0.02-3.89-0.2202-7.78-0.8702-11.6-6.28-28.86-20.059-56.07-39.809-77.97-25.18-32.72-60.279-56.3-95.909-76.42-61.07-33.37-129.04-51.65-196.49-66.53 6.6-10.85 10.9-23.49 11.22-36.23 2.82-3.89 1.2206-14.9 0.081-19.07-1.53-42.73-53.431-65.87-90.191-50.98-0.03-0.44-0.079-1.3209-0.1093-1.7609h0.01c6.74-66.07 27.201-136.73 82.441-178.77-0.4806-0.05125-0.9562-0.072581-1.4266-0.067187z" fill="#fdbb0f"/>
<path id="path4" d="m2125.8 14.85c6.33-3.49 12.66-10.26 20.35-9.44-55.24 42.04-75.7 112.7-82.44 178.77-0.28-2.46-0.53-4.92-0.76-7.38 2.37-57.7 14.52-124.3 62.85-161.95z" fill="#7e3502"/>
<path id="path6" d="m2063 176.8c-2.46 2.36 0.2291 7.7194-3.9609 8.6094 1.54 0.53 3.1897 0.88124 4.8297 0.53124-0.03-0.44-0.079-1.3209-0.1094-1.7609-0.28-2.46-0.5294-4.9197-0.7594-7.3797zm-28.988 3.8109c-3.9225 0.006-7.8434 0.47937-9.9234 1.4094 6.62-0.05 13.231-0.0303 19.861-0.0203-2.09-0.935-6.015-1.3953-9.9375-1.3891zm-48.733 107.31c-0.9 0.64-1.6603 1.7003-2.8703 1.6703-101.7 5.8-204.25 37.52-283.18 103.63-34.92 28.97-68.861 62.81-84.211 106.53 3.01 6.29 6.1712 17.24 15.581 12.32 17.53-10.86 26.679-31.08 43.569-42.97 5.01-5.04 16.961-6.7197 18.891 2.0703 4.65 20.39-0.3106 43.91 12.959 61.8 9.98 11.83 29.041 14.45 41.941 5.9 23.24-13.45 43.61-33.361 70.23-39.941 6.17-1.8 16.931-1.0594 18.141 6.9906 3.13 21.77 6.54 45.769 22.35 62.409 7.8 8.13 20.59 7.5709 29.55 1.8609 27.26-18.15 44.87-54.71 80.83-57.02 29.05-1.25 30.04 34.43 43.85 51.82 8.81 14.95 29.6 15.329 43.07 6.9094 17.7-10.67 22.889-34.359 41.909-43.409 12-2.89 20.621 7.8691 28.961 14.689 19.34 16.34 42.469 32.23 68.719 32.43 30.87-2.1 35.381-38.569 35.981-62.769 0.82-12.02 16.449-13.251 25.469-11.161 31.5 4.6 53.45 29.33 76 49.22 13.19 11.98 32.83 6.73 43.25-6-4.6-14.77-8.25-30.471-3.7-45.741-1.91-11.7-0.4197-36.059 17.77-30.619 30.24 7.2 39.291 43.879 66.261 55.959 9.16 3.16 12.709-12.359 18.369-11.359-6.28-28.86-20.059-56.07-39.809-77.97-4.17 2.73-11.38-6.8997-16.28-9.0297-76.15-49.59-161.19-87.231-251.02-103.03-8.25-0.2-18.67-4.86-25.7-1.35 0.37 0.11 1.1206 0.33062 1.4906 0.44062 0.34 0.14 1.0288 0.39969 1.3688 0.52969 8.31 4.63 18.061 5.2 26.591 8.95-15.7-1.64-29.69-9.6897-45.23-12.08-0.34-0.12-1.0303-0.37-1.3703-0.5-43.4-12.49-89.541-1.75-130.44 14.45-7.54 2.34-15.15 6.4803-23.28 5.0703 16.76-3.03 31.75-11.45 47.87-16.6-13.59-8.7-25.58-20.2-33.88-34.1zm-33.059 14.192c1.7775-0.21369 2.3541 2.8241 0.2891 3.3578-12.63 6.75-25.5 13.039-38.1 19.839-2.25 1.87-3.24-2.5197-1.5-3.2797 12.97-6.24 25.33-13.719 38.48-19.609 0.2987-0.18 0.5773-0.27729 0.8312-0.30781zm-102.72 35.108c14.46 2.98 38.159 0.94031 45.459 11.72-13.35 0.87-29.92-4.4903-44.6-6.0703-3.9 0.11-1.5494-3.51-0.8594-5.65zm326.6 21.78c23.22 8.23 46.81 15.41 69.9 23.98-1.81 2.99-2.7497 9.8409-7.3297 7.4109-22.03-7.85-44.269-15.1-66.459-22.47 0.84-3.14 2.3491-6.0703 3.8891-8.9203zm-91.395 13.227c5.8492 0.0391 0.3047 10.834-6.0047 6.6438-11.45-3.81-36.489 8.8791-38.609-4.8109 14.43-0.23 28.959 0.35093 43.289-1.6891 0.4944-0.10062 0.935-0.14636 1.325-0.14375zm-162.4 7.87c16.51 5.05 32.91 10.92 49.37 16.28 0.51 2.24-0.7103 5.6-2.7203 6.5-16.57-5.76-33.39-10.91-49.88-16.88 0.7-2.14 1.7497-4.2 3.2297-5.9zm415.15 4.025c2.1604-0.0664 3.7628 2.9919 5.6266 3.8844-13 12.45-28.169 22.571-42.139 33.961-3.12 2.88-5.2306-2.1109-7.0906-4.0109 13.83-11.61 28.341-22.54 42.641-33.6 0.3338-0.15251 0.6539-0.22488 0.9625-0.23438zm-533.72 1.7516c3.4551-0.0338 4.4569 5.7584 3.9422 8.7031-22.6 6.49-45.311 12.65-67.891 19.22-4.34 1.1-4.52-5.03-5.7-7.85 22.33-6.88 44.95-13.11 67.47-19.4 0.8141-0.46094 1.5383-0.66718 2.1781-0.67344zm408.08 35.388c2.1973-0.0102 4.1828 1.6828 5.1672 3.5766-10.56 9.9-21.02 19.969-32.15 29.209-2.95-0.02-5.6494-4.4703-2.1594-6.2203 9.52-8.89 19.23-17.589 28.7-26.539 0.1481-0.0162 0.2957-0.0259 0.4422-0.0266zm-146.41 6.7953c17.34 3.48 34.381 8.7212 51.561 13.031-0.52 2.42-1.3506 6.88-4.7406 5.65-16.53-3.78-32.7-9.0412-49.27-12.731 0.48-2.1 1.29-4.13 2.45-5.95zm-373.63 3.1969c2.0197-0.0905 4.1375 2.4781 4.1187 4.4844-10.29 9.14-20.361 18.539-30.341 28.019-2.71 0.84-8.0697-2.5591-3.8297-4.9891 9.5-9.54 19.31-18.861 29.65-27.461 0.1331-0.0306 0.2669-0.0471 0.4016-0.0531zm175.12 0.0484c2.4125-0.0243 5.9797 4.3156 2.4453 5.9656-9.2 8.86-18.56 17.61-28.22 25.97-2.43 2.07-4.9497-1.1809-6.1297-3.1109 10.77-9.28 20.769-19.389 31.439-28.759 0.1481-0.0425 0.3048-0.064 0.4656-0.0656zm404.22 17.916c17.93 14.95 35.43 30.449 52.95 45.859-2.2 2.56-4.3397 5.9109-7.8797 6.6609-16.5-15.51-34.011-29.911-50.961-44.881-3.14-3.36 4.4606-5.2291 5.8906-7.6391zm-328.76 4.9594c18.2 5.29 36.33 12.081 54.5 17.991-0.4 2.43-1.3906 6.0494-3.8906 6.7094-17.93-5.81-35.53-12.689-53.62-18.009 0.52-2.38 1.0909-5.0406 3.0109-6.6906zm429.88 3.9797c14.76 2.07 29.579 4.3712 44.159 7.5312 3.17 0.04 1.9209 4.34 0.7109 6.2-15.23-3.03-30.591-5.3103-45.881-7.9203 0.11-1.97 0.4609-3.9209 1.0109-5.8109zm-268.57 18.106c2.7966 0.19852 5.7225 4.0675 6.0375 6.5438-18.4 13-37.951 24.69-56.791 37.17-4.31 3.39-6.6006-3.2394-8.9906-5.9094 19.63-12.37 38.811-25.5 58.561-37.65 0.3863-0.13625 0.7833-0.18305 1.1828-0.15469zm-307.3 4.07c2.19 0.98 4.3109 5.3997 4.4609 8.3797-22.08 9.55-44.44 18.511-66.53 28.061-1.83-2.46-4.3003-5.1906-4.0203-8.4406 21.84-9.74 44.029-18.77 66.089-28zm313.97 38.83c14.48 2 28.921 4.8203 43.361 7.2203 3.56-0.04 3.2788 4.4406 1.3688 6.5406-15.22-2.8-30.519-5.1803-45.719-8.0703 0.11-1.93 0.4391-3.8506 0.9891-5.6906zm-112 579.72c-1.7883 0-3.5766 0.027-5.3641 0.1016 5.16 2.69 14.74 0.21 21.45 0.7-5.355-0.45-10.721-0.7875-16.086-0.8016zm103.63 0.111c-1.95 0.01-3.8906 0.03-5.8406 0.02-5.2 0.01-10.39-0.1009-15.55 0.5391 6.55-0.23 16.761 2.0706 21.391-0.5594z" fill="#fff0d1"/>
<path id="path10" d="m1973 234.98c-0.8-27.57 23.68-52.25 51.06-52.96 6.62-0.05 13.23-0.03 19.86-0.02 5.27-0.28 10.52 0.74 15.09 3.41 1.54 0.53 3.19 0.88 4.83 0.53 36.76-14.89 88.66 8.25 90.19 50.98-0.08 6.35-0.11 12.71-0.08 19.07-0.32 12.74-4.62 25.38-11.22 36.23-6.28 8.8-12.78 17.75-21.94 23.79-33.72-7.23-68.84-3.81-101.66 6.01-13.59-8.7-25.58-20.2-33.88-34.1-7.7-11.74-12.19-25.82-12.3-39.89 0.02-4.36 0.08-8.71 0.05-13.05m30.48-33.49c-30.57 10.54-19.73 52.9-9.32 73.45 3.5-23.13-8.03-54.62 13.84-73.33-1.13-0.03-3.39-0.09-4.52-0.12z" fill="#ff014a"/>
</g>
<path id="path12" d="m2003.5 201.49c-30.57 10.54-19.73 52.9-9.3203 73.45 3.5-23.13-8.0294-54.621 13.841-73.331l-4.5203-0.11876zm150.55 35.43c-0.08 6.35-0.1097 12.71-0.08 19.07 2.82-3.89 1.2197-14.9 0.08-19.07z" fill-opacity=".90588" fill="#f784a3"/>
<g>
<path id="path14" d="m1973 234.98c-2.6 1.89-1.5 11.27-0.05 13.05 0.02-4.36 0.08-8.71 0.05-13.05zm169.73 57.241c-6.28 8.8-12.781 17.749-21.941 23.789 6.96 2.46 14.191 3.95 21.341 5.75 7.03-3.51 17.45 1.15 25.7 1.35 89.83 15.8 174.87 53.441 251.02 103.03 4.9 2.13 12.11 11.76 16.28 9.0297-25.1-32.72-60.2-56.3-95.9-76.42-61-33.37-129-51.65-196.4-66.53zm-17.7 26.88c0.34 0.13 1.0303 0.38 1.3703 0.5-0.34-0.12-1.0303-0.37-1.3703-0.5zm18.641 3.1c0.34 0.14 1.0288 0.39969 1.3688 0.52969-0.34-0.13-1.0288-0.38969-1.3688-0.52969z" fill="#fae7bf"/>
<path id="path22" d="m1952.2 302.11c-0.2539 0.0305-0.5325 0.12781-0.8312 0.30781-13.15 5.89-25.51 13.369-38.48 19.609-1.74 0.76-0.75 5.1497 1.5 3.2797 12.6-6.8 25.47-13.089 38.1-19.839 2.065-0.53375 1.4884-3.5715-0.2891-3.3578zm-102.72 35.108c-0.69 2.14-3.0406 5.76 0.8594 5.65 14.68 1.58 31.25 6.9403 44.6 6.0703-7.3-10.78-30.999-8.7403-45.459-11.72zm487.94 46.905c-0.3086 0.01-0.6287 0.0819-0.9625 0.23438-14.3 11.06-28.811 21.99-42.641 33.6 1.86 1.9 3.9706 6.8909 7.0906 4.0109 13.97-11.39 29.139-21.511 42.139-33.961-1.8638-0.89251-3.4662-3.9508-5.6266-3.8844zm-533.72 1.7516c-0.6398 0.006-1.364 0.2125-2.1781 0.67344-22.52 6.29-45.14 12.52-67.47 19.4 1.18 2.82 1.36 8.95 5.7 7.85 22.58-6.57 45.291-12.73 67.891-19.22 0.5147-2.9447-0.4871-8.7369-3.9422-8.7031zm138.63 68.303c-1.92 1.65-2.4909 4.3106-3.0109 6.6906 18.09 5.32 35.69 12.199 53.62 18.009 2.5-0.66 3.4906-4.2794 3.8906-6.7094-18.17-5.91-36.3-12.701-54.5-17.991zm429.88 3.9797c-0.55 1.89-0.9009 3.8409-1.0109 5.8109 15.29 2.61 30.651 4.8903 45.881 7.9203 1.21-1.86 2.4591-6.16-0.7109-6.2-14.58-3.16-29.399-5.4612-44.159-7.5312z" fill="#df1731"/>
<path id="path24" d="m2082.5 312.15c-21.406 0.0999-42.817 3.7375-63.33 9.875-16.12 5.15-31.11 13.57-47.87 16.6 8.13 1.41 15.74-2.7303 23.28-5.0703 40.9-16.2 87.041-26.94 130.44-14.45 0.34 0.13 1.0303 0.38 1.3703 0.5 15.54 2.39 29.53 10.44 45.23 12.08-8.53-3.75-18.281-4.32-26.591-8.95-0.34-0.13-1.0288-0.38969-1.3688-0.52969-0.37-0.11-1.1206-0.33062-1.4906-0.44062-7.15-1.8-14.381-3.29-21.341-5.75-12.645-2.7112-25.486-3.924-38.33-3.8641zm393.35 212.6c-2.67 9.18-7.4897 19.62-16.88 23.53-17.64 7.71-33.609 22.91-53.759 22.33 14.47 0.66 28.029 6.8994 42.319 8.0594 11.85-0.81 4.1712-15.189 5.6812-22.819 6.96-7.73 24.959-0.73031 22.969-14.92 0.07-5.39-0.2897-10.8-0.3297-16.18zm-862.27 15.109 0.091 0.90938c-2.6 17.87 33.741 2.4312 26.891 23.481-0.44 2.86-1.3309 5.6397-1.6609 8.5297 11.94 16.84 36.94-10.021 52.17 0.23907 2.7 6.94-2.1594 17.05 4.4906 22 16.87-0.55 30.87-13.559 47.9-13.089-45.58-4.14-89.751-20.5-129.88-42.07zm788.55 35.45c-8.54 6.65-20.199 7.9706-30.169 11.941 8.56 3.51 17.21 7.89 26.63 8 4.72-5.62 3.0991-13.201 3.5391-19.941zm-655.95 8.5297c3.27 6.99-0.3794 22.34 11.691 20.1 10.74-2.96 20.48-8.82 30.38-13.85-14.12 0.91-28.35-3.22-42.07-6.25zm54.6 7.2109c4.4 6.58 4.1106 16.149 11.091 20.869 10.81-0.28 19.83-7.83 28.33-13.85-12.85-3.12-27.75-0.19876-39.42-7.0188zm544.56 1.1094c-4.27 8.2-16.58 5.7294-24.43 6.1094 8.86 5.69 25.72 10.621 24.43-6.1094zm-55.1 3.15c-0.4998 1.5433-0.9247 3.2177-1.3859 4.9 0.6866-1.3323 1.1706-2.94 1.3859-4.9zm-1.3859 4.9c-4.2248 8.1977-16.415 5.5747-24.914 5.05 5.37 3.32 11.36 7.9203 18.12 6.1703 4.0695-2.2777 5.5755-6.7764 6.7938-11.22zm-430.05-0.85c2.95 6.61 2.3297 20.761 12.73 18.441 9.06-2.62 15.96-9.32 23.35-14.8-11.99-1.3-24.43-0.23062-36.08-3.6406zm56.291 4.8203c2.91 5.84 4.9397 16.65 13.58 15.45 8.02-2.62 14.879-8.17 21.259-13.55-11.63-0.27-23.269-0.68-34.839-1.9zm318.34 0.0391c-5.27 7.6-17.419 2.5006-25.359 4.8906 7.88 8.26 24.869 10.839 25.359-4.8906zm-261.66 3.0312c4.37 5.8 7.3297 15.95 15.98 15.55 7.82-2.44 13.61-8.9209 19.08-14.711-11.69 0.12-23.389-0.0291-35.059-0.83907zm205.78 0.26876c-10.6 2.36-21.819 2.3009-32.539 0.66093 8.99 11.23 28.569 19.429 32.539-0.66093zm-148.1 0.57c4.16 4.77 7.4494 10.769 13.059 13.989 9.69 4.09 15.73-6.6297 20.8-13.03-11.27-0.78-22.589-0.15938-33.859-0.95938zm56.67 0.0391c5.7 5.07 10.95 11.051 18.05 14.141 8.04 2.66 13.239-7.0397 15.789-13.28-11.27 0.07-22.629 0.55907-33.839-0.86093z" fill="#bd7722"/>
<path id="path32" d="m2176.1 359c-1.54 2.85-3.0491 5.7803-3.8891 8.9203 22.19 7.37 44.429 14.62 66.459 22.47 4.58 2.43 5.5197-4.4209 7.3297-7.4109-23.09-8.57-46.68-15.75-69.9-23.98zm-253.8 21.1c-1.48 1.7-2.5297 3.76-3.2297 5.9 16.49 5.97 33.31 11.12 49.88 16.88 2.01-0.9 3.2303-4.26 2.7203-6.5-16.46-5.36-32.86-11.23-49.37-16.28zm143.1 47.959c-1.16 1.82-1.97 3.85-2.45 5.95 16.57 3.69 32.74 8.9512 49.27 12.731 3.39 1.23 4.2206-3.23 4.7406-5.65-17.18-4.31-34.221-9.5512-51.561-13.031zm205.7 21.16c-1.43 2.41-9.0306 4.2791-5.8906 7.6391 16.95 14.97 34.461 29.371 50.961 44.881 3.54-0.75 5.6797-4.1009 7.8797-6.6609-17.52-15.41-35.02-30.909-52.95-45.859zm-474.8 31.13c-22.06 9.23-44.249 18.26-66.089 28-0.28 3.25 2.1903 5.9806 4.0203 8.4406 22.09-9.55 44.45-18.511 66.53-28.061-0.15-2.98-2.2709-7.3997-4.4609-8.3797zm313.97 38.83c-0.55 1.84-0.8791 3.7606-0.9891 5.6906 15.2 2.89 30.499 5.2703 45.719 8.0703 1.91-2.1 2.1912-6.5806-1.3688-6.5406-14.44-2.4-28.881-5.2203-43.361-7.2203z" fill="#ff1c87"/>
<path id="path56" d="m1684.8 464.95c-3.855-0.0487-8.095 1.6316-10.6 4.1516-16.89 11.89-26.039 32.11-43.569 42.97-9.41 4.92-12.571-6.0303-15.581-12.32-4.13 7.95-0.6791 17.45-0.9391 25.93 1.88 7.19 8.8094 15.33 16.659 9.3703 17.29-12.64 27.101-33.63 45.791-44.72 4.57-1.87 12.67-3.17 14.22 3.05 5.81 20.09 0.059 43.3 12.189 61.6 11.36 15.93 35.721 15.851 49.911 3.7906 24.39-13.8 47.949-40.36 78.439-35.35 9.72 24.41 6.7 60.459 34.45 74.089 32.63 3.49 46.99-34.659 71.58-49.189 14.76-11.65 42.52-18.53 53.75 0.72031 9.49 14.81 12.571 33.659 25.791 46.019 11.49 10.1 29.159 6.54 40.859-1.4 12.59-10.66 19.43-26.409 31.62-37.419 7.39-6.64 18.991-4.8706 25.741 1.8094 19.11 18.03 41.159 34.16 67.059 40.53 3.24-0.2 6.4909-0.0594 9.7109 0.39062 18.08 1.68 31.25-14.561 34.23-30.891 4.53-12.69 1.28-26.82 6.65-39.18 19.06-10.28 41.429 1.29 58.259 11.1 20.8 11.88 33.211 37.831 58.241 41.791 0.64 0.02 1.9194 0.0394 2.5594 0.0594 17.31-2.03 31.77-19.42 24.48-36.95-10.42 12.73-30.06 17.98-43.25 6-22.55-19.89-44.5-44.62-76-49.22-9.02-2.09-24.649-0.85907-25.469 11.161-0.6 24.2-5.1112 60.669-35.981 62.769-26.25-0.2-49.379-16.09-68.719-32.43-8.34-6.82-16.961-17.579-28.961-14.689-19.02 9.05-24.209 32.739-41.909 43.409-13.47 8.42-34.26 8.0406-43.07-6.9094-13.81-17.39-14.8-53.07-43.85-51.82-35.96 2.31-53.57 38.87-80.83 57.02-8.96 5.71-21.75 6.2691-29.55-1.8609-15.81-16.64-19.22-40.639-22.35-62.409-1.21-8.05-11.971-8.7906-18.141-6.9906-26.62 6.58-46.99 26.491-70.23 39.941-12.9 8.55-31.961 5.93-41.941-5.9-13.27-17.89-8.3094-41.41-12.959-61.8-0.965-4.395-4.4356-6.1731-8.2906-6.2219zm700.88 2.8125c-13.753-0.20453-14.815 20.795-13.084 31.398 7.34-14.5 27.521-4.4191 36.231 4.1109 17.57 13.65 26.809 40.33 50.159 45 9.39-3.91 14.21-14.35 16.88-23.53 0.02-3.89-0.2203-7.78-0.8703-11.6-5.66-1-9.2088 14.519-18.369 11.359-26.97-12.08-36.021-48.759-66.261-55.959-1.7053-0.51-3.2632-0.75852-4.6859-0.77968z" fill="#f5d5a4"/>
<path id="path64" d="m1683.7 488.78c-2.5066 0.0179-5.1819 0.72718-7.1813 1.5453-18.69 11.09-28.501 32.08-45.791 44.72-7.85 5.96-14.779-2.1803-16.659-9.3703-0.17 4.72-0.4109 9.4203-0.5109 14.17 40.13 21.57 84.301 37.93 129.88 42.07 0.97 0.54 1.8688 1.1794 2.7188 1.9094 13.72 3.03 27.95 7.16 42.07 6.25 4.1-0.84 8.9597-1.8691 12.53 0.96093 11.67 6.82 26.57 3.8988 39.42 7.0188 6.01-2.88 14.4-6.1194 18.6 1.2906 11.65 3.41 24.09 2.3406 36.08 3.6406 6.31-4.57 16.141-7.7203 20.211 1.1797 11.57 1.22 23.209 1.63 34.839 1.9 6.2-5.59 17.651-7.6597 21.841 1.1703 11.67 0.81 23.369 0.95907 35.059 0.83907 6.11-6.8 16.691-8.4191 22.391 0.0109 11.27 0.8 22.589 0.17938 33.859 0.95938 5.52-8.38 16.461-9.2703 22.811-0.92031 11.21 1.42 22.569 0.93093 33.839 0.86093 5.8-10.62 17.731-8.4503 25.281-0.82031 10.72 1.64 21.939 1.6991 32.539-0.66093 1.51-2.99 3.02-5.9797 4.6-8.9297-25.9-6.37-47.949-22.5-67.059-40.53-6.75-6.68-18.351-8.4494-25.741-1.8094-12.19 11.01-19.03 26.759-31.62 37.419-11.7 7.94-29.369 11.5-40.859 1.4-13.22-12.36-16.301-31.209-25.791-46.019-11.23-19.25-38.99-12.37-53.75-0.72031-24.59 14.53-38.95 52.679-71.58 49.189-27.75-13.63-24.73-49.679-34.45-74.089-30.49-5.01-54.049 21.55-78.439 35.35-14.19 12.06-38.551 12.139-49.911-3.7906-12.13-18.3-6.3791-41.51-12.189-61.6-0.8718-3.4988-3.8163-4.6184-7.039-4.5953zm701.25 3.0547c-5.0818-0.0977-9.6412 1.8828-12.394 7.3203-4.55 15.27-0.9 30.971 3.7 45.741 7.29 17.53-7.1697 34.92-24.48 36.95 7.13 0 13.671 2.8106 20.161 5.3906 9.97-3.97 21.629-5.2906 30.169-11.941 0.87-1.66 1.6712-3.42 3.0812-4.7 20.15 0.58 36.119-14.62 53.759-22.33-23.35-4.67-32.589-31.35-50.159-45-5.4437-5.3312-15.368-11.268-23.838-11.431zm-135.56 33.047c-5.6874-0.0402-11.31 1.1228-16.67 4.0141-5.37 12.36-2.12 26.49-6.65 39.18-2.98 16.33-16.15 32.571-34.23 30.891 5.16 3.76 10.689 6.9297 16.209 10.13 7.94-2.39 20.089 2.7094 25.359-4.8906 3.5-18.77 21.711-4.4294 30.511 1.0406 9.88 0.61 24.76 4.07 26.3-9.95 5.25-14.05 22.08-0.15062 30.67 2.9594 7.85-0.38 20.16 2.0906 24.43-6.1094 0.51-3.7 1.72-7.2894 3.9-10.359-25.03-3.96-37.441-29.911-58.241-41.791-12.097-7.0509-27.055-15.011-41.589-15.114z" fill="#d48b25"/>
<path id="path76" d="m1609.8 540.28c-7.5408 0.33113-5.9284 10.147-2.5859 15.659 11.13 2.55 23.931 0.71 33.291 8.3 6.85-21.05-29.491-5.6112-26.891-23.481-1.4725-0.38-2.7368-0.52544-3.8141-0.47813zm870.09 0.14531c-1.1947-0.0195-2.4574 0.135-3.7624 0.49375 1.99 14.19-16.009 7.1903-22.969 14.92-1.51 7.63 6.1688 22.009-5.6812 22.819-14.29-1.16-27.849-7.3994-42.319-8.0594-1.41 1.28-2.2112 3.04-3.0812 4.7-0.44 6.74 1.1809 14.321-3.5391 19.941-9.42-0.11-18.07-4.49-26.63-8-6.49-2.58-13.031-5.3906-20.161-5.3906-0.64-0.02-1.9194-0.0394-2.5594-0.0594-2.18 3.07-3.39 6.6594-3.9 10.359 1.29 16.73-15.57 11.799-24.43 6.1094-8.59-3.11-25.42-17.009-30.67-2.9594-1.82 5.62-2.5697 12.98-8.1797 16.12-6.76 1.75-12.75-2.8503-18.12-6.1703-8.8-5.47-27.011-19.811-30.511-1.0406-0.49 15.73-17.479 13.151-25.359 4.8906-5.52-3.2-11.049-6.3697-16.209-10.13-3.22-0.45-6.4709-0.59062-9.7109-0.39062-1.58 2.95-3.09 5.9397-4.6 8.9297-3.97 20.09-23.549 11.891-32.539 0.66093-7.55-7.63-19.481-9.7997-25.281 0.82031-2.55 6.24-7.7491 15.94-15.789 13.28-7.1-3.09-12.35-9.0706-18.05-14.141-6.35-8.35-17.291-7.4597-22.811 0.92031-5.07 6.4-11.11 17.12-20.8 13.03-5.61-3.22-8.8994-9.2191-13.059-13.989-5.7-8.43-16.281-6.8109-22.391-0.0109-5.47 5.79-11.26 12.271-19.08 14.711-8.65 0.4-11.61-9.75-15.98-15.55-4.19-8.83-15.641-6.7603-21.841-1.1703-6.38 5.38-13.239 10.93-21.259 13.55-8.64 1.2-10.67-9.61-13.58-15.45-4.07-8.9-13.901-5.7497-20.211-1.1797-7.39 5.48-14.29 12.18-23.35 14.8-10.4 2.32-9.7797-11.831-12.73-18.441-4.2-7.41-12.59-4.1706-18.6-1.2906-8.5 6.02-17.52 13.57-28.33 13.85-6.98-4.72-6.6906-14.289-11.091-20.869-3.57-2.83-8.4297-1.8009-12.53-0.96093-9.9 5.03-19.64 10.89-30.38 13.85-12.07 2.24-8.4206-13.11-11.691-20.1-0.85-0.73-1.7488-1.3694-2.7188-1.9094-17.03-0.47-31.03 12.539-47.9 13.089-6.65-4.95-1.7906-15.06-4.4906-22-15.23-10.26-40.23 16.601-52.17-0.23907-1.47 7.58 1.8806 16.949 11.541 13.289 3.33-0.52 6.6094-1.2694 9.9094-1.9094 9.71-2.42 20.53-7.8 30.47-3.75 1.79 7.49-3.3306 18 4.5594 22.75 9.73-0.62 18.291-5.17 27.381-8.05 6.61-3.56 14.59-6.7503 22.03-4.1703 3.32 6.33 2.9797 13.96 6.1297 20.43 8.71 1.59 16.429-2.8594 23.859-6.6094 5.84-2.58 11.47-5.8706 17.72-7.2906 12.33-2.7 11.36 13.67 16.42 20.62 8.34 4.25 16.26-2.5203 23-6.5703 6.68-3.55 13.88-10.589 21.95-8.5594 7.36 5.23 5.15 16.51 12.1 22.33 7.81 1.72 14.059-3.47 20.009-7.55 7.29-4.72 14.631-12.83 23.931-10.9 5.79 4.32 7.1491 12.301 10.939 18.241 7.66 4.65 15.83-1.0609 22.13-5.3609 5.99-4.63 12.161-10.37 19.931-11.3 8.44 2.3 11.389 11.96 15.809 18.7 8.34 8.7 18.171-0.93 24.441-7.15 7.87-11.4 23.43-13.649 29.63 1.1109 6.29 11.99 21.53 12.48 27.43-0.25 6.52-14.64 23.479-12.46 30.809 0.05 7 10.22 22.121 14.55 27.161-0.0203 4.35-16.48 20.41-13.391 28.78-2.9406 7.07 6.01 20.64 17.481 27.38 4.8906 2.46-5.42 3.8303-12.18 8.7703-15.95 8.02-2.2 14.58 4.0403 20.83 7.9703 7.75 4.88 20.081 15.16 27.491 4.1 1.61-5.57 2.7791-12.5 7.6891-16.02 8.95-2.19 16.49 5.9397 23.87 9.7797 6.83 5.78 21.32 11.711 24.58-0.78907-0.97-20.77 20.361-14.411 30.691-6.9609 7.32 2.78 14.4 8.1697 22.7 6.3297 6.73-5.38 2.3194-16.369 8.8594-21.509 7.07-1.15 13.99 2.72 20.5 5.05 9.52 2.57 18.47 9.3203 28.67 7.4203 6.77-5.5 2.9997-15.22 4.5297-22.6 10.82-2.07 21.411 2.45 31.791 5 4.94 1.16 10.01 1.1 15.07 1.35 8.42-4.33 2.9091-15.6 4.5391-22.9 8.14-7.81 21-6.6106 31.5-7.1406 6.9212-6.7112 1.876-15.367-6.4876-15.503z" fill="#502a81"/>
<path id="path80" d="m2486.4 555.93c-10.5 0.53-23.36-0.66938-31.5 7.1406-1.63 7.3 3.8809 18.57-4.5391 22.9 0.32 0.28 0.9691 0.82 1.2891 1.1-36.32 154.66-74.84 308.95-109.7 463.92l0.7703-0.15c2.68-0.82 3.7606-3.9909 4.8906-6.3109 45.35-163.04 94.419-325.6 138.79-488.6zm-144.45 495.06c-0.26 0.45-0.7688 1.3594-1.0188 1.8094 0.34-0.29 1.01-0.8694 1.35-1.1594l-0.3312-0.65zm-734.8-495.06c44.46 157.54 89.439 315.16 135.21 472.29-30.5-142.27-64.369-284.21-96.389-426.31-0.4944-4.6449-4.7602-12.646-1.6594-15.308-5.0071-1.4007-6.6392-8.1286-5.5312-13.842 0.33-2.89 1.2209-5.6697 1.6609-8.5297-9.36-7.59-22.161-5.75-33.291-8.3zm37.161 30.672c1.6357 0.45758 3.6308 0.34809 6.0094-0.55312-3.1077-0.63208-4.9712-0.33811-6.0094 0.55312zm38.8-7.675c-7.6917-0.082-15.599 3.3975-22.881 5.2125 40.77 161.48 79.961 323.42 120.59 484.95 0.93 0.53 1.9003 0.9703 2.9203 1.3203 3.65-0.18-0.4912-5.6703 0.7188-7.0203-29.68-149.93-59.359-299.86-89.139-449.78-0.76-3.48-0.6609-7.0003-0.061-10.47-7.89-4.75-2.7694-15.26-4.5594-22.75-2.485-1.0125-5.0252-1.4352-7.5891-1.4625zm726.36 0.15625c-2.0126-0.0188-4.0336 0.13843-6.0624 0.52656-1.53 7.38 2.2403 17.1-4.5297 22.6 0.35 0.98 0.6009 1.9897 0.7609 3.0297-34.83 156.59-69.711 313.2-104.66 469.77 2.04-0.4 4.6197-0.2709 6.1297-1.8609 43.46-161.28 87.731-322.34 131.21-483.62 0.65-1.81 1.7397-3.4003 2.8797-4.9203-8.4338-2.0719-17.006-5.445-25.728-5.5266zm-57.119 10.447c-0.8785-0.00031-1.76 0.0656-2.6437 0.20938-6.54 5.14-2.1294 16.129-8.8594 21.509 0.4-0.01 1.2-0.0188 1.6-0.0188-29 155.25-57.439 310.62-86.359 465.89-0.74 3.28-2.2706 8.3503 2.7594 7.0203 0.49-0.3 1.4803-0.8906 1.9703-1.1906 35.86-162.83 73.109-325.4 109.39-488.16-5.6963-2.0388-11.706-5.2572-17.856-5.2594zm-613.33 0.45156c-5.693-0.0244-11.421 2.4378-16.378 5.1078 32.95 162.04 65.709 324.14 99.189 486.07 1.05 1.46 3.3103 0.62 4.8703 0.8-25.02-156.91-50.41-313.77-75.9-470.61-3.15-6.47-2.8097-14.1-6.1297-20.43-1.86-0.645-3.7539-0.92938-5.6515-0.93751zm55.522 7.1781c-0.6714 0.0267-1.3903 0.12031-2.1609 0.28907-6.25 1.42-11.88 4.7106-17.72 7.2906 4.8 0.69 3.09 7.4906 4.75 10.691 26.82 157.52 53.801 315.01 80.641 472.52 0.44 0.05 1.3303 0.1412 1.7703 0.1812 4.81 0.59 2.1497-5.2106 2.2297-8.2906-19.02-153.28-37.77-306.58-56.72-459.87-0.45-1.38 0.04-2.01 1.4703-1.9-4.7438-6.5156-4.1878-21.31-14.259-20.909zm504.03 0.65782c-6.5025 0.075-11.593 3.6775-11.108 14.062-22.5 159.42-48.049 318.52-70.659 477.94 0.44 0.08 1.3194 0.2497 1.7594 0.3297 1.41-0.83 3.4712-1.2688 3.6312-3.2188 32.16-160.63 63.649-321.41 95.959-482.01-5.165-3.725-13.08-7.1766-19.583-7.1016zm-56.264 4.7062c-1.0771-0.0202-2.175 0.0919-3.2937 0.36562-4.91 3.52-6.0791 10.45-7.6891 16.02-17.45 158.46-38.111 316.66-56.291 475.06 1.31-0.11 3.9509-0.33 5.2609-0.45 25.77-152.32 51.419-304.68 77.139-457.02 1.55-8 1.64-16.45 5.45-23.83-6.4575-3.36-13.037-10.004-20.577-10.145zm-391.54 0.0547c-6.8758 0.0361-13.119 5.8141-18.964 8.9203 2.71 4.01 3.2603 8.9706 3.9203 13.641 21.19 156.15 45.18 312.14 65.33 468.28l0.8906-0.039c1.69-0.51 5.3291 0.6097 4.5391-2.2703-14.19-151.84-28.06-303.72-42.28-455.56 1.01-2.97-2-8.5897 1.65-10.28-6.95-5.82-4.74-17.1-12.1-22.33-1.0088-0.25375-2.0037-0.3661-2.9859-0.36094zm335.89 3.8062c-1.1862-0.0273-2.4031 0.11094-3.6562 0.45469-4.94 3.77-6.3103 10.53-8.7703 15.95-10.97 158.07-26.729 316-39.189 474.03 1.25 0.18 3.7588 0.5497 5.0188 0.7297 21.63-160.84 41.08-322.09 63.77-482.74-5.2735-3.3159-10.768-8.2773-17.174-8.425zm-279.43 0.14531c-8.1103-0.15001-14.759 6.9116-21.366 11.189 0.84 1.69 1.79 3.3803 2.1 5.2703 18.07 157.68 35.61 315.44 54.07 473.05l4.5609 0.1594c-8.4-157.06-18.791-314.04-25.861-471.14-3.79-5.94-5.1491-13.921-10.939-18.241-0.8718-0.18094-1.7266-0.27355-2.5656-0.28907zm55.566 1.8688c-7.77 0.93-13.941 6.67-19.931 11.3 2.8 1.89 1.9 5.9803 2.6 8.7203 11.2 152.6 22.781 305.17 34.211 457.75 0.62 4.83-1.96 12.04 4.6 13.05l0.8797 0.3609c-1.52-157.5-5.61-315-6.55-472.48-4.42-6.74-7.3694-16.4-15.809-18.7zm168.16 0.87187c-5.605-0.0187-10.708 3.3288-12.883 11.569-6.49 159.42-14.311 318.8-22.091 478.17 1.95 0.01 3.8906-0.01 5.8406-0.02 14.44-160.39 28.5-320.94 45.03-481.09-4.185-5.225-10.292-8.6094-15.897-8.6281zm-56.87 1.3703c-5.577 0.13935-10.927 3.3063-13.983 10.169 1.58 3.65 1.5106 7.66 1.1406 11.55-1.5 155.85-2.6106 311.7-4.2906 467.54 1.62 0.14 3.27 0.1509 4.9 0.011 10.2-159.63 17.169-319.62 29.059-479.05-3.8941-6.6459-10.506-10.377-16.827-10.219zm-55.602 0.0531c-5.6487 0.14249-11.506 3.5547-15.441 9.2547 8.62 159.77 8.5894 321.51 17.959 480.4 0.72-0.08 2.1503-0.2397 2.8703-0.3297 4.05-159.61 4.64-319.34 8.8-478.96-3.1-7.38-8.5403-10.508-14.189-10.366z" fill="#8641cf"/>
<path id="path90" d="m1660.3 584.15c-3.3 0.64-6.5794 1.3894-9.9094 1.9094-12.39-2.52-5.01 9.6609-4.35 15.861 32.02 142.1 65.889 284.04 96.389 426.31 0.33 21.67 19.861 34.75 38.461 40.87-40.63-161.53-79.821-323.47-120.59-484.95zm774.97 0.47031c-1.14 1.52-2.2297 3.1103-2.8797 4.9203-43.48 161.28-87.751 322.34-131.21 483.62 14.03-4.29 29.831-9.6294 39.731-20.359 0.25-0.45 0.7588-1.3594 1.0188-1.8094 34.86-154.97 73.38-309.26 109.7-463.92-0.32-0.28-0.9691-0.82-1.2891-1.1-5.06-0.25-10.13-0.19-15.07-1.35zm-93.341 466.37 0.3312 0.65 0.4391-0.8-0.7703 0.15zm28.35-456.19c-36.28 162.76-73.529 325.33-109.39 488.16 11.52-1.08 23.789-4.3091 34.159-7.9391 34.95-156.57 69.831-313.18 104.66-469.77-0.16-1.04-0.4109-2.0497-0.7609-3.0297-10.2 1.9-19.15-4.8503-28.67-7.4203zm-647.57 0.3c-9.09 2.88-17.651 7.43-27.381 8.05-0.6 3.47-0.6991 6.9903 0.061 10.47 29.78 149.92 59.459 299.85 89.139 449.78-1.21 1.35 2.9312 6.8403-0.7188 7.0203 12.4 4.53 25.229 7.84 38.089 10.75-33.6-161.96-66.3-324.06-99.3-486.1zm52.019 9.65c-7.43 3.75-15.149 8.1994-23.859 6.6094 25.49 156.84 50.88 313.7 75.9 470.61 10.89 2.81 22.15 4.7791 33.35 5.9891-26.84-157.51-53.821-315-80.641-472.52-1.66-3.2 0.05-10.001-4.75-10.691zm543.49 0.17969c-32.31 160.6-63.799 321.38-95.959 482.01-0.16 1.95-2.2212 2.3888-3.6312 3.2188 12.986-1.6341 26.215-3.9235 38.973-5.8094-3.3958 0.107-2.1073-4.2721-1.4422-7.2203 28.92-155.27 57.359-310.64 86.359-465.89-0.4 0-1.2 0.009-1.6 0.0188-8.3 1.84-15.38-3.5497-22.7-6.3297zm-60.7 479.46c0.3822-0.012 0.8084-0.065 1.3172-0.2-0.4351 0.063-0.8809 0.1355-1.3172 0.2zm-425.7-472.89c-6.74 4.05-14.66 10.82-23 6.5703-1.43-0.11-1.9203 0.52-1.4703 1.9 18.95 153.29 37.7 306.59 56.72 459.87-0.08 3.08 2.5803 8.8806-2.2297 8.2906 12.01 2.93 26.3 3.6991 39.23 5.2891-20.2-156.11-44.2-312.1-65.4-468.25-0.66-4.67-1.2103-9.6306-3.9203-13.641zm455.66 0.38124c-3.26 12.5-17.75 6.5691-24.58 0.78907-3.81 7.38-3.9 15.83-5.45 23.83-25.72 152.34-51.369 304.7-77.139 457.02-1.31 0.12-3.9509 0.34-5.2609 0.45 18.18-158.4 38.841-316.6 56.291-475.06-7.41 11.06-19.741 0.78-27.491-4.1-22.69 160.65-42.14 321.9-63.77 482.74-1.26-0.18-3.7688-0.5497-5.0188-0.7297 12.46-158.03 28.219-315.96 39.189-474.03-6.74 12.59-20.31 1.1194-27.38-4.8906-16.53 160.15-30.59 320.7-45.03 481.09 38.08-0.89 78.4-3.1003 114.98-9.1703 22.61-159.42 48.159-318.52 70.659-477.94zm-401.6 5.8391c-5.95 4.08-12.199 9.27-20.009 7.55-3.65 1.69-0.64 7.3097-1.65 10.28 14.22 151.84 28.09 303.72 42.28 455.56 0.79 2.88-2.8491 1.7603-4.5391 2.2703 26.41 3.07 54.97 4.9691 82.33 5.8391-6.56-1.01-3.98-8.22-4.6-13.05-11.43-152.58-23.011-305.15-34.211-457.75-0.7-2.74 0.2-6.8303-2.6-8.7203-6.3 4.3-14.47 10.011-22.13 5.3609 7.07 157.1 17.461 314.08 25.861 471.14l-4.5609-0.1594c-18.46-157.61-36-315.37-54.07-473.05-0.31-1.89-1.26-3.5803-2.1-5.2703zm117.18 2.2297c-6.27 6.22-16.101 15.85-24.441 7.15 0.94 157.48 5.03 314.98 6.55 472.48 2.55-0.19 5.1097-0.39 7.6797-0.6 7.15-0.3 14.31 0.1 21.45 0.7 1.68 0.17 5.0403 0.4988 6.7203 0.6688-9.37-158.89-9.3394-320.63-17.959-480.4zm57.059 0.86093c-5.9 12.73-21.14 12.24-27.43 0.25-4.16 159.62-4.75 319.35-8.8 478.96 11.02 0.03 22.05 0.1097 33.08-0.1203 1.68-155.84 2.7906-311.69 4.2906-467.54 0.37-3.89 0.4394-7.9-1.1406-11.55zm57.97 0.0297c-5.04 14.57-20.161 10.24-27.161 0.0203-11.89 159.43-18.859 319.42-29.059 479.05 6.18 0.46 12.41 0.2491 18.58-0.3609 5.16-0.64 10.35-0.5291 15.55-0.5391 7.78-159.37 15.601-318.75 22.091-478.17z" fill="#a85fef"/>
</g>
</g>
</svg>
